<?xml version="1.0" encoding="UTF-8"?>
<svg version="1.1" xmlns="http://www.w3.org/2000/svg" width="512" height="512">
<path d="M0 0 C0.72826492 -0.00983917 1.45652985 -0.01967834 2.2068634 -0.02981567 C45.03947739 -0.48909325 83.35189229 10.7764875 116.1171875 39.23828125 C117.50550781 40.42550781 117.50550781 40.42550781 118.921875 41.63671875 C125.4039776 47.32875899 130.86200438 53.41031035 136.1171875 60.23828125 C136.85710937 61.16253906 137.59703125 62.08679688 138.359375 63.0390625 C152.52994824 81.15680233 161.41047645 102.08758763 167.1171875 124.23828125 C167.29797852 124.91922852 167.47876953 125.60017578 167.66503906 126.30175781 C170.4894809 137.48160613 170.42470571 148.90481439 170.4921875 160.36328125 C170.50424225 161.50724365 170.50424225 161.50724365 170.51654053 162.67431641 C170.60320257 173.53129048 169.4899046 183.64302745 167.1171875 194.23828125 C161.26619381 193.69736807 155.79138804 192.78579049 150.1171875 191.23828125 C150.32831177 190.00621948 150.32831177 190.00621948 150.54370117 188.74926758 C152.02184718 179.43284356 152.47906046 170.3404598 152.4296875 160.92578125 C152.42786469 160.20116699 152.42604187 159.47655273 152.42416382 158.72998047 C152.37850921 147.93943114 151.85665269 137.7265194 149.1171875 127.23828125 C148.96685059 126.59213867 148.81651367 125.94599609 148.66162109 125.28027344 C144.38944109 106.94051006 135.70911294 89.04670492 124.1171875 74.23828125 C123.41207031 73.31402344 122.70695312 72.38976562 121.98046875 71.4375 C107.48985748 53.04456971 88.98765608 37.98646868 67.1171875 29.23828125 C66.7871875 32.86828125 66.4571875 36.49828125 66.1171875 40.23828125 C66.93703125 40.191875 67.756875 40.14546875 68.6015625 40.09765625 C69.67921875 40.0615625 70.756875 40.02546875 71.8671875 39.98828125 C72.93453125 39.941875 74.001875 39.89546875 75.1015625 39.84765625 C78.1171875 40.23828125 78.1171875 40.23828125 80.47265625 42.015625 C82.5233394 44.78721339 82.71841422 46.99283772 82.59375 50.3984375 C81.86556265 54.73771788 80.38872258 58.82688821 78.80883789 62.92114258 C77.33370965 66.87432058 76.90591008 69.20968198 78.1171875 73.23828125 C79.62369706 75.708249 79.62369706 75.708249 81.57421875 78.109375 C82.27482422 79.01365234 82.97542969 79.91792969 83.69726562 80.84960938 C84.80231445 82.24856445 84.80231445 82.24856445 85.9296875 83.67578125 C87.37527376 85.52741663 88.81932782 87.38024942 90.26171875 89.234375 C91.22621948 90.45918579 91.22621948 90.45918579 92.21020508 91.70874023 C92.83950928 92.54348877 93.46881348 93.3782373 94.1171875 94.23828125 C94.85501465 95.04241455 95.5928418 95.84654785 96.35302734 96.67504883 C99.17332849 102.37146389 98.41695177 108.00273639 98.19921875 114.25390625 C98.17607086 115.63378995 98.15690751 117.01374567 98.14152527 118.39373779 C98.07523381 124.23012276 97.98683942 130.06373914 97.77807617 135.89697266 C96.31381228 152.81041377 96.31381228 152.81041377 102.32568359 167.52148438 C106.05133531 170.4961207 109.46737868 172.17353468 114.1171875 173.23828125 C117.57455826 172.48806573 119.92218248 171.34850148 122.9921875 169.61328125 C127.16168164 167.77870383 129.57901005 167.72590638 134.1171875 168.23828125 C138.45120651 171.48451288 140.21492721 176.18156661 142.3671875 180.98828125 C142.91246094 182.17744141 142.91246094 182.17744141 143.46875 183.390625 C144.3595071 185.33622604 145.23943703 187.28677779 146.1171875 189.23828125 C143.82789697 190.40982418 141.53600388 191.57566199 139.2421875 192.73828125 C138.59121094 193.07214844 137.94023437 193.40601563 137.26953125 193.75 C132.34375 196.23828125 132.34375 196.23828125 130.1171875 196.23828125 C127.1171875 190.48828125 127.1171875 190.48828125 127.1171875 188.23828125 C126.281875 188.67140625 126.281875 188.67140625 125.4296875 189.11328125 C124.6665625 189.48453125 123.9034375 189.85578125 123.1171875 190.23828125 C122.3746875 190.60953125 121.6321875 190.98078125 120.8671875 191.36328125 C115.6693263 193.01714618 111.5928718 192.94774691 106.74633789 190.61767578 C105.66344482 189.87630371 104.58055176 189.13493164 103.46484375 188.37109375 C102.58644081 187.77891556 102.58644081 187.77891556 101.69029236 187.17477417 C100.46532698 186.34432493 99.2462358 185.5051495 98.03295898 184.65771484 C96.17135285 183.35745984 94.29404017 182.08311543 92.41210938 180.8125 C83.29780739 174.59952104 83.29780739 174.59952104 82.1171875 172.23828125 C82.07872013 170.28506098 82.10699799 168.33040028 82.16577148 166.37768555 C82.19746933 165.14426926 82.22916718 163.91085297 82.26182556 162.64006042 C82.27947401 161.97705618 82.29712246 161.31405193 82.31530571 160.63095665 C82.41497429 156.33376422 82.43878284 152.03535811 82.47289944 147.73723125 C82.50685205 143.98374314 82.5685619 140.23518961 82.6965332 136.48364258 C83.30114655 118.01083943 82.57152088 104.8578134 69.25024414 90.62426758 C68.5634256 89.91404449 67.87660706 89.20382141 67.16897583 88.47207642 C57.888492 78.36835392 57.888492 78.36835392 57.4296875 71.80078125 C57.87097 66.32887822 60.01447084 61.26039471 62.1171875 56.23828125 C60.8796875 56.32078125 59.6421875 56.40328125 58.3671875 56.48828125 C55.41820777 56.6848799 54.40518334 56.45534478 52.0078125 54.6484375 C49.45835411 51.39840481 49.65712372 49.38204415 49.7265625 45.28515625 C49.73222229 44.62493469 49.73788208 43.96471313 49.74371338 43.28448486 C49.7660252 41.18499862 49.81620436 39.08724755 49.8671875 36.98828125 C49.88725956 35.56122265 49.90550911 34.13413717 49.921875 32.70703125 C49.96587057 29.21688832 50.03485874 25.72775426 50.1171875 22.23828125 C46.45452657 21.54832108 42.78686766 20.8898114 39.1171875 20.23828125 C38.10438721 20.05040039 37.09158691 19.86251953 36.0480957 19.66894531 C27.45404215 18.18621803 18.99949214 17.92455293 10.3046875 17.98828125 C9.25559204 17.99093994 9.25559204 17.99093994 8.18530273 17.99365234 C-1.94555745 18.02380717 -11.89449911 18.39832878 -21.8828125 20.23828125 C-21.68171875 21.90117188 -21.68171875 21.90117188 -21.4765625 23.59765625 C-21.4765625 29.64264455 -24.99241103 33.73749 -28.3828125 38.48828125 C-29.60958182 40.23789404 -30.82870385 41.99290091 -32.0390625 43.75390625 C-32.58369141 44.51993164 -33.12832031 45.28595703 -33.68945312 46.07519531 C-35.20485013 48.41026828 -35.20485013 48.41026828 -34.8828125 52.23828125 C-31.09100875 50.42606793 -27.29939277 48.6134621 -23.5078125 46.80078125 C-22.42757812 46.28451172 -21.34734375 45.76824219 -20.234375 45.23632812 C-19.203125 44.74326172 -18.171875 44.25019531 -17.109375 43.7421875 C-15.67972412 43.05878296 -15.67972412 43.05878296 -14.22119141 42.36157227 C-12.76991879 41.664422 -11.32287103 40.95831051 -9.8828125 40.23828125 C-3.35218499 39.33750504 -3.35218499 39.33750504 0.03515625 41.4140625 C2.17513802 43.26283026 4.14153353 45.21410244 6.1171875 47.23828125 C7.08659956 48.18818397 8.05807877 49.13598015 9.03125 50.08203125 C17.91663903 58.78430488 17.91663903 58.78430488 18.6171875 63.86328125 C18.54452425 67.48387545 17.75933731 69.11847591 15.3215332 71.76782227 C14.68245026 72.46328156 14.04336731 73.15874084 13.38491821 73.87527466 C8.76424145 78.69008339 4.07115399 83.42712452 -0.65234375 88.140625 C-1.78112623 89.27008237 -2.90976034 90.39968804 -4.03825378 91.5294342 C-6.38740906 93.88005413 -8.73833945 96.22887978 -11.09057617 98.57641602 C-14.10802594 101.58812958 -17.12091049 104.60436423 -20.13251209 107.6219244 C-22.45463421 109.94765192 -24.77912255 112.27100266 -27.10434532 114.59362984 C-28.21708286 115.70570009 -29.32907747 116.81851423 -30.44031715 117.93208122 C-31.98621086 119.48050534 -33.53525741 121.02570366 -35.08520508 122.57006836 C-35.96565994 123.44972763 -36.84611481 124.3293869 -37.75325012 125.23570251 C-41.27795259 128.55023055 -43.44429484 128.35737367 -48.203125 128.3359375 C-49.45996094 128.33271484 -50.71679688 128.32949219 -52.01171875 128.32617188 C-53.33042969 128.31779297 -54.64914063 128.30941406 -56.0078125 128.30078125 C-57.34765461 128.29576614 -58.6874985 128.29120326 -60.02734375 128.28710938 C-63.31254456 128.27529211 -66.59765647 128.25881742 -69.8828125 128.23828125 C-70.32282564 133.95782074 -70.10509738 138.49875814 -66.73779297 143.29101562 C-63.95055558 146.3858557 -60.89748178 149.18698306 -57.8203125 151.98828125 C-56.76246309 152.99084688 -55.70709804 153.99604072 -54.65429688 155.00390625 C-52.09173581 157.44632999 -49.49739362 159.8514844 -46.8828125 162.23828125 C-43.73093883 160.74238681 -41.66615305 159.21673968 -39.2578125 156.67578125 C-36.14259252 153.4041201 -34.9350471 152.31889485 -30.26269531 151.9609375 C-25.51334359 152.03045456 -21.99716832 153.56846322 -17.8046875 155.67578125 C-17.07082825 156.03414062 -16.33696899 156.3925 -15.58087158 156.76171875 C-14.04076612 157.52034856 -12.50471607 158.28726225 -10.97265625 159.06201172 C-8.6384981 160.23542303 -6.28622383 161.36452885 -3.9296875 162.4921875 C-2.42839399 163.23828828 -0.92834744 163.98690455 0.5703125 164.73828125 C1.26827942 165.06884521 1.96624634 165.39940918 2.68536377 165.73999023 C7.98183705 168.48902594 9.99978699 171.73579015 12.1171875 177.23828125 C12.46265625 178.11097656 12.808125 178.98367187 13.1640625 179.8828125 C13.39609375 180.59824219 13.628125 181.31367188 13.8671875 182.05078125 C14.10953125 182.77910156 14.351875 183.50742188 14.6015625 184.2578125 C15.1171875 186.23828125 15.1171875 186.23828125 15.1171875 189.23828125 C16.09300781 188.87734375 17.06882813 188.51640625 18.07421875 188.14453125 C19.35928319 187.67552963 20.64444454 187.20679346 21.9296875 186.73828125 C22.57228516 186.49980469 23.21488281 186.26132813 23.87695312 186.015625 C26.76652489 184.96759379 29.01794811 184.23828125 32.1171875 184.23828125 C32.9826922 186.5053645 33.83478065 188.77603204 34.6796875 191.05078125 C34.92654297 191.69337891 35.17339844 192.33597656 35.42773438 192.99804688 C37.23046875 197.8984375 37.23046875 197.8984375 36.1171875 201.23828125 C32.95427017 202.87627869 29.50090618 203.82916336 26.1171875 204.92578125 C25.19550781 205.24611328 24.27382812 205.56644531 23.32421875 205.89648438 C17.63063331 207.77962371 12.12941996 209.3326268 6.1171875 208.23828125 C3.22087582 206.60910593 2.40692823 205.13295363 1.39453125 202.00683594 C0.9005509 200.1962495 0.41508338 198.3833267 -0.06347656 196.56860352 C-2.12800368 189.12191078 -4.01732933 182.92281688 -10.7109375 178.53125 C-18.92811882 173.78882443 -18.92811882 173.78882443 -28.00634766 172.51538086 C-31.02816287 173.67952278 -32.79858382 175.91694245 -35.0078125 178.23828125 C-40.5801037 184.05859728 -40.5801037 184.05859728 -45.5078125 184.73828125 C-54.85248626 184.51754092 -63.69524425 171.57794833 -69.96704102 165.28442383 C-71.83691003 163.40913562 -73.71214149 161.5393266 -75.58789062 159.66992188 C-76.77896711 158.4781856 -77.9697339 157.2861397 -79.16015625 156.09375 C-79.72049057 155.53543991 -80.28082489 154.97712982 -80.85813904 154.40190125 C-86.95538952 148.2673069 -86.13406782 142.88508694 -86.17797852 134.63525391 C-86.19519552 132.37861434 -86.23908372 130.12343888 -86.28320312 127.8671875 C-86.2933301 126.43100035 -86.30184619 124.99480075 -86.30859375 123.55859375 C-86.32317627 122.25164551 -86.33775879 120.94469727 -86.3527832 119.59814453 C-85.8828125 116.23828125 -85.8828125 116.23828125 -84.26042175 114.01570129 C-81.03686279 111.60587794 -79.33142013 112.01027815 -75.37109375 112.43969727 C-62.78836529 113.29400742 -51.45888539 114.00973682 -41.33657837 105.50765419 C-35.95878696 100.66179983 -31.11920802 95.29059855 -26.36169434 89.84576416 C-23.85959784 87.02034682 -21.26168627 84.28579781 -18.671875 81.54101562 C-13.64729456 76.18871188 -8.73317311 70.74951413 -3.8828125 65.23828125 C-5.13990228 62.20925062 -5.13990228 62.20925062 -7.67285156 60.33032227 C-10.77986295 60.20092066 -12.52057936 61.28480524 -15.2421875 62.765625 C-16.27601563 63.31025391 -17.30984375 63.85488281 -18.375 64.41601562 C-20.53314873 65.58177822 -22.68942884 66.7510073 -24.84375 67.92382812 C-35.31209005 73.42425246 -35.31209005 73.42425246 -41.8828125 72.23828125 C-45.98567944 69.45521766 -47.95422535 64.82931786 -50.1328125 60.48828125 C-50.49632813 59.81023437 -50.85984375 59.1321875 -51.234375 58.43359375 C-53.57294939 53.80919477 -55.08688197 49.44767422 -53.8828125 44.23828125 C-52.36095216 41.00557138 -50.43889143 38.15316464 -48.3828125 35.23828125 C-47.85816406 34.46355469 -47.33351563 33.68882813 -46.79296875 32.890625 C-45.50557155 30.99464003 -44.20249284 29.11186997 -42.8828125 27.23828125 C-63.84214486 37.35472408 -81.96710816 49.18401054 -97.8828125 66.23828125 C-98.53378906 66.87765625 -99.18476562 67.51703125 -99.85546875 68.17578125 C-105.54457268 74.43798901 -105.81377454 83.1895995 -106.8828125 91.23828125 C-107.17679341 93.35066521 -107.47397891 95.46260436 -107.7734375 97.57421875 C-107.9374707 98.78062012 -108.10150391 99.98702148 -108.27050781 101.22998047 C-108.67698784 104.06200331 -109.20032178 106.84830593 -109.78417969 109.64892578 C-112.53257723 123.34953032 -114.69184461 139.08346689 -106.84796143 151.44512939 C-95.33814358 167.11018597 -79.56197839 180.12590861 -64.74940491 192.54078674 C-62.8828125 194.23828125 -62.8828125 194.23828125 -61.8828125 196.23828125 C-61.91929554 197.88185135 -62.0105826 199.52435119 -62.12890625 201.1640625 C-62.77126012 217.02264597 -59.5043751 225.68073083 -49.03125 237.546875 C-48.34135986 238.33449219 -47.65146973 239.12210938 -46.94067383 239.93359375 C-45.61306822 241.42043643 -44.24473613 242.87233405 -42.83081055 244.27734375 C-35.41029011 252.71788978 -36.88242433 263.78083838 -36.9453125 274.36328125 C-36.9321878 276.38934578 -36.91594012 278.41539262 -36.89648438 280.44140625 C-36.85585967 285.3742295 -36.85769974 290.3053725 -36.8828125 295.23828125 C-32.2628125 296.55828125 -27.6428125 297.87828125 -22.8828125 299.23828125 C-22.71275982 294.48252122 -22.71275982 294.48252122 -22.58496094 289.72558594 C-22.42266528 286.54971624 -22.14660945 284.58093945 -20.19067383 282.0402832 C-17.35659388 279.82740432 -15.90877085 279.74121015 -12.34765625 279.734375 C-10.76307617 279.70633789 -10.76307617 279.70633789 -9.14648438 279.67773438 C-8.04884766 279.67708984 -6.95121094 279.67644531 -5.8203125 279.67578125 C-3.6418329 279.66685828 -1.46335787 279.64530136 0.71484375 279.609375 C2.16129272 279.60828735 2.16129272 279.60828735 3.63696289 279.60717773 C6.1524221 279.43228688 6.1524221 279.43228688 7.92285156 277.89746094 C9.72806738 275.38964272 9.64090218 273.0971882 9.8046875 270.05078125 C9.9078125 268.13265625 10.0109375 266.21453125 10.1171875 264.23828125 C15.3971875 264.23828125 20.6771875 264.23828125 26.1171875 264.23828125 C27.18204741 281.95214133 27.18204741 281.95214133 24.734375 287.20703125 C22.9655322 289.19793657 21.28355798 290.69626126 19.1171875 292.23828125 C18.42625 292.955 17.7353125 293.67171875 17.0234375 294.41015625 C12.70342834 297.12758137 8.79327841 296.67160756 3.8046875 296.48828125 C2.87333984 296.47023438 1.94199219 296.4521875 0.98242188 296.43359375 C-1.30705447 296.38663013 -3.59439434 296.320976 -5.8828125 296.23828125 C-5.8828125 298.54828125 -5.8828125 300.85828125 -5.8828125 303.23828125 C4.6771875 303.23828125 15.2371875 303.23828125 26.1171875 303.23828125 C26.86613075 309.22982726 27.20984447 314.30823535 27.1171875 320.23828125 C21.5071875 320.23828125 15.8971875 320.23828125 10.1171875 320.23828125 C10.1996875 322.54828125 10.2821875 324.85828125 10.3671875 327.23828125 C10.44184312 334.80122043 9.51658806 339.67565269 4.24609375 345.19921875 C-2.53107493 351.47674739 -7.79128129 352.53485551 -16.82617188 352.52539062 C-17.82348831 352.53222366 -18.82080475 352.5390567 -19.8483429 352.5460968 C-22.01014457 352.55966861 -24.17197821 352.56873228 -26.33381653 352.57380676 C-29.7550066 352.5821002 -33.17593033 352.60260902 -36.5970459 352.62634277 C-45.09265538 352.68273897 -53.58832957 352.71796196 -62.08404541 352.75396729 C-69.26556543 352.78520936 -76.4469563 352.82440123 -83.62837219 352.8742218 C-86.99913255 352.89429348 -90.36979292 352.90261017 -93.74060059 352.91052246 C-95.80688847 352.92349464 -97.87317302 352.93701491 -99.93945312 352.95117188 C-101.34539482 352.94969902 -101.34539482 352.94969902 -102.77973938 352.94819641 C-109.06762041 352.99155973 -109.06762041 352.99155973 -114.8828125 355.23828125 C-116.28216263 358.03698152 -116.13546655 360.14326917 -115.8828125 363.23828125 C-114.02938475 365.79777671 -112.94524857 366.21746923 -109.8828125 367.23828125 C-108.27668863 367.33113537 -106.66698576 367.36724309 -105.05818176 367.36958313 C-103.56741119 367.3755954 -103.56741119 367.3755954 -102.04652405 367.38172913 C-100.95714035 367.38120041 -99.86775665 367.38067169 -98.74536133 367.38012695 C-97.59709869 367.38360138 -96.44883606 367.38707581 -95.26577759 367.39065552 C-92.76779987 367.3980162 -90.26981559 367.40335991 -87.77182961 367.40694618 C-83.81655686 367.41410465 -79.86140867 367.42976726 -75.90617371 367.44828796 C-74.55084329 367.45462538 -73.19551283 367.46095101 -71.8401823 367.46726513 C-70.82201414 367.47201385 -70.82201414 367.47201385 -69.78327692 367.4768585 C-60.57680674 367.51888818 -51.37037806 367.55189071 -42.16381836 367.56420898 C-35.95191169 367.57260578 -29.74022682 367.59515743 -23.52843112 367.63356465 C-20.24393315 367.65327427 -16.95983858 367.66352623 -13.67527199 367.66073036 C-10.00558867 367.65837562 -6.33679885 367.68055991 -2.66723633 367.70825195 C-1.58797379 367.70165054 -0.50871124 367.69504913 0.60325623 367.68824768 C8.18174368 367.78198874 13.50512077 369.07300326 19.359375 374.203125 C19.89820313 374.85410156 20.43703125 375.50507813 20.9921875 376.17578125 C21.54648438 376.82417969 22.10078125 377.47257812 22.671875 378.140625 C27.15130847 384.64185682 26.79182478 391.60969042 26.1171875 399.23828125 C24.43633167 405.89787458 19.65340428 410.42375572 14.1171875 414.23828125 C9.70054681 416.49214059 5.49565623 416.53144034 0.64257812 416.52539062 C-0.19868118 416.53222366 -1.03994049 416.5390567 -1.9066925 416.5460968 C-3.72799521 416.55965571 -5.54933567 416.56872765 -7.37068176 416.57380676 C-10.25421337 416.58211088 -13.13743057 416.60262928 -16.02087402 416.62634277 C-23.18086113 416.68269542 -30.34092467 416.71794879 -37.5010376 416.75396729 C-43.55521177 416.78522767 -49.6092333 416.82443317 -55.6632843 416.8742218 C-58.50222834 416.89427112 -61.34105369 416.90260546 -64.18005371 416.91052246 C-65.92277456 416.92349636 -67.66549146 416.93701689 -69.40820312 416.95117188 C-70.19588577 416.95018997 -70.98356842 416.94920807 -71.79512024 416.94819641 C-75.90098553 416.99462182 -79.24128659 417.25515518 -82.8828125 419.23828125 C-84.28216263 422.03698152 -84.13546655 424.14326917 -83.8828125 427.23828125 C-82.02938475 429.79777671 -80.94524857 430.21746923 -77.8828125 431.23828125 C-76.24627859 431.33944364 -74.60599863 431.38450664 -72.96638489 431.39649963 C-71.95256241 431.40628845 -70.93873993 431.41607727 -69.89419556 431.42616272 C-68.78289276 431.43191818 -67.67158997 431.43767365 -66.52661133 431.44360352 C-65.35574478 431.45350311 -64.18487823 431.46340271 -62.97853088 431.47360229 C-59.76807995 431.49979286 -56.55763428 431.52165379 -53.3471396 431.54160428 C-49.99187181 431.56347336 -46.63664919 431.59085754 -43.28141785 431.61766052 C-36.92791793 431.66757495 -30.57439294 431.71251841 -24.22084397 431.75568289 C-16.98750862 431.80506595 -9.75421859 431.85998011 -2.52092707 431.91536248 C12.35840222 432.02916333 27.23777419 432.1360065 42.1171875 432.23828125 C42.11350033 431.10814732 42.10981316 429.97801338 42.10601425 428.81363297 C42.0172933 401.33985867 41.95152125 373.86610292 41.90993881 346.39221573 C41.88929637 333.10614441 41.86114362 319.8201894 41.81542969 306.53417969 C41.77561348 294.95674762 41.74976693 283.37938399 41.74083352 271.80188537 C41.73560996 265.66927226 41.72329763 259.53685497 41.69426727 253.4043045 C41.6671807 247.63580634 41.65872887 241.86758526 41.66475677 236.09902954 C41.66365351 233.97856899 41.65565967 231.85809947 41.6403656 229.73769379 C41.62054365 226.84856882 41.62521995 223.96049807 41.63616943 221.0713501 C41.62451807 220.22699284 41.6128667 219.38263558 41.60086226 218.51269174 C41.6350423 215.18957006 41.88600421 212.67397236 43.45450211 209.71796036 C47.83958072 207.28113127 52.2699919 207.68941937 57.20117188 207.73034668 C58.91715702 207.72098674 58.91715702 207.72098674 60.66780853 207.7114377 C63.84369766 207.69822941 67.01897686 207.70300153 70.19485092 207.71538258 C73.61959863 207.72442065 77.04426292 207.71046957 80.46899414 207.69946289 C87.17820552 207.68165968 93.88723809 207.68552559 100.59645653 207.69711345 C106.0482874 207.70614045 111.5000681 207.70737497 116.9519043 207.70301819 C118.11501074 207.70209879 118.11501074 207.70209879 119.30161428 207.70116082 C120.87674524 207.69988194 122.45187618 207.69858509 124.0270071 207.69727045 C138.8032373 207.68585938 153.5793683 207.6989866 168.35558224 207.72047192 C181.03918785 207.7383434 193.72264703 207.73523944 206.40625 207.71679688 C221.12895367 207.69539944 235.85157036 207.68695807 250.57428741 207.69924593 C252.14368183 207.70052015 253.71307626 207.70177763 255.2824707 207.70301819 C256.05467878 207.70363529 256.82688685 207.70425239 257.62249517 207.70488819 C263.06890796 207.70834449 268.51526566 207.70250676 273.96166992 207.69309998 C280.5974424 207.6818911 287.23302558 207.68489644 293.86877632 207.70622295 C297.25565131 207.71674856 300.64221047 207.72082996 304.02908325 207.70762634 C307.69744174 207.69675196 311.36490239 207.71033771 315.03320312 207.73034668 C316.1082888 207.72142379 317.18337448 207.71250091 318.29103851 207.70330763 C325.22586306 207.77705715 325.22586306 207.77705715 328.77819061 209.615242 C330.94654737 213.86296276 330.66653917 218.01361891 330.62512207 222.71484375 C330.63448201 224.33282364 330.63448201 224.33282364 330.64403105 225.98348999 C330.66002958 229.61030717 330.64732944 233.23645867 330.63476562 236.86328125 C330.64018367 239.45833734 330.64730453 242.05339035 330.65600586 244.6484375 C330.67380659 250.97263689 330.66994428 257.29664655 330.6583553 263.62085342 C330.64932731 268.75994679 330.64809421 273.89898692 330.65245056 279.03808594 C330.65306349 279.76908445 330.65367643 280.50008297 330.65430793 281.25323296 C330.65558681 282.73817191 330.65688367 284.22311085 330.6581983 285.70804977 C330.66960864 299.63732034 330.6564833 313.56648567 330.63499683 327.49573898 C330.61712541 339.45163912 330.62022939 351.40738392 330.63867188 363.36328125 C330.66007061 377.24218301 330.66850996 391.1209925 330.65622282 404.99990845 C330.6549486 406.47943114 330.65369112 407.95895384 330.65245056 409.43847656 C330.65152491 410.53045003 330.65152491 410.53045003 330.65058056 411.64448357 C330.64712465 416.77831103 330.65296115 421.91208003 330.66236877 427.04589844 C330.67474878 433.95372258 330.66595396 440.86124789 330.64279175 447.76904297 C330.63748926 450.30875153 330.63904454 452.84848473 330.64784241 455.38818359 C330.6587202 458.84636629 330.64512715 462.30359724 330.62512207 465.76171875 C330.6385064 467.28096451 330.6385064 467.28096451 330.65216112 468.8309021 C330.60910761 472.64927427 330.52732449 475.43483994 328.77819061 478.8613205 C324.36461951 481.14516382 319.92685181 480.78683163 315.03320312 480.74621582 C313.88921303 480.75245578 312.74522293 480.75869575 311.56656647 480.7651248 C308.39067734 480.77833309 305.21539814 480.77356097 302.03952408 480.76117992 C298.61477637 480.75214185 295.19011208 480.76609293 291.76538086 480.77709961 C285.05616948 480.79490282 278.34713691 480.79103691 271.63791847 480.77944905 C266.1860876 480.77042205 260.7343069 480.76918753 255.2824707 480.77354431 C254.11936426 480.77446371 254.11936426 480.77446371 252.93276072 480.77540168 C251.35762976 480.77668056 249.78249882 480.77797741 248.2073679 480.77929205 C233.4311377 480.79070312 218.6550067 480.7775759 203.87879276 480.75609058 C191.19518715 480.7382191 178.51172797 480.74132306 165.828125 480.75976562 C151.10542133 480.78116306 136.38280464 480.78960443 121.66008759 480.77731657 C120.09069317 480.77604235 118.52129874 480.77478487 116.9519043 480.77354431 C116.17969622 480.77292721 115.40748815 480.77231011 114.61187983 480.77167431 C109.16546704 480.76821801 103.71910934 480.77405574 98.27270508 480.78346252 C91.6369326 480.7946714 85.00134942 480.79166606 78.36559868 480.77033955 C74.97872369 480.75981394 71.59216453 480.75573254 68.20529175 480.76893616 C64.53693326 480.77981054 60.86947261 480.76622479 57.20117188 480.74621582 C55.58854336 480.75960015 55.58854336 480.75960015 53.94333649 480.77325487 C46.87238788 480.69805772 46.87238788 480.69805772 43.44885254 478.6137619 C41.69075069 475.47758516 41.66130363 473.31189431 41.7265625 469.72265625 C41.73945313 468.47226562 41.75234375 467.221875 41.765625 465.93359375 C41.81589844 463.98066406 41.81589844 463.98066406 41.8671875 461.98828125 C41.88523438 460.67085938 41.90328125 459.3534375 41.921875 457.99609375 C41.96902479 454.74275817 42.03482706 451.490885 42.1171875 448.23828125 C41.47003784 448.24196842 40.82288818 448.24565559 40.15612793 448.2494545 C24.38926983 448.33789919 8.62249835 448.40403625 -7.14454651 448.44552994 C-14.76946945 448.46613078 -22.39422651 448.49420368 -30.01904297 448.54003906 C-36.66700289 448.57998308 -43.31484264 448.60573207 -49.96291924 448.61463523 C-53.48112749 448.61983728 -56.99899205 448.63201143 -60.51708984 448.66120148 C-64.45025947 448.6935689 -68.38309681 448.6942358 -72.31640625 448.69238281 C-73.47518784 448.70676392 -74.63396942 448.72114502 -75.8278656 448.73596191 C-83.66967488 448.69602154 -89.06290204 447.58569408 -95.125 442.2734375 C-95.66382813 441.62246094 -96.20265625 440.97148437 -96.7578125 440.30078125 C-97.31210938 439.65238281 -97.86640625 439.00398438 -98.4375 438.3359375 C-102.91693347 431.83470568 -102.55744978 424.86687208 -101.8828125 417.23828125 C-100.20195667 410.57868792 -95.41902928 406.05280678 -89.8828125 402.23828125 C-85.46617181 399.98442191 -81.26128123 399.94512216 -76.40820312 399.95117188 C-75.56694382 399.94433884 -74.72568451 399.9375058 -73.8589325 399.9304657 C-72.03762979 399.91690679 -70.21628933 399.90783485 -68.39494324 399.90275574 C-65.51141163 399.89445162 -62.62819443 399.87393322 -59.74475098 399.85021973 C-52.58476387 399.79386708 -45.42470033 399.75861371 -38.2645874 399.72259521 C-32.21041323 399.69133483 -26.1563917 399.65212933 -20.1023407 399.6023407 C-17.26339666 399.58229138 -14.42457131 399.57395704 -11.58557129 399.56604004 C-9.84285044 399.55306614 -8.10013354 399.53954561 -6.35742188 399.52539062 C-5.56973923 399.52637253 -4.78205658 399.52735443 -3.97050476 399.52836609 C0.13536053 399.48194068 3.47566159 399.22140732 7.1171875 397.23828125 C8.51653763 394.43958098 8.36984155 392.33329333 8.1171875 389.23828125 C6.26375975 386.67878579 5.17962357 386.25909327 2.1171875 385.23828125 C0.51106363 385.14542713 -1.09863924 385.10931941 -2.70744324 385.10697937 C-3.70129028 385.10297119 -4.69513733 385.09896301 -5.71910095 385.09483337 C-6.80848465 385.09536209 -7.89786835 385.09589081 -9.02026367 385.09643555 C-10.16852631 385.09296112 -11.31678894 385.08948669 -12.49984741 385.08590698 C-14.99782513 385.0785463 -17.49580941 385.07320259 -19.99379539 385.06961632 C-23.94906814 385.06245785 -27.90421633 385.04679524 -31.85945129 385.02827454 C-33.21478171 385.02193712 -34.57011217 385.01561149 -35.9254427 385.00929737 C-36.60422147 385.00613156 -37.28300025 385.00296575 -37.98234808 384.999704 C-47.18881826 384.95767432 -56.39524694 384.92467179 -65.60180664 384.91235352 C-71.81371331 384.90395672 -78.02539818 384.88140507 -84.23719388 384.84299785 C-87.52169185 384.82328823 -90.80578642 384.81303627 -94.09035301 384.81583214 C-97.76003633 384.81818688 -101.42882615 384.79600259 -105.09838867 384.76831055 C-106.17765121 384.77491196 -107.25691376 384.78151337 -108.36888123 384.78831482 C-115.94736868 384.69457376 -121.27074577 383.40355924 -127.125 378.2734375 C-127.66382812 377.62246094 -128.20265625 376.97148437 -128.7578125 376.30078125 C-129.31210938 375.65238281 -129.86640625 375.00398438 -130.4375 374.3359375 C-134.91693347 367.83470568 -134.55744978 360.86687208 -133.8828125 353.23828125 C-132.20195667 346.57868792 -127.41902928 342.05280678 -121.8828125 338.23828125 C-117.05297747 335.66098059 -112.27306549 335.94558442 -106.93945312 335.95117188 C-105.94213669 335.94433884 -104.94482025 335.9375058 -103.9172821 335.9304657 C-101.75548043 335.91689389 -99.59364679 335.90783022 -97.43180847 335.90275574 C-94.0106184 335.8944623 -90.58969467 335.87395348 -87.1685791 335.85021973 C-78.67296962 335.79382353 -70.17729543 335.75860054 -61.68157959 335.72259521 C-54.50005957 335.69135314 -47.3186687 335.65216127 -40.13725281 335.6023407 C-36.76649245 335.58226902 -33.39583208 335.57395233 -30.02502441 335.56604004 C-27.95873653 335.55306786 -25.89245198 335.53954759 -23.82617188 335.52539062 C-22.88887741 335.52637253 -21.95158295 335.52735443 -20.98588562 335.52836609 C-14.69784888 335.48432538 -14.69784888 335.48432538 -8.8828125 333.23828125 C-7.13796833 330.27204615 -6.73479563 327.42138039 -6.3359375 324.05859375 C-6.18640625 322.79789062 -6.036875 321.5371875 -5.8828125 320.23828125 C-7.09453125 320.09132813 -8.30625 319.944375 -9.5546875 319.79296875 C-49.99186161 314.52847571 -89.16745087 294.73065407 -114.6953125 262.30078125 C-116.46337497 259.97365148 -118.17907471 257.61275094 -119.8828125 255.23828125 C-120.51413086 254.37928223 -120.51413086 254.37928223 -121.15820312 253.50292969 C-138.3865804 229.90984468 -149.89814919 199.61682139 -150.0859375 170.21484375 C-150.09299713 169.47559662 -150.10005676 168.73634949 -150.10733032 167.97470093 C-150.33434331 137.23843207 -150.33434331 137.23843207 -146.8828125 124.23828125 C-146.57682129 123.05057129 -146.57682129 123.05057129 -146.26464844 121.83886719 C-134.70244816 77.96309409 -107.62334498 42.55017446 -68.55078125 19.671875 C-47.964132 8.0325768 -23.76856871 0.26649988 0 0 Z M-126.8828125 116.23828125 C-127.70129502 119.42427521 -128.51149949 122.61232005 -129.3203125 125.80078125 C-129.55041016 126.69603516 -129.78050781 127.59128906 -130.01757812 128.51367188 C-130.23994141 129.39345703 -130.46230469 130.27324219 -130.69140625 131.1796875 C-130.99776001 132.38153687 -130.99776001 132.38153687 -131.31030273 133.60766602 C-135.62940219 153.45342149 -134.56291223 177.78588493 -128.8828125 197.23828125 C-128.66850586 197.99947266 -128.45419922 198.76066406 -128.23339844 199.54492188 C-117.41322352 237.18716066 -91.89053685 267.66567896 -58.17578125 287.09375 C-56.01169258 288.38714918 -56.01169258 288.38714918 -53.8828125 288.23828125 C-51.60757336 268.16228779 -51.60757336 268.16228779 -59.26367188 250.17651367 C-61.35576678 247.65855477 -63.49208051 245.20660985 -65.69921875 242.7890625 C-66.39547363 242.02416504 -67.09172852 241.25926758 -67.80908203 240.47119141 C-69.14304316 239.03483534 -70.51724114 237.63431484 -71.93701172 236.28271484 C-74.84573278 233.04543392 -76.86341491 230.35003568 -76.90481567 225.84286499 C-76.817668 224.49691757 -76.817668 224.49691757 -76.72875977 223.1237793 C-76.03977514 212.4395679 -76.22905168 204.86118965 -83.58303833 196.47945786 C-88.51028215 191.15723363 -93.84073277 186.2439476 -99.21704102 181.38305664 C-102.01599736 178.82941407 -104.75148103 176.2095759 -107.4921875 173.59375 C-112.28604237 169.02782623 -117.13080712 164.5244079 -122.02294922 160.06362915 C-125.7790305 156.3772533 -125.1032516 152.25787381 -125.19921875 147.29296875 C-125.2303904 145.9654509 -125.2303904 145.9654509 -125.26219177 144.6111145 C-125.32767848 141.77858384 -125.38656812 138.945959 -125.4453125 136.11328125 C-125.48849856 134.19530268 -125.53211287 132.27733371 -125.57617188 130.359375 C-125.68335897 125.65244074 -125.7846289 120.94541158 -125.8828125 116.23828125 C-126.2128125 116.23828125 -126.5428125 116.23828125 -126.8828125 116.23828125 Z M58.1171875 224.23828125 C58.1171875 240.07828125 58.1171875 255.91828125 58.1171875 272.23828125 C121.4771875 272.23828125 184.8371875 272.23828125 250.1171875 272.23828125 C250.1171875 256.39828125 250.1171875 240.55828125 250.1171875 224.23828125 C186.7571875 224.23828125 123.3971875 224.23828125 58.1171875 224.23828125 Z M266.1171875 224.23828125 C266.1171875 240.07828125 266.1171875 255.91828125 266.1171875 272.23828125 C281.9571875 272.23828125 297.7971875 272.23828125 314.1171875 272.23828125 C314.1171875 256.39828125 314.1171875 240.55828125 314.1171875 224.23828125 C298.2771875 224.23828125 282.4371875 224.23828125 266.1171875 224.23828125 Z M58.1171875 288.23828125 C58.1171875 304.07828125 58.1171875 319.91828125 58.1171875 336.23828125 C121.4771875 336.23828125 184.8371875 336.23828125 250.1171875 336.23828125 C250.1171875 320.39828125 250.1171875 304.55828125 250.1171875 288.23828125 C186.7571875 288.23828125 123.3971875 288.23828125 58.1171875 288.23828125 Z M266.1171875 288.23828125 C266.1171875 304.07828125 266.1171875 319.91828125 266.1171875 336.23828125 C281.9571875 336.23828125 297.7971875 336.23828125 314.1171875 336.23828125 C314.1171875 320.39828125 314.1171875 304.55828125 314.1171875 288.23828125 C298.2771875 288.23828125 282.4371875 288.23828125 266.1171875 288.23828125 Z M58.1171875 352.23828125 C58.1171875 368.07828125 58.1171875 383.91828125 58.1171875 400.23828125 C121.4771875 400.23828125 184.8371875 400.23828125 250.1171875 400.23828125 C250.1171875 384.39828125 250.1171875 368.55828125 250.1171875 352.23828125 C186.7571875 352.23828125 123.3971875 352.23828125 58.1171875 352.23828125 Z M266.1171875 352.23828125 C266.1171875 368.07828125 266.1171875 383.91828125 266.1171875 400.23828125 C281.9571875 400.23828125 297.7971875 400.23828125 314.1171875 400.23828125 C314.1171875 384.39828125 314.1171875 368.55828125 314.1171875 352.23828125 C298.2771875 352.23828125 282.4371875 352.23828125 266.1171875 352.23828125 Z M58.1171875 416.23828125 C58.1171875 432.07828125 58.1171875 447.91828125 58.1171875 464.23828125 C121.4771875 464.23828125 184.8371875 464.23828125 250.1171875 464.23828125 C250.1171875 448.39828125 250.1171875 432.55828125 250.1171875 416.23828125 C186.7571875 416.23828125 123.3971875 416.23828125 58.1171875 416.23828125 Z M266.1171875 416.23828125 C266.1171875 432.07828125 266.1171875 447.91828125 266.1171875 464.23828125 C281.9571875 464.23828125 297.7971875 464.23828125 314.1171875 464.23828125 C314.1171875 448.39828125 314.1171875 432.55828125 314.1171875 416.23828125 C298.2771875 416.23828125 282.4371875 416.23828125 266.1171875 416.23828125 Z " fill="#000000" transform="translate(165.8828125,15.76171875)"/>
<path d="M0 0 C15.84 0 31.68 0 48 0 C48 5.28 48 10.56 48 16 C32.16 16 16.32 16 0 16 C0 10.72 0 5.44 0 0 Z " fill="#000000" transform="translate(312,448)"/>
<path d="M0 0 C15.84 0 31.68 0 48 0 C48 5.28 48 10.56 48 16 C32.16 16 16.32 16 0 16 C0 10.72 0 5.44 0 0 Z " fill="#000000" transform="translate(312,384)"/>
<path d="M0 0 C15.84 0 31.68 0 48 0 C48 5.28 48 10.56 48 16 C32.16 16 16.32 16 0 16 C0 10.72 0 5.44 0 0 Z " fill="#000000" transform="translate(312,320)"/>
<path d="M0 0 C15.84 0 31.68 0 48 0 C48 5.28 48 10.56 48 16 C32.16 16 16.32 16 0 16 C0 10.72 0 5.44 0 0 Z " fill="#000000" transform="translate(312,256)"/>
<path d="M0 0 C5.28 0 10.56 0 16 0 C16 5.28 16 10.56 16 16 C10.72 16 5.44 16 0 16 C0 10.72 0 5.44 0 0 Z " fill="#000000" transform="translate(280,448)"/>
<path d="M0 0 C5.28 0 10.56 0 16 0 C16 5.28 16 10.56 16 16 C10.72 16 5.44 16 0 16 C0 10.72 0 5.44 0 0 Z " fill="#000000" transform="translate(248,448)"/>
<path d="M0 0 C5.28 0 10.56 0 16 0 C16 5.28 16 10.56 16 16 C10.72 16 5.44 16 0 16 C0 10.72 0 5.44 0 0 Z " fill="#000000" transform="translate(280,384)"/>
<path d="M0 0 C5.28 0 10.56 0 16 0 C16 5.28 16 10.56 16 16 C10.72 16 5.44 16 0 16 C0 10.72 0 5.44 0 0 Z " fill="#000000" transform="translate(248,384)"/>
<path d="M0 0 C5.28 0 10.56 0 16 0 C16 5.28 16 10.56 16 16 C10.72 16 5.44 16 0 16 C0 10.72 0 5.44 0 0 Z " fill="#000000" transform="translate(280,320)"/>
<path d="M0 0 C5.28 0 10.56 0 16 0 C16 5.28 16 10.56 16 16 C10.72 16 5.44 16 0 16 C0 10.72 0 5.44 0 0 Z " fill="#000000" transform="translate(248,320)"/>
<path d="M0 0 C5.28 0 10.56 0 16 0 C16 5.28 16 10.56 16 16 C10.72 16 5.44 16 0 16 C0 10.72 0 5.44 0 0 Z " fill="#000000" transform="translate(280,256)"/>
<path d="M0 0 C5.28 0 10.56 0 16 0 C16 5.28 16 10.56 16 16 C10.72 16 5.44 16 0 16 C0 10.72 0 5.44 0 0 Z " fill="#000000" transform="translate(248,256)"/>
</svg>
