<?xml version="1.0" encoding="UTF-8"?>
<svg version="1.1" xmlns="http://www.w3.org/2000/svg" width="512" height="512">
<path d="M0 0 C3.51114638 3.00955404 5.37503959 5.55657451 6.05859375 10.1875 C6.05988281 11.198125 6.06117188 12.20875 6.0625 13.25 C6.08183594 14.260625 6.10117187 15.27125 6.12109375 16.3125 C5.625 19.25 5.625 19.25 3.63208008 21.2878418 C0.70044713 25.61450554 1.02172761 29.46346644 1.015625 34.58203125 C0.99218018 35.90140686 0.99218018 35.90140686 0.96826172 37.24743652 C0.91584016 40.51885206 0.89742576 43.79074134 0.875 47.0625 C0.7925 54.384375 0.71 61.70625 0.625 69.25 C20.425 69.25 40.225 69.25 60.625 69.25 C62.18732413 46.43988725 62.18732413 46.43988725 55.625 39.25 C54.63326982 33.83194466 54.95724675 28.80809091 57.125 23.75 C60.87180301 20.00319699 64.52624645 17.46497275 69.93359375 17.08984375 C75.09044179 17.44638805 78.63666116 18.83142385 82.625 22.25 C85.35847447 26.0182898 86.03514676 28.67898535 86 33.3125 C86.00773437 34.33472656 86.01546875 35.35695312 86.0234375 36.41015625 C85.625 39.25 85.625 39.25 84.13208008 41.04760742 C82.1675617 43.91848387 82.19805153 45.86949746 82.11328125 49.328125 C82.07783203 50.48828125 82.04238281 51.6484375 82.00585938 52.84375 C81.98330078 54.0503125 81.96074219 55.256875 81.9375 56.5 C81.90333984 57.72203125 81.86917969 58.9440625 81.83398438 60.203125 C81.75152838 63.21865846 81.68236799 66.23390194 81.625 69.25 C82.54097458 69.23889694 83.45694916 69.22779388 84.40068054 69.21635437 C93.0374178 69.11612448 101.67395944 69.04002085 110.31114483 68.99093914 C114.75154642 68.9648571 119.19146703 68.92948518 123.6315918 68.87280273 C127.91749096 68.81843221 132.20292783 68.78856898 136.48914528 68.77561378 C138.12345469 68.76638285 139.7577391 68.74835645 141.39185143 68.72134972 C143.68325623 68.68498985 145.97275692 68.68005717 148.2644043 68.68237305 C149.56790329 68.67126999 150.87140228 68.66016693 152.21440125 68.64872742 C156.61068571 69.42377177 157.85549436 70.79631595 160.625 74.25 C161.2542057 77.50622559 161.2542057 77.50622559 161.25991821 81.27148438 C161.26771817 81.96643257 161.27551812 82.66138077 161.28355443 83.377388 C161.3034575 85.7000521 161.28771855 88.02107452 161.27197266 90.34375 C161.27874961 92.01124018 161.28765318 93.67872288 161.29852295 95.34619141 C161.32131392 99.87106685 161.31248092 104.39537218 161.29662752 108.92025757 C161.28396744 113.65583837 161.29570893 118.3913704 161.30355835 123.12695312 C161.3126546 131.07951623 161.30066766 139.03184715 161.27685547 146.984375 C161.24964421 156.17825171 161.25845839 165.37157404 161.2859875 174.56543732 C161.30867827 182.45944209 161.31187881 190.35327998 161.29879415 198.24730682 C161.29099946 202.96192004 161.28995852 207.67627267 161.30647659 212.39086914 C161.32092169 216.82340441 161.3108993 221.25522503 161.28200531 225.68768311 C161.27539465 227.31425795 161.27729191 228.94089295 161.28831863 230.56744385 C161.30198798 232.78861249 161.28484651 235.00749279 161.25991821 237.22851562 C161.25803308 238.47105103 161.25614796 239.71358643 161.2542057 240.99377441 C160.44425319 245.18538948 158.97263819 246.67236417 155.625 249.25 C153.51049328 249.86523914 153.51049328 249.86523914 151.37919617 249.85127258 C150.56456406 249.8581459 149.74993195 249.86501923 148.91061401 249.87210083 C148.03091949 249.85412445 147.15122498 249.83614807 146.24487305 249.81762695 C145.30780014 249.81835709 144.37072723 249.81908722 143.40525818 249.81983948 C140.31515141 249.81636255 137.22656142 249.77749563 134.13671875 249.73828125 C131.99152958 249.72895352 129.84632974 249.72183722 127.7011261 249.71684265 C122.0603586 249.69776987 116.42023683 249.64866589 110.77972412 249.59332275 C105.02185806 249.54213677 99.26388747 249.51932995 93.50585938 249.49414062 C82.21195618 249.44054806 70.91853183 249.35523125 59.625 249.25 C59.63332628 253.42315329 59.70203146 257.59326279 59.78125 261.765625 C59.78366699 263.5283374 59.78366699 263.5283374 59.78613281 265.32666016 C59.96210285 272.70187494 60.75832714 277.7026917 66.125 283 C68.85216238 285.34794398 71.32261192 287.11290652 75 287.5 C77.16549749 287.04634138 77.16549749 287.04634138 79.2890625 286.1328125 C86.51125136 283.40335651 95.00593992 284.93958508 101.953125 287.80078125 C111.76421513 293.12229359 117.16364079 300.86592236 120.625 311.25 C121.45483513 320.82711366 120.66331929 329.56573066 114.9765625 337.5703125 C113.27898903 339.57923132 111.51823997 341.42607774 109.625 343.25 C108.8825 343.9925 108.14 344.735 107.375 345.5 C98.47070606 351.16636887 89.08488124 352.79307132 78.7734375 350.66015625 C70.40344769 348.10200443 63.68283769 342.98789104 58.92578125 335.6171875 C55.88864372 329.78657964 54.48565312 324.58734725 54.4375 318 C54.42332031 317.12859375 54.40914062 316.2571875 54.39453125 315.359375 C54.625 312.25 54.625 312.25 55.33618164 310.1550293 C56.13117967 307.73327529 56.63401306 305.80479229 56.625 303.25 C54.76885672 300.09353134 52.20510599 297.9230321 49.4375 295.5625 C48.04164009 294.31587489 46.65211775 293.06211135 45.26953125 291.80078125 C44.64409424 291.26106689 44.01865723 290.72135254 43.37426758 290.1652832 C39.00655951 285.38305434 38.19069472 280.7242155 38.33203125 274.4453125 C38.33505249 273.80263428 38.33807373 273.15995605 38.34118652 272.49780273 C38.35674693 270.1233691 38.39862999 267.74916645 38.4375 265.375 C38.499375 260.05375 38.56125 254.7325 38.625 249.25 C26.085 249.25 13.545 249.25 0.625 249.25 C0.955 281.92 1.285 314.59 1.625 348.25 C4.925 349.9 8.225 351.55 11.625 353.25 C19.22952461 359.23482979 22.74616036 367.43141662 23.96484375 376.88671875 C24.35398927 386.80214648 21.0202431 395.71429594 14.625 403.25 C6.897217 410.57779423 -0.9238639 412.75745948 -11.37109375 412.66967773 C-20.23637989 412.34758615 -27.08165175 409.50766104 -33.55078125 403.4453125 C-39.91041751 395.79196008 -42.8054073 386.89056417 -42.64453125 377.0625 C-41.81983416 368.4569652 -38.63590122 361.71595575 -32.9609375 355.28515625 C-29.18408192 352.31273667 -24.67382926 350.39941463 -20.375 348.25 C-20.045 315.58 -19.715 282.91 -19.375 249.25 C-31.915 249.25 -44.455 249.25 -57.375 249.25 C-57.21725892 259.79546474 -57.21725892 259.79546474 -57.01464844 270.34008789 C-57.00295062 271.67593091 -56.99276139 273.01178834 -56.984375 274.34765625 C-56.96391113 275.02437378 -56.94344727 275.70109131 -56.92236328 276.39831543 C-56.9178596 282.63254247 -58.96449637 286.61353242 -63.14599609 291.18701172 C-63.72430176 291.67959473 -64.30260742 292.17217773 -64.8984375 292.6796875 C-65.84009766 293.53240234 -65.84009766 293.53240234 -66.80078125 294.40234375 C-68.1096412 295.55907169 -69.43295381 296.69963232 -70.76953125 297.82421875 C-72.65866759 299.56410939 -74.11108748 301.01047566 -75.375 303.25 C-75.34186746 306.47710908 -74.39145118 309.21198761 -73.375 312.25 C-72.43982371 321.37100514 -73.75123677 329.92787908 -79.125 337.5 C-85.75108264 345.53554276 -92.80605439 350.28038344 -103.36328125 351.6328125 C-112.60880796 351.99256062 -120.68810854 349.84387022 -127.8125 343.8125 C-129.01950319 342.64482889 -130.20984709 341.45943425 -131.375 340.25 C-132.48875 339.13625 -132.48875 339.13625 -133.625 338 C-139.38721472 328.94509115 -141.08315122 319.05545923 -138.78515625 308.5546875 C-135.76383856 299.67173502 -129.37483162 292.46030857 -121.0625 288.1875 C-116.16279474 285.9704031 -112.07231781 285.09769489 -106.6875 285.0625 C-105.62144531 285.05347656 -104.55539063 285.04445313 -103.45703125 285.03515625 C-100.48694068 285.24219678 -98.59175125 285.88250634 -95.875 287 C-92.50609762 287.79268291 -91.34158882 287.23296685 -88.1875 285.625 C-83.36825622 282.12908901 -79.88515732 278.17618319 -78.84033203 272.18322754 C-78.61232561 268.70159969 -78.53603395 265.25456145 -78.53125 261.765625 C-78.50836914 260.5605127 -78.48548828 259.35540039 -78.46191406 258.11376953 C-78.40919691 255.15868019 -78.3808968 252.20549157 -78.375 249.25 C-79.56659225 249.26110306 -80.75818451 249.27220612 -81.98588562 249.28364563 C-93.21266224 249.38498116 -104.43934614 249.45994616 -115.66647625 249.50906086 C-121.43857056 249.53516017 -127.21029583 249.57056517 -132.98217773 249.62719727 C-138.55186912 249.68150385 -144.12120543 249.71141801 -149.69114113 249.72438622 C-151.81666466 249.73362843 -153.94216865 249.75167637 -156.06754112 249.77865028 C-159.04374638 249.81492194 -162.0184825 249.81994605 -164.99487305 249.81762695 C-166.31441483 249.84459152 -166.31441483 249.84459152 -167.66061401 249.87210083 C-168.47524612 249.86522751 -169.28987823 249.85835419 -170.12919617 249.85127258 C-171.18418824 249.85818603 -171.18418824 249.85818603 -172.26049328 249.86523914 C-175.6893022 248.86758922 -177.2012926 247.02291601 -179.375 244.25 C-180.0042057 240.99377441 -180.0042057 240.99377441 -180.00991821 237.22851562 C-180.01771817 236.53356743 -180.02551812 235.83861923 -180.03355443 235.122612 C-180.0534575 232.7999479 -180.03771855 230.47892548 -180.02197266 228.15625 C-180.02874961 226.48875982 -180.03765318 224.82127712 -180.04852295 223.15380859 C-180.07131392 218.62893315 -180.06248092 214.10462782 -180.04662752 209.57974243 C-180.03396744 204.84416163 -180.04570893 200.1086296 -180.05355835 195.37304688 C-180.0626546 187.42048377 -180.05066766 179.46815285 -180.02685547 171.515625 C-179.99964421 162.32174829 -180.00845839 153.12842596 -180.0359875 143.93456268 C-180.05867827 136.04055791 -180.06187881 128.14672002 -180.04879415 120.25269318 C-180.04099946 115.53807996 -180.03995852 110.82372733 -180.05647659 106.10913086 C-180.07092169 101.67659559 -180.0608993 97.24477497 -180.03200531 92.81231689 C-180.02539465 91.18574205 -180.02729191 89.55910705 -180.03831863 87.93255615 C-180.05198798 85.71138751 -180.03484651 83.49250721 -180.00991821 81.27148438 C-180.00803308 80.02894897 -180.00614796 78.78641357 -180.0042057 77.50622559 C-179.19782563 73.3330984 -177.68041458 71.84251748 -174.375 69.25 C-171.67230692 68.77877317 -169.61143634 68.61163785 -166.92260742 68.68237305 C-166.1903595 68.68164291 -165.45811157 68.68091278 -164.70367432 68.68016052 C-162.29517254 68.68363042 -159.88863051 68.72245872 -157.48046875 68.76171875 C-155.80610714 68.77104911 -154.13173184 68.77816417 -152.45735168 68.78315735 C-148.05935704 68.80220984 -143.66219356 68.85129478 -139.26452637 68.90667725 C-134.77347049 68.95790795 -130.28227975 68.9806795 -125.79101562 69.00585938 C-116.98529649 69.05941594 -108.18025176 69.14470658 -99.375 69.25 C-99.42694164 65.18646256 -99.52203756 61.12503968 -99.625 57.0625 C-99.63917969 55.91201172 -99.65335937 54.76152344 -99.66796875 53.57617188 C-99.70019531 52.46435547 -99.73242188 51.35253906 -99.765625 50.20703125 C-99.7970459 48.67526245 -99.7970459 48.67526245 -99.82910156 47.11254883 C-100.50277709 43.57997029 -102.05252277 41.93795762 -104.375 39.25 C-105.36673018 33.83194466 -105.04275325 28.80809091 -102.875 23.75 C-99.12819699 20.00319699 -95.47375355 17.46497275 -90.06640625 17.08984375 C-84.90955821 17.44638805 -81.36333884 18.83142385 -77.375 22.25 C-74.67555455 25.98670253 -73.94335724 28.6579261 -73.9375 33.25 C-73.91816406 34.260625 -73.89882812 35.27125 -73.87890625 36.3125 C-74.375 39.25 -74.375 39.25 -78.375 44.25 C-78.705 52.5 -79.035 60.75 -79.375 69.25 C-59.575 69.25 -39.775 69.25 -19.375 69.25 C-19.4575 61.928125 -19.54 54.60625 -19.625 47.0625 C-19.64079102 44.75870361 -19.65658203 42.45490723 -19.67285156 40.08129883 C-19.70222562 38.24818414 -19.73305218 36.41509189 -19.765625 34.58203125 C-19.76731689 33.16295471 -19.76731689 33.16295471 -19.76904297 31.71520996 C-19.88909096 26.1849504 -20.3484865 23.35830514 -24.375 19.25 C-25.36673018 13.83194466 -25.04275325 8.80809091 -22.875 3.75 C-15.98173106 -3.14326894 -8.73279569 -4.52811629 0 0 Z M-159.375 89.25 C-159.375 135.45 -159.375 181.65 -159.375 229.25 C-60.375 229.25 38.625 229.25 140.625 229.25 C140.625 183.05 140.625 136.85 140.625 89.25 C41.625 89.25 -57.375 89.25 -159.375 89.25 Z M-117.375 312.25 C-118.8295448 316.82267077 -118.83272177 320.2993471 -116.75 324.625 C-113.52893112 328.18512876 -111.22949767 329.97379822 -106.4375 330.6875 C-101.52512822 329.9857326 -98.54114182 327.72711298 -95.5 323.875 C-94.11715374 320.64835874 -93.87740912 318.73313618 -94.375 315.25 C-96.66225376 310.92963179 -98.84585134 308.19106371 -103.375 306.25 C-109.39550039 305.49743745 -113.50958262 307.70119391 -117.375 312.25 Z M78.625 310.25 C76.4616994 312.99018076 75.70147552 314.73652151 75.1875 318.1875 C75.8892674 323.09987178 78.14788702 326.08385818 82 329.125 C85.22664126 330.50784626 87.14186382 330.74759088 90.625 330.25 C94.91001096 327.98146478 97.88905481 325.84514904 99.625 321.25 C99.92532461 317.32432837 99.83482389 313.74117829 97.28125 310.59375 C94.29606966 308.07683325 91.74536864 306.37731462 87.875 305.9375 C83.73903855 306.3351886 81.81586263 307.62640184 78.625 310.25 Z M-19.375 372.25 C-21.6952496 375.88169503 -21.63393217 379.17637053 -20.9921875 383.31640625 C-19.97501197 386.50312706 -17.92206149 388.19992612 -15.375 390.25 C-12.176457 391.8492715 -8.85398371 391.61127908 -5.375 391.25 C-1.90879206 389.86351682 -0.6364182 388.62469941 1.5 385.5625 C2.89935017 381.44219115 3.04421567 378.38017254 1.625 374.25 C-0.56757809 371.60766231 -2.30839618 369.78330191 -5.375 368.25 C-11.40988891 367.74709259 -14.63679622 368.0758681 -19.375 372.25 Z " fill="#000000" transform="translate(265.375,42.75)"/>
<path d="M0 0 C0.93472466 -0.00805894 1.86944932 -0.01611788 2.83249897 -0.02442104 C5.97834909 -0.04887366 9.12407713 -0.05887387 12.27000427 -0.06880188 C14.52020738 -0.08296557 16.77040586 -0.09788117 19.02059937 -0.11349487 C26.42327527 -0.16078724 33.82596295 -0.18643048 41.22874451 -0.21064758 C43.77647877 -0.2200541 46.32421272 -0.22954852 48.87194633 -0.23913002 C59.47059501 -0.2776345 70.06923655 -0.31115579 80.66793919 -0.32950115 C83.41810682 -0.33434057 86.16827437 -0.33922258 88.91844177 -0.3441925 C89.94372446 -0.34603719 89.94372446 -0.34603719 90.98971992 -0.34791914 C102.05372533 -0.36885741 113.11719717 -0.42739278 124.18096066 -0.50157502 C135.54679622 -0.57715748 146.91226263 -0.61791486 158.27838463 -0.62706596 C164.65735206 -0.63306917 171.03544328 -0.65403836 177.41417122 -0.71162987 C183.41863196 -0.76502041 189.42166665 -0.77552727 195.42630959 -0.75348473 C197.62652905 -0.75276891 199.82681675 -0.76738178 202.02681351 -0.79869461 C220.71012751 -1.04989841 220.71012751 -1.04989841 226.70248413 4.21508789 C228.16359969 5.87863522 229.58783197 7.57524906 230.97483826 9.30107117 C232.65783627 10.97557818 234.35842843 12.63254691 236.07420349 14.27345276 C237.89647006 16.08986361 239.71608262 17.90893982 241.53343201 19.73027039 C242.54622211 20.74170138 243.55922392 21.75292043 244.57241821 22.76394653 C247.29113702 25.47815562 250.00674289 28.19545839 252.72161102 30.91351843 C255.57388158 33.76834144 258.42861456 36.6207005 261.28294373 39.47346497 C266.06566542 44.2543754 270.84629234 49.03737286 275.62571716 53.82157898 C281.14985581 59.35118008 286.67761698 64.87714025 292.20723057 70.40126598 C296.96765185 75.15715231 301.72612563 79.91498059 306.48297024 84.67444432 C309.31889692 87.51192886 312.15549238 90.34873596 314.99385071 93.1837883 C317.65556575 95.84261836 320.31482961 98.50387576 322.97220802 101.16703987 C323.94771386 102.14386899 324.92407358 103.11984622 325.90134239 104.09491158 C327.23365255 105.4244939 328.56258828 106.75745504 329.89134216 108.09059143 C331.00843063 109.20824544 331.00843063 109.20824544 332.14808655 110.34847832 C338.01930121 116.62414879 337.13753351 124.09139842 337.09983826 132.17607117 C337.09572937 133.26903503 337.09162048 134.3619989 337.08738708 135.48808289 C336.57991006 213.37762155 328.36576581 293.96767604 294.97483826 365.30107117 C294.57152283 366.16812683 294.1682074 367.0351825 293.75267029 367.92851257 C278.27428424 400.88792954 255.81411015 431.80643909 226.97483826 454.30107117 C226.35866638 454.78833679 225.74249451 455.27560242 225.10765076 455.77763367 C195.88368315 478.86115672 141.64738176 516.84243983 101.97483826 512.30107117 C98.24304802 511.52385859 94.62051459 510.47180188 90.97483826 509.36357117 C89.9302948 509.05073181 88.88575134 508.73789246 87.80955505 508.41557312 C35.59322451 492.44374906 -16.0461653 462.99708277 -50.02516174 419.30107117 C-50.74188049 418.38970398 -51.45859924 417.47833679 -52.19703674 416.53935242 C-58.66524102 408.13298055 -64.44704528 399.31683984 -70.02516174 390.30107117 C-70.60499817 389.36666199 -70.60499817 389.36666199 -71.19654846 388.41337585 C-111.21915123 322.9989496 -122.41983943 238.78763844 -124.58766174 163.36357117 C-124.60817596 162.66016602 -124.62869019 161.95676086 -124.64982605 161.23204041 C-124.92737886 151.54810692 -125.14769083 141.86403789 -125.21266174 132.17607117 C-125.22563293 131.17068298 -125.23860413 130.1652948 -125.25196838 129.12944031 C-125.27062748 114.6785913 -118.36244118 108.53413133 -108.58757019 98.72795105 C-107.63550288 97.77782709 -106.68338325 96.82775556 -105.73121643 95.87773132 C-104.71022775 94.85538473 -103.68945129 93.83282616 -102.66886902 92.81007385 C-99.9194264 90.05610612 -97.16687111 87.30526999 -94.41357327 84.55515718 C-91.52537612 81.66950578 -88.63963537 78.78139953 -85.75349426 75.89369202 C-80.91355394 71.05193791 -76.07152098 66.2122841 -71.22828674 61.37382507 C-65.62942985 55.78042467 -60.03420517 50.18341025 -54.44082332 44.58453524 C-49.62977627 39.76895286 -44.81678666 34.95531852 -40.00216222 30.14331281 C-37.129995 27.27270406 -34.25850654 24.4014251 -31.38877106 21.52838516 C-28.69549515 18.83222392 -25.99979108 16.13851438 -23.30218124 13.44668961 C-22.31245332 12.45828505 -21.32357745 11.46902645 -20.33561325 10.47885895 C-18.98840755 9.12892562 -17.63782336 7.78236646 -16.2870636 6.43598938 C-15.53198895 5.68129175 -14.77691429 4.92659412 -13.99895859 4.14902687 C-9.49590425 -0.0669313 -5.87626838 0.00209424 0 0 Z M-64.15016174 69.36357117 C-65.23174675 70.51617689 -66.31335067 71.66876485 -67.39497375 72.82133484 C-86.91141064 93.76668074 -105.92877539 116.79406408 -105.64431381 146.84200859 C-105.39577409 153.27408359 -104.69275052 159.5972493 -103.74629211 165.96073914 C-102.65024682 173.47754022 -102.42377219 181.03881654 -102.09103394 188.61952209 C-99.61100992 244.50212786 -89.77305783 303.81201743 -65.02516174 354.30107117 C-64.36991516 355.64032654 -64.36991516 355.64032654 -63.70143127 357.00663757 C-51.66013302 381.35792079 -36.8017624 402.71437637 -18.02516174 422.30107117 C-16.68324768 423.72226257 -16.68324768 423.72226257 -15.31422424 425.17216492 C-8.94529597 431.7558811 -2.14418281 437.43924808 5.15989685 442.9304657 C6.94115624 444.27563522 8.70259914 445.64376643 10.46311951 447.01591492 C35.32499213 466.12564805 64.40857768 478.5008325 93.97483826 488.30107117 C94.89829041 488.62462585 95.82174255 488.94818054 96.7731781 489.28153992 C97.62734314 489.56642273 98.48150818 489.85130554 99.36155701 490.14482117 C100.08947449 490.39425476 100.81739197 490.64368835 101.56736755 490.90068054 C109.39238992 492.20207357 117.60052464 488.37100973 124.91233826 485.92607117 C125.90202103 485.59677109 125.90202103 485.59677109 126.91169739 485.26081848 C140.04611635 480.86116722 152.57248584 475.47905674 164.97483826 469.30107117 C166.17850037 468.70745789 166.17850037 468.70745789 167.40647888 468.10185242 C182.74568601 460.47778509 196.64968522 451.03020179 209.97483826 440.30107117 C210.4975531 439.88277039 211.02026794 439.4644696 211.55882263 439.03349304 C224.64680344 428.48905586 236.78837749 416.69267511 246.97483826 403.30107117 C247.38621033 402.77142761 247.7975824 402.24178406 248.22142029 401.6960907 C291.9945367 345.19427673 307.11643212 273.07357586 312.97483826 203.30107117 C313.07925232 202.07146667 313.18366638 200.84186218 313.29124451 199.57499695 C313.76773762 193.70553669 314.17630174 187.86237911 314.37543774 181.97686481 C314.59953737 175.5631972 315.06857366 169.32452885 316.04822922 162.97935581 C319.93029901 136.65809484 313.98718785 116.62180934 298.33856893 95.33233619 C291.47884069 86.20067979 283.90180415 77.75436612 276.09983826 69.42607117 C275.56550423 68.84894127 275.0311702 68.27181137 274.48064423 67.67719269 C234.06547377 24.06747247 189.04904586 10.03179307 130.32871723 7.65725839 C54.47266303 5.16974631 -10.62019793 11.62170209 -64.15016174 69.36357117 Z " fill="#000000" transform="translate(150.02516174316406,-0.3010711669921875)"/>
<path d="M0 0 C3.44451825 2.72266021 4.87739164 5.12641546 5.5 9.5625 C4.97300076 13.18561975 4.22264703 15.11879089 2 18 C-1.71148186 20.47432124 -4.69754563 20.44214946 -9 20 C-10.66666667 19.33333333 -12.33333333 18.66666667 -14 18 C-18.48973076 17.27317883 -21.16616052 17.4724689 -25.0625 19.9375 C-27.75168538 24.18814786 -27.04776049 27.2383954 -26 32 C-23.27790854 33.09802939 -20.5516768 34.16695797 -17.80078125 35.19140625 C-8.15787493 38.98161915 0.69285068 43.68769049 5.5625 53.375 C8.44849498 61.22600056 9.16474467 70.14926 6 78 C1.18093805 86.98284068 -5.43086842 92.57494191 -15 96 C-24.49840735 98.18516236 -33.43937213 96.03354189 -41.91796875 91.48046875 C-45.41218886 88.99583569 -46.12927511 87.20850364 -47 83 C-46.43902802 78.86283165 -45.61614793 76.70675792 -42.875 73.5625 C-39.15723524 71.54197568 -36.09384549 71.33851689 -32 72 C-30.46840461 72.5324996 -28.94726679 73.09593891 -27.4375 73.6875 C-24.22548282 74.85449586 -22.31259895 75.23577224 -19.0625 74.0625 C-15.85883045 72.23042641 -15.85883045 72.23042641 -14.375 69.1875 C-13.89062896 65.07034612 -14.78721155 63.47335237 -17 60 C-19.81706908 58.17449734 -19.81706908 58.17449734 -23.125 56.9375 C-24.28515625 56.43734375 -25.4453125 55.9371875 -26.640625 55.421875 C-27.74921875 54.95265625 -28.8578125 54.4834375 -30 54 C-38.63708615 50.12106909 -44.4752195 44.61082567 -47.9375 35.625 C-50.20650832 27.53549207 -50.08271775 18.46995677 -46 11 C-35.34952624 -3.37069912 -16.3335872 -10.32436138 0 0 Z " fill="#000000" transform="translate(273,156)"/>
<path d="M0 0 C2.60748689 2.74919814 3.43095523 4.66117021 3.4375 8.4375 C3.30222482 12.75918587 2.20971748 14.97908943 -1 18 C-4.17206641 19.5860332 -7.53767204 19.28908758 -11 19 C-12.66666667 18.33333333 -14.33333333 17.66666667 -16 17 C-19.94911599 16.44378648 -23.04653283 16.33990734 -26.4375 18.6875 C-28.21137233 21.31283105 -28.92258581 22.82601806 -29 26 C-27.99670881 28.9382099 -26.93314837 30.49137407 -24.1796875 31.9921875 C-22.66487028 32.64915124 -21.1405173 33.28438272 -19.609375 33.90234375 C-7.22403521 39.11234447 -0.15364212 44.70375335 5.3125 56.9375 C7.23537902 65.50305201 6.21222346 73.54622496 1.74609375 81.12890625 C-3.47726275 88.6294754 -9.99975887 93.60536782 -19.01953125 95.40234375 C-28.75088288 96.91913936 -37.77577746 94.32992884 -46 89 C-48.6790573 84.98141405 -48.69610694 81.72358279 -48 77 C-46.20606332 74.12970131 -45.01736724 72.50868362 -42 71 C-37.06522484 70.64751606 -33.54565922 71.04359729 -28.875 72.6875 C-25.22729981 73.87721145 -24.31983352 74.09709232 -20.5 72.9375 C-17.37325811 70.5317889 -17.37325811 70.5317889 -16 67 C-15.92424122 63.95361173 -15.92424122 63.95361173 -17 61 C-20.84879535 57.31096597 -24.95025806 55.65147984 -29.8125 53.75 C-38.43007071 50.15576627 -44.34736054 45.96637401 -48.4375 37.3125 C-52.0059387 28.11630336 -51.51276618 20.15448156 -48 11 C-44.4050099 4.20946315 -38.00338277 -2.21498453 -30.515625 -4.55859375 C-19.87266869 -6.426069 -9.35358953 -5.8944677 0 0 Z " fill="#000000" transform="translate(209,157)"/>
<path d="M0 0 C2.87029869 1.79393668 4.49131638 2.98263276 6 6 C6.0922065 8.33849534 6.11749202 10.67971042 6.11352539 13.02001953 C6.11367142 13.74207581 6.11381744 14.46413208 6.1139679 15.20806885 C6.11327007 17.59968041 6.10548375 19.99121451 6.09765625 22.3828125 C6.09579161 24.03905189 6.09436792 25.69529184 6.09336853 27.35153198 C6.08954699 31.71467608 6.07971978 36.077787 6.06866455 40.44091797 C6.05844264 44.89159699 6.05386924 49.34228137 6.04882812 53.79296875 C6.0380972 62.52866108 6.02102512 71.26432641 6 80 C7.32390747 79.96072388 7.32390747 79.96072388 8.67456055 79.9206543 C11.9641158 79.83519725 15.25248422 79.77264255 18.54272461 79.7253418 C19.96381291 79.70026853 21.38477313 79.66620001 22.80541992 79.62280273 C24.85367462 79.56182142 26.90021883 79.53372238 28.94921875 79.51171875 C30.17987061 79.48553467 31.41052246 79.45935059 32.6784668 79.43237305 C36.93398222 80.15961107 38.35747579 81.65693779 41 85 C42.21043896 89.16088394 42.28411902 91.24708461 40.75 95.3125 C39 98 39 98 36 100 C33.96450806 100.27415466 33.96450806 100.27415466 31.60791016 100.30639648 C30.72334137 100.32238388 29.83877258 100.33837128 28.92739868 100.35484314 C27.49767227 100.36288719 27.49767227 100.36288719 26.0390625 100.37109375 C25.05634369 100.38012222 24.07362488 100.3891507 23.06112671 100.39845276 C20.98153738 100.41296382 18.9019023 100.42184412 16.82226562 100.42553711 C13.64374675 100.43742986 10.46717134 100.48660454 7.2890625 100.53710938 C5.26823864 100.54657401 3.24740286 100.55380885 1.2265625 100.55859375 C0.27746002 100.57812607 -0.67164246 100.59765839 -1.64950562 100.61778259 C-6.29047623 100.58612089 -8.32018395 100.53249201 -12.07666016 97.59008789 C-15.24745307 93.32010287 -15.1593549 90.14223782 -15.17700195 84.97363281 C-15.18685875 83.72944077 -15.18685875 83.72944077 -15.19691467 82.46011353 C-15.21666786 79.70778314 -15.22831544 76.95550741 -15.23828125 74.203125 C-15.24235678 73.26364769 -15.2464323 72.32417038 -15.25063133 71.35622406 C-15.27150181 66.38266722 -15.28579866 61.40913805 -15.29516602 56.43554688 C-15.30622576 51.29956448 -15.34061785 46.16401591 -15.38033772 41.0281868 C-15.40649312 37.07846271 -15.41485695 33.12884208 -15.41844749 29.179039 C-15.42331712 27.2860293 -15.43494179 25.39302432 -15.45348549 23.50009918 C-15.47785164 20.84769938 -15.47691654 18.19642294 -15.4699707 15.54394531 C-15.48278076 14.76449554 -15.49559082 13.98504578 -15.50878906 13.18197632 C-15.45966784 8.02513853 -14.39651215 5.09810204 -11 1 C-7.54260443 -0.72869779 -3.78024432 -0.48966895 0 0 Z " fill="#000000" transform="translate(312,152)"/>
</svg>
