<?xml version="1.0" encoding="UTF-8"?>
<svg version="1.1" xmlns="http://www.w3.org/2000/svg" width="512" height="512">
<path d="M0 0 C1.6335029 -0.00417759 3.2670029 -0.00965744 4.90049756 -0.01631981 C9.36981822 -0.03073735 13.83895389 -0.02654127 18.30828452 -0.019153 C23.13594006 -0.01441447 27.96355597 -0.02693724 32.79119873 -0.03717041 C42.24145809 -0.05435037 51.69165094 -0.05520007 61.14192186 -0.04995751 C68.82465403 -0.04591305 76.50736657 -0.04736264 84.19009781 -0.05270576 C85.83143302 -0.0538284 85.83143302 -0.0538284 87.50592653 -0.05497371 C89.72897442 -0.05650522 91.9520223 -0.05804356 94.17507018 -0.05958868 C115.01380748 -0.07331084 135.85250722 -0.06787804 156.69124366 -0.05640347 C175.74585849 -0.04647158 194.8003762 -0.05941151 213.85497604 -0.08333766 C233.43169551 -0.10773375 253.00836975 -0.11733525 272.58510411 -0.11068493 C283.57137128 -0.10719383 294.55756377 -0.10941763 305.54381943 -0.12693596 C314.89621144 -0.14166429 324.24847618 -0.14228507 333.60086571 -0.12486505 C338.36997907 -0.1163579 343.13886515 -0.11419858 347.90796661 -0.1295166 C352.2790431 -0.14338208 356.64969797 -0.13857671 361.02075018 -0.11927737 C362.5966962 -0.11552275 364.17267614 -0.11842373 365.74859188 -0.12888902 C382.37641917 -0.23140397 395.31782743 4.10863115 407.59451294 15.57518005 C418.85137225 27.43724685 422.30852714 40.1802001 422.23219299 56.11347961 C422.23637272 57.482996 422.24185372 58.85250892 422.2485128 60.2220155 C422.26290254 63.96164703 422.25874312 67.70105696 422.25134599 71.44070029 C422.24660049 75.4830757 422.25913637 79.52540412 422.2693634 83.56776428 C422.28652984 91.47796528 422.28739588 99.38808677 422.2821505 107.29830156 C422.27810348 113.73008139 422.27955868 120.16183777 422.28489876 126.59361649 C422.28564718 127.51021684 422.2863956 128.4268172 422.2871667 129.37119333 C422.28869824 131.23347322 422.29023658 133.0957531 422.29178167 134.95803298 C422.30549896 152.40892488 422.30007449 169.8597719 422.28859646 187.31066276 C422.27866533 203.26135216 422.29160405 219.21192554 422.31553065 235.16259705 C422.3399371 251.55720355 422.34952569 267.95175605 422.34287792 284.34638035 C422.33938909 293.54412976 422.34159559 302.74178997 422.35912895 311.9395256 C422.37387028 319.76945744 422.37446119 327.59923726 422.35705804 335.42916618 C422.34856145 339.42059272 422.3463654 343.4117479 422.36170959 347.4031601 C422.3756071 351.06370263 422.37072943 354.72374266 422.35147036 358.3842565 C422.34596411 360.32146255 422.35993957 362.25869451 422.37482446 364.19585121 C422.24979488 379.15478855 416.83146175 391.24438432 406.65701294 402.13768005 C393.74400368 414.37105724 379.8010167 416.84747807 362.65142822 416.77536011 C361.02602454 416.77953886 359.40062378 416.78501934 357.77522838 416.79167992 C353.33290038 416.80608219 348.89075874 416.8019062 344.44842076 416.79451311 C339.64803041 416.78977078 334.84767976 416.80230069 330.04730225 416.81253052 C320.65232393 416.829703 311.25741254 416.83056174 301.8624226 416.82531761 C294.22405929 416.82127179 286.58571573 416.82272437 278.94735336 416.82806587 C277.31498055 416.82918851 277.31498055 416.82918851 275.64963051 416.83033382 C273.43866389 416.83186534 271.22769727 416.83340368 269.01673065 416.83494879 C248.29527423 416.84866822 227.5738556 416.84324005 206.85240005 416.83176357 C187.9084551 416.82183181 168.96460783 416.83477189 150.02067794 416.85869776 C130.55353314 416.88309859 111.08643381 416.89269421 91.61927402 416.88604504 C80.69614692 416.88255501 69.77309492 416.88477065 58.8499794 416.90229607 C49.55143875 416.91703032 40.25302611 416.91763744 30.95448793 416.90022516 C26.21359699 416.89172291 21.47293459 416.88954667 16.73205566 416.90487671 C12.38563836 416.91875683 8.03964471 416.91391815 3.69325171 416.89463747 C2.12741194 416.89088733 0.56153795 416.8937708 -1.00427125 416.90424912 C-17.94000698 417.00945432 -31.36828147 412.89027716 -43.90548706 401.20018005 C-55.16234637 389.33811326 -58.61950126 376.59516001 -58.54316711 360.66188049 C-58.54734684 359.29236411 -58.55282784 357.92285118 -58.55948693 356.55334461 C-58.57387666 352.81371307 -58.56971724 349.07430314 -58.56232011 345.33465981 C-58.55757461 341.29228441 -58.57011049 337.24995599 -58.58033752 333.20759583 C-58.59750396 325.29739482 -58.59837 317.38727333 -58.59312462 309.47705854 C-58.5890776 303.04527872 -58.5905328 296.61352233 -58.59587288 290.18174362 C-58.5966213 289.26514326 -58.59736972 288.34854291 -58.59814082 287.40416678 C-58.59967236 285.54188689 -58.6012107 283.67960701 -58.60275579 281.81732713 C-58.61647308 264.36643523 -58.61104861 246.91558821 -58.59957058 229.46469735 C-58.58963945 213.51400795 -58.60257817 197.56343457 -58.62650477 181.61276306 C-58.65091122 165.21815656 -58.66049981 148.82360406 -58.65385205 132.42897975 C-58.65036321 123.23123035 -58.65256972 114.03357014 -58.67010307 104.8358345 C-58.6848444 97.00590266 -58.68543532 89.17612284 -58.66803216 81.34619392 C-58.65953557 77.35476739 -58.65733952 73.3636122 -58.67268372 69.37220001 C-58.68658122 65.71165748 -58.68170355 62.05161745 -58.66244448 58.39110361 C-58.65693823 56.45389756 -58.6709137 54.51666559 -58.68579859 52.5795089 C-58.560769 37.62057156 -53.14243587 25.53097579 -42.96798706 14.63768005 C-30.27579029 2.59304434 -16.87019337 -0.07040205 0 0 Z M-20.49533081 39.5243988 C-32.6261734 53.13948567 -26.15548706 85.76154847 -26.15548706 96.38768005 C111.12451294 96.38768005 248.40451294 96.38768005 389.84451294 96.38768005 C393.23971819 66.39770289 393.23971819 66.39770289 382.70779419 38.0478363 C376.7333431 32.72468805 369.98436102 32.26384625 362.29046917 32.2590456 C360.98128322 32.25582115 359.67209728 32.25259671 358.32323903 32.24927455 C356.8771798 32.25074558 355.43112067 32.25231328 353.98506165 32.25396729 C352.44362165 32.25209858 350.90218212 32.24979764 349.36074334 32.24710196 C345.12748094 32.24098488 340.89423829 32.24111745 336.66097248 32.24229634 C332.09439786 32.24250037 327.52782959 32.23698138 322.96125793 32.23223877 C314.01547027 32.2239322 305.06968919 32.22118393 296.12389799 32.22062639 C288.85247292 32.22015124 281.58105001 32.21809654 274.30962563 32.21492577 C253.69442876 32.20611923 233.0792371 32.2015064 212.46403833 32.20225624 C211.35265892 32.2022962 210.2412795 32.20233615 209.09622192 32.20237732 C207.42711774 32.20243864 207.42711774 32.20243864 205.72429428 32.2025012 C187.68913804 32.20290769 169.65400267 32.19333747 151.61885246 32.17923895 C133.10110435 32.16487737 114.58336643 32.15796865 96.06561261 32.15883273 C85.66905512 32.15916477 75.27251951 32.15641453 64.87596703 32.14565468 C56.02444971 32.13655257 47.1729642 32.13437206 38.32144424 32.1411641 C33.80594614 32.14443074 29.29050909 32.14448078 24.77501678 32.13581085 C20.63905264 32.12795135 16.50319799 32.12937168 12.36723653 32.13809498 C10.87332167 32.13963118 9.37939867 32.13780931 7.88549342 32.13223491 C-7.62767108 31.89471169 -7.62767108 31.89471169 -20.49533081 39.5243988 Z M-26.15548706 128.38768005 C-26.19673706 166.97705505 -26.23798706 205.56643005 -26.28048706 245.32518005 C-26.29869507 257.51189636 -26.31690308 269.69861267 -26.33566284 282.25462341 C-26.34235153 293.17443028 -26.34235153 293.17443028 -26.34637451 304.09423828 C-26.34823852 308.95969464 -26.35573643 313.8251074 -26.36663818 318.69055176 C-26.38036329 324.89835774 -26.38446803 331.10610039 -26.38163161 337.31392014 C-26.38222467 339.5911641 -26.3861864 341.86841029 -26.39391732 344.14564121 C-26.40388546 347.22513412 -26.40145947 350.30438191 -26.39599609 353.38388062 C-26.40182142 354.27178063 -26.40764675 355.15968065 -26.41364861 356.07448673 C-26.37075907 365.08784557 -25.395073 372.08718993 -19.01876831 378.7275238 C-13.04431722 384.05067205 -6.29533514 384.51151386 1.39855671 384.51631451 C3.36233563 384.52115118 3.36233563 384.52115118 5.36578685 384.52608556 C6.81184608 384.52461453 8.25790521 384.52304682 9.70396423 384.52139282 C11.24540423 384.52326152 12.78684376 384.52556246 14.32828254 384.52825814 C18.56154494 384.53437522 22.79478759 384.53424266 27.0280534 384.53306377 C31.59462801 384.53285974 36.16119629 384.53837873 40.72776794 384.54312134 C49.67355561 384.55142791 58.61933669 384.55417618 67.56512789 384.55473372 C74.83655296 384.55520887 82.10797586 384.55726356 89.37940025 384.56043434 C109.99459712 384.56924088 130.60978878 384.57385371 151.22498754 384.57310387 C152.33636696 384.57306391 153.44774638 384.57302396 154.59280396 384.57298279 C155.70554008 384.57294191 156.8182762 384.57290103 157.9647316 384.57285891 C175.99988784 384.57245242 194.03502321 384.58202263 212.07017342 384.59612115 C230.58792153 384.61048273 249.10565945 384.61739146 267.62341326 384.61652738 C278.01997076 384.61619534 288.41650637 384.61894558 298.81305885 384.62970543 C307.66457617 384.63880754 316.51606168 384.64098804 325.36758164 384.63419601 C329.88307974 384.63092937 334.39851679 384.63087933 338.91400909 384.63954926 C343.04997324 384.64740876 347.18582789 384.64598843 351.32178935 384.63726512 C352.8157042 384.63572893 354.30962721 384.6375508 355.80353246 384.6431252 C371.31669696 384.88064842 371.31669696 384.88064842 384.18435669 377.2509613 C390.25094661 370.44210626 389.99270335 362.34446342 389.96476746 353.74464417 C389.96562347 352.78220291 389.96647949 351.81976166 389.96736145 350.82815552 C389.96901508 347.59683881 389.9634955 344.36557405 389.95803833 341.13426208 C389.95773197 338.78063903 389.95786552 336.42701588 389.95840359 334.07339287 C389.9586294 327.76904405 389.9528324 321.46471421 389.94579315 315.16036987 C389.94009935 309.24517253 389.93983009 303.3299798 389.93911743 297.41477966 C389.93386955 280.11407728 389.91990841 262.81337843 389.90701294 245.51268005 C389.88638794 206.86143005 389.86576294 168.21018005 389.84451294 128.38768005 C252.56451294 128.38768005 115.28451294 128.38768005 -26.15548706 128.38768005 Z " fill="#000000" transform="translate(74.15548706054688,47.61231994628906)"/>
<path d="M0 0 C4.8846525 2.26787438 7.73212562 5.1153475 10 10 C10.75381535 15.5997712 10.77303575 20.33499991 8.375 25.5 C3.80134327 30.3143755 0.6912538 32.25156236 -6 32.5 C-12.6912538 32.25156236 -15.80134327 30.3143755 -20.375 25.5 C-22.77303575 20.33499991 -22.75381535 15.5997712 -22 10 C-17.52212837 0.3553534 -9.85292056 -1.32635469 0 0 Z " fill="#000000" transform="translate(198,96)"/>
<path d="M0 0 C4.8846525 2.26787438 7.73212562 5.1153475 10 10 C10.75381535 15.5997712 10.77303575 20.33499991 8.375 25.5 C3.80134327 30.3143755 0.6912538 32.25156236 -6 32.5 C-12.6912538 32.25156236 -15.80134327 30.3143755 -20.375 25.5 C-22.77303575 20.33499991 -22.75381535 15.5997712 -22 10 C-17.52212837 0.3553534 -9.85292056 -1.32635469 0 0 Z " fill="#000000" transform="translate(150,96)"/>
<path d="M0 0 C4.8846525 2.26787438 7.73212562 5.1153475 10 10 C10.75381535 15.5997712 10.77303575 20.33499991 8.375 25.5 C3.80134327 30.3143755 0.6912538 32.25156236 -6 32.5 C-12.6912538 32.25156236 -15.80134327 30.3143755 -20.375 25.5 C-22.77303575 20.33499991 -22.75381535 15.5997712 -22 10 C-17.52212837 0.3553534 -9.85292056 -1.32635469 0 0 Z " fill="#000000" transform="translate(102,96)"/>
</svg>
