<?xml version="1.0" encoding="UTF-8"?>
<svg version="1.1" xmlns="http://www.w3.org/2000/svg" width="512" height="512">
<path d="M0 0 C1.29228687 -0.00507454 2.58457373 -0.01014909 3.91602081 -0.0153774 C5.35341764 -0.01597906 6.79081451 -0.01647815 8.2282114 -0.01688576 C9.75270069 -0.02090109 11.27718892 -0.02533943 12.80167586 -0.03016531 C16.9975236 -0.0421291 21.19335985 -0.04777883 25.38922131 -0.05234647 C29.91228529 -0.05830341 34.43533553 -0.06991313 38.95839024 -0.08063698 C49.88605717 -0.10516053 60.81372865 -0.11978892 71.74141464 -0.13269705 C74.82842394 -0.13640929 77.91543279 -0.1403825 81.00244164 -0.14444971 C100.17569802 -0.16968868 119.34895511 -0.19174007 138.52222443 -0.20417786 C142.96349115 -0.20710752 147.40475785 -0.21006919 151.84602451 -0.21308327 C152.94987055 -0.21382932 154.05371659 -0.21457537 155.19101251 -0.21534403 C173.06520348 -0.22799258 190.93929487 -0.26120879 208.8134393 -0.3028851 C227.1684208 -0.3453313 245.52335135 -0.36887608 263.87838179 -0.37409842 C274.18237589 -0.37750969 284.48621443 -0.38923131 294.79016018 -0.42220116 C303.56735707 -0.45023984 312.34436648 -0.46118428 321.12160467 -0.4500057 C325.59720675 -0.44482865 330.07241648 -0.44764349 334.54796124 -0.47247124 C338.65232306 -0.49504898 342.75601264 -0.49415842 346.86038692 -0.47526737 C348.33829089 -0.47247921 349.81624129 -0.47799949 351.29407095 -0.4930803 C365.76535888 -0.63162163 377.4139941 3.01948023 387.83601475 13.16826439 C398.3918024 24.31266474 401.06371091 35.93722481 401.01077366 50.89146996 C401.01459921 52.04719372 401.01842475 53.20291748 401.02236623 54.39366317 C401.03086044 57.57896801 401.03047759 60.76412426 401.02618563 63.94943285 C401.02370926 67.39317744 401.03274355 70.83689541 401.04022312 74.28063011 C401.05294445 81.01685004 401.05476723 87.75303007 401.05242286 94.48925999 C401.05063757 99.9633588 401.05239383 105.43744552 401.0566473 110.91154289 C401.05724249 111.69153174 401.05783768 112.47152058 401.0584509 113.27514546 C401.05966268 114.859777 401.06087681 116.44440853 401.06209328 118.02904007 C401.07295778 132.87301013 401.0708108 147.71695745 401.06470843 162.56092879 C401.0595336 176.14317946 401.07081156 189.72535854 401.08980665 203.30759504 C401.10917002 217.26017401 401.11744412 231.21271908 401.1136834 245.16531157 C401.11176992 252.99629878 401.1142737 260.82722497 401.12839794 268.65820122 C401.14029316 275.32050239 401.14173717 281.98270492 401.12960777 288.6450074 C401.12370752 292.04415081 401.12265129 295.44311359 401.13461018 298.8422451 C401.14500786 302.52516374 401.13703289 306.20759281 401.12429905 309.89049339 C401.13167333 310.96703753 401.13904762 312.04358166 401.14664537 313.15274835 C401.07970776 322.31786994 401.07970776 322.31786994 397.75007725 326.13701439 C393.89991649 328.23710208 392.26623288 328.27465589 388.00007725 327.13701439 C384.75007725 325.13701439 384.75007725 325.13701439 383.56198406 322.56013107 C382.57747741 318.40930849 382.47890531 314.61587292 382.50956821 310.36714745 C382.50700016 309.06402611 382.50700016 309.06402611 382.50438023 307.73457909 C382.50107606 304.82127683 382.51210678 301.90820571 382.52302647 298.99492455 C382.52363925 296.87158465 382.52337196 294.74824434 382.52229595 292.62490463 C382.52184453 286.94001796 382.53343416 281.25521554 382.54751682 275.57034874 C382.55890877 270.23539019 382.55944318 264.90045211 382.56086826 259.56548119 C382.57136188 243.96431443 382.59928419 228.36316335 382.62507725 212.76201439 C382.66632725 177.90576439 382.70757725 143.04951439 382.75007725 107.13701439 C248.11007725 107.13701439 113.47007725 107.13701439 -25.24992275 107.13701439 C-25.16742275 155.77076439 -25.08492275 204.40451439 -24.99992275 254.51201439 C-24.98413174 269.8742556 -24.96834072 285.23649681 -24.95207119 301.06426048 C-24.9188557 314.82215644 -24.9188557 314.82215644 -24.88035488 328.58003807 C-24.86333405 334.71296051 -24.85716317 340.84577629 -24.85838223 346.97871971 C-24.85975115 354.05419308 -24.84729816 361.12948231 -24.81788386 368.20489714 C-24.80327373 371.82319388 -24.79479546 375.44120425 -24.80409861 379.05952525 C-24.81393223 382.93892648 -24.79285664 386.81781711 -24.76890469 390.69716454 C-24.7805459 392.38056655 -24.7805459 392.38056655 -24.79242229 394.09797668 C-24.69689191 402.87096234 -23.01794881 410.33614798 -17.06242275 417.01201439 C-9.82434007 423.61190054 -1.32560743 425.29257671 8.19589329 425.26831627 C8.93646613 425.27043198 9.67703896 425.2725477 10.4400534 425.27472752 C12.9165379 425.28070936 15.39297118 425.27972869 17.86946201 425.27886009 C19.64693888 425.28189268 21.42441498 425.28541442 23.20188999 425.28938866 C27.02690371 425.29726852 30.85190814 425.30241905 34.67692852 425.30567932 C40.72314524 425.31159297 46.76930322 425.32813525 52.81549168 425.3470211 C54.88564869 425.35335807 56.95580574 425.3596837 59.02596283 425.36599827 C60.06252231 425.36916408 61.09908178 425.37232989 62.16705215 425.37559164 C76.24183607 425.41767644 90.31659197 425.45066428 104.39143467 425.46294212 C113.88839951 425.47131164 123.38521829 425.49375754 132.88211006 425.53229779 C137.90797281 425.55208911 142.93361706 425.56445268 147.95952129 425.5594635 C152.68333114 425.55483093 157.40672601 425.5685459 162.13045216 425.5964756 C163.8654866 425.60340977 165.60056374 425.60349013 167.33559704 425.59627533 C169.70131095 425.58742999 172.06564345 425.6030084 174.43124485 425.62476158 C175.12044453 425.61631904 175.8096442 425.60787651 176.51972872 425.59917814 C179.8458331 425.65587639 181.49982318 425.9412397 184.15281677 428.01668644 C186.03799526 430.51921918 186.59752832 432.00976133 186.75007725 435.13701439 C185.99991265 438.00127921 185.22167558 439.66419428 183.12964725 441.76164246 C179.90092124 443.62781959 176.99062403 443.55282667 173.36445713 443.51796532 C172.24497031 443.52498527 172.24497031 443.52498527 171.1028676 443.53214705 C168.60032477 443.54411911 166.09832734 443.53463108 163.59578037 443.52519798 C161.8018725 443.52926299 160.00796712 443.53460446 158.21406651 443.54112816 C153.33755787 443.55482392 148.46123932 443.5494917 143.58472729 443.5399909 C138.47606105 443.53239665 133.36741112 443.53944014 128.25874424 443.5441494 C119.6705391 443.54961159 111.08241127 443.54240733 102.49421787 443.52812767 C92.58546832 443.51184183 82.67690435 443.51705816 72.76815939 443.53360689 C64.25159739 443.54725827 55.73509102 443.54912235 47.2185216 443.54129088 C42.13652576 443.53662904 37.05461684 443.53594751 31.97262669 443.54590034 C27.18568426 443.55461943 22.39897858 443.54845847 17.6120615 443.53121758 C15.86264023 443.52727719 14.11319877 443.52834438 12.36378574 443.53500557 C-4.05185075 443.5917065 -17.33555549 441.589387 -29.93742275 430.13701439 C-37.51496209 422.23645383 -42.36417089 411.82636682 -42.38693714 400.87147427 C-42.39201168 399.575704 -42.39708623 398.27993374 -42.40231454 396.94489771 C-42.40291621 395.50357063 -42.40341529 394.06224351 -42.4038229 392.62091637 C-42.40783822 391.09230228 -42.41227656 389.56368926 -42.41710246 388.03507751 C-42.42906638 383.82782819 -42.434716 379.62059033 -42.43928361 375.41332734 C-42.4452405 370.87799333 -42.45685024 366.34267302 -42.46757412 361.80734825 C-42.49209778 350.85001845 -42.50672607 339.89268411 -42.51963419 328.93533531 C-42.52334642 325.83995696 -42.52731963 322.74457906 -42.53138685 319.64920115 C-42.5566258 300.42404391 -42.57867723 281.19888594 -42.591115 261.97371578 C-42.59404466 257.5204175 -42.59700633 253.06711925 -42.60002041 248.61382103 C-42.60076646 247.50698438 -42.60151251 246.40014772 -42.60228117 245.25977056 C-42.61492977 227.33708078 -42.64814604 209.41449031 -42.68982224 191.49184693 C-42.73226815 173.08714489 -42.75581318 154.68249365 -42.76103556 136.2777428 C-42.76444687 125.94580321 -42.77616886 115.61401876 -42.8091383 105.28212738 C-42.83717657 96.48114205 -42.84812159 87.68034369 -42.83694284 78.87931717 C-42.83176569 74.3915639 -42.83458131 69.90420192 -42.85940838 65.41650581 C-42.88198528 61.30104204 -42.8810962 57.18624871 -42.86220451 53.07077252 C-42.85941624 51.58883091 -42.86493728 50.10684301 -42.88001744 48.62497551 C-43.01035971 34.97238868 -39.96534006 23.11705395 -30.24992275 13.13701439 C-21.55109809 4.93610225 -12.04442509 0.02509849 0 0 Z M-19.24992275 27.13701439 C-32.08191953 46.3016849 -25.24992275 64.23144341 -25.24992275 90.13701439 C109.39007725 90.13701439 244.03007725 90.13701439 382.75007725 90.13701439 C386.87532291 54.44682356 386.87532291 54.44682356 375.60945225 25.51592064 C374.56531162 24.61679955 374.56531162 24.61679955 373.50007725 23.69951439 C372.47140537 22.77332298 372.47140537 22.77332298 371.42195225 21.82842064 C363.14503097 16.58879065 354.52926005 16.70583066 344.99215794 16.74933434 C343.49833557 16.74515692 342.00451638 16.73967717 340.51070303 16.73301452 C336.42290986 16.71859472 332.33531891 16.72279374 328.24751484 16.73018134 C323.83228847 16.73491928 319.41710544 16.72239766 315.00189304 16.71216393 C306.35896065 16.69498316 297.71610098 16.69413438 289.07315595 16.69937683 C282.0473234 16.70342092 275.02151233 16.70197213 267.99568081 16.69662857 C266.99510668 16.69588015 265.99453255 16.69513173 264.96363799 16.69436062 C262.9308751 16.69282912 260.89811222 16.69129078 258.86534934 16.68974566 C239.8102557 16.67602335 220.75520313 16.68145653 201.70011043 16.69293087 C184.27364208 16.70286409 166.8472799 16.68992055 149.42082793 16.66599668 C131.51882722 16.64160545 113.61687595 16.6319978 95.71485895 16.6386494 C85.66761273 16.64214142 75.62044817 16.63991061 65.57321453 16.62239838 C57.020765 16.60767618 48.46845463 16.60704128 39.91600782 16.62446929 C35.55422031 16.63298128 31.19268141 16.63512398 26.83090687 16.61981773 C22.83428329 16.60596668 18.83812121 16.6107389 14.8415243 16.63005697 C13.39949976 16.63381601 11.95743822 16.63089772 10.51544667 16.62044532 C-0.94702196 16.5432983 -11.39288669 18.04044592 -19.24992275 27.13701439 Z " fill="#000000" transform="translate(42.24992275238037,3.862985610961914)"/>
<path d="M0 0 C6.33023947 4.42244295 10.0748542 10.15154746 14.125 16.625 C15.44785111 18.69665645 16.77076895 20.76827028 18.09375 22.83984375 C19.07794922 24.39421143 19.07794922 24.39421143 20.08203125 25.97998047 C22.89318161 30.40639721 25.75920858 34.79635385 28.625 39.1875 C29.69311434 40.83046529 30.76082392 42.47369379 31.828125 44.1171875 C32.35212891 44.92381836 32.87613281 45.73044922 33.41601562 46.56152344 C34.47200521 48.18717448 35.52799479 49.81282552 36.58398438 51.43847656 C42.8806543 61.13132086 49.1842298 70.81958803 55.5 80.5 C61.81288484 90.17598947 68.11350298 99.85987859 74.40722656 109.54833984 C77.10404754 113.69939383 79.80209214 117.84965238 82.5 122 C83.58333905 123.66666295 84.66667239 125.33332961 85.75 127 C86.28625 127.825 86.8225 128.65 87.375 129.5 C93.33333333 138.66666667 99.29166667 147.83333333 105.25 157 C105.78705566 157.82604736 106.32411133 158.65209473 106.87744141 159.50317383 C107.95334721 161.15879957 109.02855043 162.81488212 110.10302734 164.47143555 C112.91921279 168.8111662 115.74959029 173.14071936 118.6015625 177.45703125 C119.19130859 178.35357422 119.78105469 179.25011719 120.38867188 180.17382812 C121.51305771 181.88254045 122.64169786 183.588464 123.77539062 185.29101562 C130.04933372 194.84866598 132.2813721 202.33341212 131 214 C128.6892562 221.84625895 124.07343026 227.12202499 117.0379203 231.11301744 C111.04359713 234.00719586 105.99527438 234.57391836 99.39360046 234.52139282 C98.36123868 234.52904392 97.3288769 234.53669501 96.26523143 234.54457796 C92.82464111 234.56512638 89.3847253 234.55727544 85.9440918 234.54931641 C83.4696491 234.55801563 80.9952118 234.56838359 78.52078247 234.58029175 C72.5080585 234.6042665 66.49559712 234.60938086 60.48284944 234.60469122 C55.59231924 234.60111732 50.7018431 234.60464029 45.81131935 234.61314011 C44.76509589 234.61492567 44.76509589 234.61492567 43.69773659 234.61674731 C42.28053817 234.61917096 40.86333975 234.62159923 39.44614134 234.62403207 C26.1704354 234.64575977 12.89483119 234.6414694 -0.38088044 234.62926237 C-12.50676675 234.61892839 -24.63233152 234.64142718 -36.75815425 234.67945881 C-49.22934436 234.71827169 -61.70038256 234.73471769 -74.17163342 234.72721231 C-81.16511602 234.72339637 -88.15832508 234.72828346 -95.15175819 234.75664139 C-101.73059958 234.78304964 -108.3089057 234.77787358 -114.88778305 234.75181961 C-117.29675071 234.74709726 -119.70576384 234.7525246 -122.11467934 234.76906586 C-146.30096803 234.92311805 -146.30096803 234.92311805 -155 228 C-161.27337372 221.56723766 -164.24917225 215.46750594 -164.5 206.375 C-164.18931996 192.80393101 -155.06889593 182.34276047 -147.71875 171.50390625 C-144.22794638 166.35551409 -140.8174615 161.15915672 -137.4375 155.9375 C-136.63977173 154.70676758 -136.63977173 154.70676758 -135.82592773 153.45117188 C-134.75319414 151.79566059 -133.68084612 150.1398994 -132.60888672 148.48388672 C-129.91125056 144.31912947 -127.20518502 140.15985616 -124.5 136 C-123.41662663 134.33335936 -122.33329328 132.6666927 -121.25 131 C-114.75 121 -108.25 111 -101.75 101 C-101.21391113 100.1752417 -100.67782227 99.3504834 -100.12548828 98.50073242 C-99.04055022 96.83160948 -97.95558923 95.16250144 -96.87060547 93.4934082 C-94.18663762 89.36444358 -91.50304969 85.2352331 -88.8203125 81.10546875 C-82.42149011 71.25630095 -76.01240705 61.41390188 -69.59301758 51.578125 C-66.03088422 46.11897308 -62.47659102 40.65488171 -58.93237305 35.18408203 C-57.33699094 32.72524594 -55.73547277 30.27050299 -54.1328125 27.81640625 C-51.99889045 24.5476317 -49.89453555 21.26194653 -47.8046875 17.96484375 C-46.76601357 16.3513123 -45.72696583 14.73802141 -44.6875 13.125 C-44.23221924 12.39369873 -43.77693848 11.66239746 -43.30786133 10.90893555 C-38.96845917 4.23803071 -32.9912612 -1.0118308 -25.32421875 -3.52734375 C-16.55549463 -5.31056328 -7.73679862 -4.68214027 0 0 Z M-26.77563477 18.17407227 C-28.7772709 21.05325353 -30.68126343 23.97823089 -32.5625 26.9375 C-33.26286377 28.01418945 -33.96322754 29.09087891 -34.68481445 30.20019531 C-36.11855554 32.40735274 -37.54622224 34.61846796 -38.96777344 36.83349609 C-40.79135122 39.67489492 -42.62914664 42.50609756 -44.4765625 45.33203125 C-47.13629865 49.40256659 -49.78238816 53.48171125 -52.42333984 57.56445312 C-55.10935076 61.71367037 -57.80524609 65.85645801 -60.5 70 C-61.58337908 71.66663693 -62.66671245 73.33330357 -63.75 75 C-70.25 85 -76.75 95 -83.25 105 C-83.78608887 105.8247583 -84.32217773 106.6495166 -84.87451172 107.49926758 C-85.95944978 109.16839052 -87.04441077 110.83749856 -88.12939453 112.5065918 C-90.81336238 116.63555642 -93.49695031 120.7647669 -96.1796875 124.89453125 C-102.57850989 134.74369905 -108.98759295 144.58609812 -115.40698242 154.421875 C-118.4164404 159.03402357 -121.42259455 163.64822098 -124.41796875 168.26953125 C-125.23539551 169.52975098 -125.23539551 169.52975098 -126.06933594 170.81542969 C-127.13811018 172.46470895 -128.2052011 174.11508042 -129.27050781 175.76660156 C-131.93195028 179.87883656 -134.63955195 183.94671739 -137.44140625 187.96484375 C-137.99675049 188.76946045 -138.55209473 189.57407715 -139.12426758 190.40307617 C-140.17239727 191.91616683 -141.23260966 193.42099312 -142.30737305 194.9152832 C-145.59457202 199.68158112 -146.89520967 203.16872617 -147 209 C-144.95375825 213.0924835 -143.22268146 215.30638112 -139 217 C-136.91452099 217.29784864 -136.91452099 217.29784864 -134.69831276 217.25726891 C-133.41176888 217.26694224 -133.41176888 217.26694224 -132.09923422 217.276811 C-130.69292685 217.2721652 -130.69292685 217.2721652 -129.25820923 217.26742554 C-128.2585546 217.27195665 -127.25889996 217.27648776 -126.22895277 217.28115618 C-122.86954821 217.29384582 -119.51030482 217.29217686 -116.15087891 217.29052734 C-113.74625947 217.29650972 -111.34164195 217.30331459 -108.93702698 217.31088257 C-103.07743727 217.32673964 -97.21788554 217.33299222 -91.35827877 217.33410732 C-86.59535685 217.33505766 -81.83244821 217.33916724 -77.06953049 217.34550858 C-63.56585586 217.36312146 -50.06221302 217.37234735 -36.55852683 217.37084763 C-35.83055087 217.37076772 -35.1025749 217.3706878 -34.35253906 217.37060547 C-33.62367431 217.37052371 -32.89480956 217.37044195 -32.143858 217.37035771 C-20.33053381 217.36954474 -8.5173371 217.38868499 3.29595022 217.4168822 C15.42566803 217.44560627 27.55532366 217.45942277 39.68507636 217.45769465 C46.49506553 217.45703059 53.30492106 217.46252968 60.11487961 217.48405075 C66.51870856 217.50415867 72.92232803 217.50359371 79.32617378 217.48901749 C81.67799478 217.48692174 84.02983323 217.49167557 86.38162422 217.5037384 C89.58949815 217.51912798 92.79638983 217.50992363 96.00424194 217.49447632 C96.93731875 217.50476344 97.87039555 217.51505057 98.83174741 217.52564943 C104.52370381 217.46498006 107.62202783 216.71106696 112 213 C114.37024545 209.76784711 114.288489 206.9298414 114 203 C112.72802684 200.18211357 112.72802684 200.18211357 110.8515625 197.47265625 C109.8454895 195.92481445 109.8454895 195.92481445 108.8190918 194.34570312 C108.0950415 193.26224609 107.37099121 192.17878906 106.625 191.0625 C105.88270067 189.93110515 105.14157714 188.79893803 104.40161133 187.66601562 C102.28440225 184.43285638 100.14411541 181.21538619 98 178 C97.03234512 176.54050178 96.06486306 175.08088894 95.09765625 173.62109375 C93.51993817 171.24659543 91.93408972 168.87777718 90.34375 166.51171875 C86.30739797 160.48957698 82.40671661 154.37811903 78.47705078 148.28613281 C75.86797181 144.24788232 73.24624272 140.2178614 70.625 136.1875 C70.08125732 135.35130127 69.53751465 134.51510254 68.97729492 133.65356445 C67.8706592 131.95178797 66.76396956 130.25004656 65.65722656 128.54833984 C62.93741031 124.36604137 60.21875722 120.18298696 57.5 116 C56.41667239 114.33332961 55.33333905 112.66666295 54.25 111 C47.75 101 47.75 101 46.12548828 98.50073242 C45.04055022 96.83160948 43.95558923 95.16250144 42.87060547 93.4934082 C40.18663762 89.36444358 37.50304969 85.2352331 34.8203125 81.10546875 C28.42614236 71.26346177 22.02367419 61.42693077 15.60620117 51.60009766 C12.51636224 46.8670171 9.43442555 42.1291938 6.37109375 37.37890625 C5.79230469 36.48300781 5.21351563 35.58710938 4.6171875 34.6640625 C3.53792382 32.99245876 2.46090788 31.31940045 1.38671875 29.64453125 C-3.98007786 20.49269912 -3.98007786 20.49269912 -11.5625 13.5 C-17.80072768 12.22036355 -22.52679253 12.97182559 -26.77563477 18.17407227 Z " fill="#000000" transform="translate(381,274)"/>
<path d="M0 0 C0.65912384 -0.0065712 1.31824768 -0.0131424 1.99734497 -0.01991272 C4.17246634 -0.03957491 6.34751879 -0.0512941 8.52270508 -0.0612793 C9.26905024 -0.06535482 10.01539539 -0.06943035 10.78435707 -0.07362938 C14.73693181 -0.09446271 18.68947214 -0.10877468 22.64208984 -0.11816406 C26.70609288 -0.12920645 30.76954508 -0.16358849 34.833354 -0.20333576 C37.97425795 -0.22959742 41.11503269 -0.23786443 44.25603676 -0.24144554 C45.75303163 -0.24628904 47.2500216 -0.25783861 48.74690819 -0.27648354 C58.33907114 -0.38851006 66.30892388 -0.0599398 73.91333008 6.32543945 C74.84338867 7.42758789 74.84338867 7.42758789 75.79223633 8.55200195 C76.43032227 9.28161133 77.0684082 10.0112207 77.72583008 10.76293945 C80.99802812 15.61238403 81.60822972 20.29131896 81.64526367 26.04931641 C81.6519809 26.7087323 81.65869812 27.36814819 81.6656189 28.04754639 C81.68450356 30.2118702 81.68851831 32.37588229 81.69067383 34.5402832 C81.69710884 36.05714542 81.70383772 37.57400641 81.71084595 39.09086609 C81.72279521 42.26568476 81.72652925 45.44039482 81.7253418 48.61523438 C81.72513884 52.6635277 81.75242628 56.71111716 81.78688622 60.75924397 C81.8092346 63.89158768 81.81317691 67.02376419 81.81212234 70.15617943 C81.81446694 71.64757904 81.82322549 73.13898407 81.83878708 74.63030434 C81.92923012 84.19355441 81.57078906 92.15606642 75.20629883 99.7355957 C74.4715332 100.35563477 73.73676758 100.97567383 72.97973633 101.61450195 C72.25012695 102.25258789 71.52051758 102.89067383 70.76879883 103.5480957 C65.88282203 106.84494413 61.17468411 107.4308684 55.37475586 107.4675293 C54.36859222 107.47760513 54.36859222 107.47760513 53.34210205 107.48788452 C51.14050746 107.50677017 48.93921921 107.51078376 46.73754883 107.51293945 C45.19587075 107.51937362 43.65419388 107.52610243 42.11251831 107.53311157 C38.88642548 107.5450605 35.66043955 107.54879483 32.43432617 107.54760742 C28.31643754 107.54740429 24.19923948 107.57471051 20.08151436 107.60915184 C16.89859924 107.63147435 13.71584897 107.63544335 10.53286362 107.63438797 C9.01551813 107.63673572 7.49816753 107.64551241 5.98089981 107.6610527 C-3.77939687 107.75166937 -10.72584712 107.42558897 -18.39526367 100.80200195 C-23.61267427 94.71502292 -25.75836347 90.43350506 -25.82226562 82.44580078 C-25.82883682 81.76570953 -25.83540802 81.08561829 -25.84217834 80.38491821 C-25.86188374 78.13462202 -25.87356964 75.88439258 -25.88354492 73.6340332 C-25.88762045 72.8634577 -25.89169598 72.09288219 -25.895895 71.29895592 C-25.91674709 67.21786137 -25.93105076 63.13680033 -25.94042969 59.05566406 C-25.95147373 54.85365859 -25.98585237 50.65218565 -26.02560139 46.45036793 C-26.0518329 43.208278 -26.06012743 39.96631351 -26.06371117 36.72412682 C-26.06856272 35.17606714 -26.08013572 33.62801252 -26.09874916 32.08005714 C-26.20995826 22.2159666 -25.9663956 15.18041788 -19.27026367 7.42700195 C-12.72777078 1.81915091 -8.48517073 0.07020789 0 0 Z M-6.64526367 19.17700195 C-8.91468681 22.39696705 -8.89826623 25.30258382 -8.90405273 29.16723633 C-8.91035706 30.37528931 -8.91666138 31.58334229 -8.92315674 32.82800293 C-8.91910828 34.12911011 -8.91505981 35.43021729 -8.91088867 36.77075195 C-8.91223659 38.12308827 -8.91417818 39.47542412 -8.91668701 40.82775879 C-8.91963232 43.6589012 -8.91535982 46.48991722 -8.90600586 49.32104492 C-8.89461155 52.94596162 -8.90117421 56.57058214 -8.91315079 60.19548798 C-8.92038547 62.98706281 -8.91807409 65.77856769 -8.9128952 68.57014465 C-8.9109164 70.55543205 -8.91697944 72.5407222 -8.92315674 74.52600098 C-8.91685242 75.73405396 -8.9105481 76.94210693 -8.90405273 78.18676758 C-8.90246155 79.24947876 -8.90087036 80.31218994 -8.89923096 81.40710449 C-8.63805954 84.25557389 -8.28716844 85.84738966 -6.64526367 88.17700195 C-3.43393213 90.43542185 -0.52400485 90.4398095 3.32910156 90.4675293 C4.53392685 90.480289 5.73875214 90.49304871 6.98008728 90.50619507 C8.92704247 90.50953354 8.92704247 90.50953354 10.91333008 90.51293945 C12.26327149 90.51936967 13.61321151 90.5260982 14.96315002 90.53311157 C17.7900821 90.54507327 20.61689207 90.54879348 23.44384766 90.54760742 C27.05991914 90.54740413 30.67520555 90.57471985 34.29109097 90.60915184 C37.07843091 90.63142652 39.86558196 90.63544484 42.65300179 90.63438797 C44.63220665 90.63788447 46.61135257 90.65954151 48.59043884 90.68148804 C50.40240501 90.67225815 50.40240501 90.67225815 52.25097656 90.6628418 C53.84171242 90.66711685 53.84171242 90.66711685 55.46458435 90.67147827 C59.07217903 90.05425463 60.74133763 88.68689591 63.35473633 86.17700195 C64.69195904 83.50255653 64.50403354 81.42450601 64.53173828 78.4296875 C64.54457352 77.22471115 64.55740875 76.0197348 64.57063293 74.77824402 C64.57801987 73.46995132 64.5854068 72.16165863 64.59301758 70.8137207 C64.59709311 70.1488093 64.60116863 69.4838979 64.60536766 68.79883766 C64.62622713 65.27881811 64.64052874 61.75883752 64.64990234 58.23876953 C64.6609606 54.60699338 64.69535293 50.97583101 64.73507404 47.34427166 C64.76125007 44.54837422 64.76959503 41.75262273 64.77318382 38.95661354 C64.78040928 36.96852008 64.80684511 34.98052642 64.83357239 32.99259949 C64.83064682 31.77816666 64.82772125 30.56373383 64.82470703 29.3125 C64.83350639 27.71271553 64.83350639 27.71271553 64.84248352 26.08061218 C64.23426119 22.4598008 62.87413342 20.79666936 60.35473633 18.17700195 C57.67169625 16.83548191 55.59581427 17.04246931 52.59155273 17.03173828 C51.38334869 17.02535843 50.17514465 17.01897858 48.93032837 17.0124054 C47.61889862 17.01129257 46.30746887 17.01017975 44.95629883 17.0090332 C43.60110437 17.00582052 42.24591027 17.00245644 40.89071655 16.99894714 C38.04766028 16.9929546 35.20463441 16.99110733 32.36157227 16.99169922 C28.72092584 16.99180076 25.08047479 16.97815733 21.43987465 16.96092701 C18.63973091 16.94979961 15.83963426 16.94778025 13.03947067 16.94830894 C11.04531155 16.9465565 9.05116713 16.93571888 7.05703735 16.92475891 C5.84252899 16.92783554 4.62802063 16.93091217 3.37670898 16.93408203 C2.30796539 16.93265701 1.2392218 16.93123199 0.13809204 16.92976379 C-2.72115735 17.18374339 -4.30932728 17.5274474 -6.64526367 19.17700195 Z " fill="#000000" transform="translate(74.645263671875,138.822998046875)"/>
<path d="M0 0 C0.96446265 -0.00779995 1.9289253 -0.01559991 2.9226141 -0.02363622 C6.15721167 -0.04359388 9.39063765 -0.02777631 12.62524414 -0.01205444 C14.94296964 -0.01882885 17.26068976 -0.02773098 19.57839966 -0.03860474 C25.87589301 -0.0614253 32.17297743 -0.05255001 38.47047806 -0.03670931 C45.05585089 -0.02406477 51.64118832 -0.03578641 58.2265625 -0.04364014 C69.99501493 -0.05432422 81.76329507 -0.03776995 93.53171766 -0.01234345 C104.20133181 0.00999534 114.87067396 0.00611518 125.5402832 -0.01693726 C137.93158235 -0.043697 150.32270806 -0.05365386 162.71403217 -0.03887594 C169.2730341 -0.0310742 175.83184867 -0.03005993 182.39083862 -0.04655838 C188.55677854 -0.06098432 194.72220399 -0.05101493 200.88808823 -0.0220871 C203.15323914 -0.01546636 205.41843322 -0.01739069 207.68356705 -0.02840042 C210.77156606 -0.04202776 213.85790789 -0.02497289 216.94580078 0 C217.84608977 -0.01115361 218.74637877 -0.02230722 219.67394924 -0.03379881 C224.13673076 0.03639699 225.91178315 0.19269488 229.52903748 3.04349709 C231.43455072 5.58379314 232.14038118 6.59122184 232.03540039 9.69741821 C231.47290039 13.63491821 231.47290039 13.63491821 230.03083801 15.84926605 C226.15416325 18.55550588 222.60729496 18.18810895 217.98339844 18.14285278 C216.52467709 18.15221273 216.52467709 18.15221273 215.03648663 18.16176176 C211.76895283 18.17775137 208.50215884 18.16506387 205.23461914 18.15249634 C202.895717 18.15791479 200.55681826 18.16503588 198.21792603 18.17373657 C191.85850823 18.19200566 185.49934936 18.18488745 179.13992691 18.17222023 C173.16601466 18.16313517 167.19212641 18.17006112 161.21821487 18.17592901 C148.66525302 18.18733796 136.11240798 18.17421622 123.55946529 18.15272754 C112.78608568 18.13485623 102.01287845 18.13796025 91.23950195 18.15640259 C78.73177787 18.1778038 66.22415619 18.18623929 53.71641636 18.17395353 C47.09430685 18.16762577 40.47229351 18.16690904 33.85018921 18.18009949 C27.62523927 18.19163216 21.40061572 18.18367919 15.17570114 18.16052246 C12.88755206 18.15522159 10.59937563 18.15677254 8.31123734 18.16557312 C5.19458489 18.17645747 2.07898706 18.16285047 -1.03759766 18.14285278 C-1.94926351 18.15177567 -2.86092936 18.16069856 -3.80022144 18.16989183 C-9.86942018 18.09403289 -9.86942018 18.09403289 -13.08503723 15.84926605 C-14.82016652 13.18490156 -15.04951249 10.8835254 -15.15600586 7.73257446 C-12.85401451 0.05450394 -6.74577291 -0.08357284 0 0 Z " fill="#000000" transform="translate(63.527099609375,273.3650817871094)"/>
<path d="M0 0 C1.20273919 -0.01064158 1.20273919 -0.01064158 2.42977613 -0.02149814 C5.11402769 -0.03908723 7.79683297 -0.02096952 10.48106384 -0.00291443 C12.40632792 -0.00805287 14.33158729 -0.01533358 16.25683594 -0.02459717 C21.48409129 -0.04312764 26.71083727 -0.03016257 31.93807149 -0.01050687 C37.40548765 0.0058649 42.87287118 -0.0029311 48.34030151 -0.00802612 C57.52109425 -0.01254834 66.70168332 0.00333171 75.88243103 0.03126526 C86.5020255 0.06332719 97.12125282 0.0632981 107.7408734 0.04605049 C117.95137459 0.03019713 128.16174097 0.03691069 138.37223625 0.0539875 C142.72027098 0.06086647 147.06819791 0.0598169 151.41623116 0.05244255 C156.53401061 0.04479185 161.65137123 0.05686615 166.76907921 0.08429146 C168.64924501 0.09118878 170.52944983 0.09125889 172.40961456 0.08407593 C174.9723585 0.07541205 177.53380069 0.09128422 180.09643555 0.11352539 C181.2177814 0.10116424 181.2177814 0.10116424 182.3617807 0.08855337 C185.78811842 0.14360233 187.65503026 0.37783567 190.41915035 2.47676182 C192.46273377 5.28507148 192.91394117 7.15973479 192.98472595 10.62818909 C191.61078865 13.50691486 190.23483158 15.37808346 187.98472595 17.62818909 C185.40062646 17.83225813 182.92279456 17.91063301 180.33694458 17.90234375 C179.13910866 17.91019877 179.13910866 17.91019877 177.91707402 17.91821247 C175.22627727 17.93328114 172.53566952 17.93391912 169.84483337 17.93458557 C167.92163774 17.94220251 165.99844516 17.9506292 164.07525635 17.95980835 C158.83966303 17.98180765 153.60412812 17.99055966 148.3684938 17.99563479 C145.09965234 17.99927231 141.83082633 18.00550923 138.56199074 18.01263618 C127.16407724 18.03715065 115.76620938 18.05018665 104.36827087 18.0537262 C93.73454605 18.05736185 83.10110981 18.08725431 72.46747321 18.12913078 C63.34640102 18.16379462 54.22542461 18.17927397 45.10428697 18.17997223 C39.652953 18.18076646 34.20191267 18.18957156 28.75064659 18.21796989 C23.6230504 18.24408318 18.49599266 18.24639342 13.36836052 18.23031425 C11.48536763 18.22849432 9.60234427 18.23523939 7.71941757 18.25113297 C5.15012242 18.27149924 2.58272789 18.26109863 0.01345825 18.24291992 C-1.10658788 18.26271987 -1.10658788 18.26271987 -2.2492612 18.28291982 C-6.14532412 18.21987759 -7.87335816 17.73930206 -10.97800732 15.30851841 C-13.01527405 12.62818909 -13.01527405 12.62818909 -13.64027405 9.12818909 C-12.25867152 1.39121492 -7.10103152 -0.11276283 0 0 Z " fill="#000000" transform="translate(197.01527404785156,183.37181091308594)"/>
<path d="M0 0 C1.12921875 0.03287109 1.12921875 0.03287109 2.28125 0.06640625 C3.0340625 0.06511719 3.786875 0.06382812 4.5625 0.0625 C7.73263828 0.87177826 8.79309681 2.02263517 10.78125 4.62890625 C11.17585126 7.51809681 11.32867446 10.0259838 11.29882812 12.9140625 C11.3058374 13.7470285 11.31284668 14.57999451 11.32006836 15.4382019 C11.33766319 18.18960986 11.32602059 20.93998796 11.3125 23.69140625 C11.31519449 25.60425005 11.31907656 27.51709253 11.32409668 29.42993164 C11.32999374 33.43812099 11.32142208 37.44595368 11.30273438 41.45410156 C11.27994472 46.59255867 11.29306669 51.73018012 11.31702423 56.86860657 C11.33147659 60.81830139 11.3268788 64.767798 11.31651306 68.71749878 C11.31384422 70.61213276 11.31712106 72.50678472 11.32643127 74.40139771 C11.33658765 77.04933353 11.32110924 79.69591509 11.29882812 82.34375 C11.30692505 83.12724823 11.31502197 83.91074646 11.32336426 84.71798706 C11.26892336 88.20925256 11.06463591 90.24402634 8.96765137 93.09204102 C5.9157385 95.23729159 3.47714441 95.49691002 -0.21875 95.62890625 C-3.61683026 94.52682617 -4.16606917 93.70792749 -6.21875 90.62890625 C-6.42352918 87.90742057 -6.51245651 85.28741912 -6.50927734 82.56494141 C-6.51599457 81.74348129 -6.52271179 80.92202118 -6.52963257 80.07566833 C-6.54865161 77.35637383 -6.55253877 74.63732565 -6.5546875 71.91796875 C-6.56111291 70.02851255 -6.56784107 68.13905736 -6.57485962 66.24960327 C-6.58684229 62.28682142 -6.59053945 58.32412682 -6.58935547 54.36132812 C-6.58915227 49.28465397 -6.61645116 44.20853956 -6.65089989 39.13199806 C-6.67314362 35.22862176 -6.67719378 31.32538067 -6.67613602 27.42194748 C-6.67849591 25.5504501 -6.68734126 23.67894921 -6.70280075 21.80751419 C-6.72240905 19.18849827 -6.71664329 16.57069584 -6.70458984 13.95166016 C-6.71582886 13.1795369 -6.72706787 12.40741364 -6.73864746 11.6118927 C-6.69534295 7.9068617 -6.33141791 5.80644451 -4.32705688 2.64804077 C-2.21875 0.62890625 -2.21875 0.62890625 0 0 Z " fill="#000000" transform="translate(362.21875,343.37109375)"/>
<path d="M0 0 C2.83677087 2.16543541 3.87636722 3.3309285 4.53125 6.875 C4.5209375 7.90625 4.510625 8.9375 4.5 10 C4.5103125 11.03125 4.520625 12.0625 4.53125 13.125 C3.87884317 16.65567227 2.79558161 17.81325649 0 20 C-3.6578382 21.16739517 -5.25861824 21.35384129 -8.75 19.6875 C-11 18 -11 18 -13 16 C-13.3359375 13.3203125 -13.3359375 13.3203125 -13.375 10.125 C-13.40335937 9.07570313 -13.43171875 8.02640625 -13.4609375 6.9453125 C-12.89704535 3.34213725 -11.80641659 2.24304672 -9 0 C-5.81452856 -1.59273572 -3.39809153 -0.76164121 0 0 Z " fill="#000000" transform="translate(369,455)"/>
<path d="M0 0 C1.57394531 -0.05607422 1.57394531 -0.05607422 3.1796875 -0.11328125 C6.82559887 0.41378021 7.91377982 1.42248665 10.125 4.3125 C11.125 7.75 11.125 7.75 11.125 11.3125 C9.35858828 14.11439446 8.09450178 15.82774911 5.125 17.3125 C0.35419511 17.82757805 -3.61536502 17.95517091 -7.9375 15.75 C-10.502235 12.5233979 -10.875 10.41486878 -10.875 6.3125 C-8.27093115 0.60834919 -6.01638492 0.13974488 0 0 Z " fill="#000000" transform="translate(386.875,48.6875)"/>
<path d="M0 0 C2.86328125 0.4453125 2.86328125 0.4453125 6.11328125 2.5078125 C8.33543481 6.23785597 8.62641724 8.17175094 7.86328125 12.4453125 C6.05078125 15.3828125 6.05078125 15.3828125 2.86328125 17.4453125 C-2.50019654 18.43437962 -6.65822197 18.37299675 -11.32421875 15.4453125 C-13.84214881 11.27770412 -13.82603503 9.27052649 -13.13671875 4.4453125 C-9.409534 -0.50676865 -5.83104728 -0.21359148 0 0 Z " fill="#000000" transform="translate(316.13671875,48.5546875)"/>
<path d="M0 0 C2.8984375 0.4140625 2.8984375 0.4140625 6.1484375 2.5390625 C8.19675826 5.90416089 8.47503002 7.54265557 7.8984375 11.4140625 C7.03446679 14.00597463 6.46187892 15.06828609 4.12890625 16.5 C0.14555692 18.13240585 -3.87856392 17.96756231 -8.1015625 17.4140625 C-11.41811522 15.58657427 -12.68607964 14.49431795 -14.0390625 10.9765625 C-14.12971894 7.25964845 -13.10663505 4.75632068 -10.890625 1.796875 C-7.64082694 -0.71497765 -3.9493359 -0.10518812 0 0 Z " fill="#000000" transform="translate(353.1015625,48.5859375)"/>
</svg>
