<?xml version="1.0" encoding="UTF-8"?>
<svg version="1.1" xmlns="http://www.w3.org/2000/svg" width="512" height="512">
<path d="M0 0 C1.5768457 -0.01836914 1.5768457 -0.01836914 3.18554688 -0.03710938 C10.34623109 -0.05047717 17.25546377 0.26040779 23.8125 3.375 C27.12751485 7.38064295 26.43351611 13.22583954 26.3125 18.1875 C29.26926386 18.51146413 29.26926386 18.51146413 30.85546875 16.875 C31.39816406 16.318125 31.94085938 15.76125 32.5 15.1875 C35.26930296 12.76580829 36.37541194 12.17306119 40.125 11.3125 C48.80425448 12.0175845 56.81445183 22.0721775 62.3125 28.1875 C62.6425 28.8475 62.9725 29.5075 63.3125 30.1875 C64.5331805 30.18988835 65.75386101 30.19227671 67.01153183 30.19473743 C96.02149939 30.25216097 125.03139999 30.32493665 154.04127865 30.41648628 C157.61589766 30.42775375 161.19051706 30.43889232 164.76513672 30.44995117 C165.47674592 30.45215486 166.18835513 30.45435854 166.92152825 30.456629 C178.4270605 30.49195185 189.93259268 30.51684423 201.43815896 30.53784702 C213.25366979 30.55964909 225.06911058 30.59274115 236.88456178 30.63620156 C243.51701704 30.6602766 250.14941417 30.67885508 256.78191376 30.68511391 C263.02978717 30.69117458 269.27746274 30.71121041 275.52526283 30.74177551 C277.81326484 30.75053991 280.10129273 30.75428165 282.38931084 30.75250816 C300.08890387 30.74312396 316.7848199 31.41716488 330.43359375 44.18359375 C341.5373539 56.0260656 344.46560621 68.83423127 344.45294189 84.61001587 C344.45739858 86.34459881 344.45739858 86.34459881 344.4619453 88.11422384 C344.46910831 91.31555596 344.47180327 94.51685533 344.47254276 97.71819425 C344.47439833 101.17438939 344.48194821 104.63057302 344.48867798 108.08676147 C344.50224181 115.6406884 344.50828306 123.19461 344.51268864 130.74854708 C344.51545453 135.4687629 344.51969253 140.18897669 344.52419281 144.90919113 C344.53638325 157.9879754 344.5466828 171.06675804 344.5500679 184.14554787 C344.55028747 184.98211999 344.55050703 185.81869212 344.55073325 186.68061491 C344.55095153 187.51914603 344.55116981 188.35767714 344.5513947 189.22161829 C344.55183816 190.92069475 344.55228472 192.6197712 344.55273438 194.31884766 C344.5529558 195.16164152 344.55317723 196.00443538 344.55340537 196.87276845 C344.55735135 210.52160879 344.57480025 224.17039567 344.5980939 237.81921537 C344.62183719 251.84517931 344.63427112 265.87111646 344.63543582 279.89710081 C344.63635094 287.76692643 344.64206206 295.63668241 344.66025543 303.5064888 C344.67569671 310.20927924 344.68075324 316.9119785 344.67251733 323.61478336 C344.66862493 327.03097992 344.66947079 330.44699311 344.68357468 333.86316681 C344.69631492 337.57662827 344.69040547 341.28962362 344.67999268 345.00308228 C344.69207728 346.60205603 344.69207728 346.60205603 344.70440602 348.23333228 C344.60735054 363.10094478 340.18382613 376.00698438 329.89453125 386.859375 C317.29418702 398.22065361 303.27318261 399.64077085 287.09106445 399.52807617 C285.37517817 399.52722849 283.6592908 399.52770779 281.94340515 399.52940369 C277.31600798 399.53025957 272.68884716 399.51270024 268.0615046 399.49168181 C263.21420781 399.47284666 258.36690477 399.4711592 253.51957703 399.46760559 C244.35423913 399.45830514 235.18900941 399.43371857 226.02371901 399.40355712 C215.58353273 399.36995067 205.14334111 399.35351143 194.70311415 399.33847082 C173.23951588 399.30716713 151.77601477 399.25444575 130.3125 399.1875 C130.24791316 402.7518861 130.27222178 406.31037762 130.3125 409.875 C130.29316406 410.88240234 130.27382813 411.88980469 130.25390625 412.92773438 C130.24781507 418.44948879 130.24781507 418.44948879 133.02200317 422.96205139 C137.42076641 425.77320221 142.17231681 427.29967739 147.1875 428.625 C158.20671778 431.82738429 168.10465783 436.94277626 174.0390625 447.16015625 C177.40044119 453.71564124 179.44971066 458.80689602 179.625 466.1875 C179.66238281 467.21875 179.69976562 468.25 179.73828125 469.3125 C179.20977696 472.88111615 178.0843702 473.96588975 175.3125 476.1875 C172.52798289 477.57975856 170.25536586 477.31667371 167.13858032 477.32121277 C165.82058945 477.32547775 164.50259857 477.32974274 163.14466858 477.33413696 C161.67538449 477.33378742 160.20610043 477.33332587 158.73681641 477.33276367 C157.19623228 477.33575439 155.65564891 477.33915672 154.11506653 477.34294128 C149.92289733 477.35179482 145.73074852 477.35411998 141.53857088 477.35475707 C138.04198851 477.35570523 134.54541092 477.35938249 131.04883039 477.36292917 C122.80045479 477.37107903 114.5520901 477.37351293 106.30371094 477.37280273 C97.78884423 477.37220194 89.27404087 477.38275292 80.7591902 477.3985464 C73.45468618 477.41161322 66.15020289 477.41698699 58.84568727 477.41634732 C54.48045208 477.41609206 50.11527316 477.41895859 45.75004959 477.42952538 C41.64445447 477.43919183 37.53896955 477.43929555 33.43337059 477.43200874 C31.92569379 477.43096106 30.41801018 477.43333667 28.91034508 477.4393692 C26.85356197 477.44706636 24.79716161 477.4424597 22.74038696 477.43473816 C21.58889978 477.43528293 20.43741261 477.43582769 19.25103188 477.43638897 C16.33161913 477.18911936 14.71699575 476.82288196 12.3125 475.1875 C9.08704667 470.34932001 9.78927444 465.2650176 10.7421875 459.66015625 C13.55065553 448.68632749 20.82061252 440.3010105 30.03515625 434.01171875 C35.13333994 431.10967572 40.7926634 429.96508798 46.50195312 428.8449707 C51.312953 427.80207991 55.4437932 426.31140935 58.3125 422.1875 C59.19339837 418.25254119 59.19732338 414.39521835 59.1875 410.375 C59.2184375 408.76334961 59.2184375 408.76334961 59.25 407.11914062 C59.29701611 404.47448446 59.3169491 401.8324879 59.3125 399.1875 C58.43288762 399.19118717 57.55327524 399.19487434 56.64700794 399.19867325 C35.20366327 399.28716805 13.76035026 399.35327945 -7.68313885 399.39474869 C-18.05323042 399.41533804 -28.42319978 399.44338906 -38.79321289 399.48925781 C-47.83602557 399.52923687 -56.87874971 399.55495915 -65.92164832 399.56385398 C-70.70591532 399.56905003 -75.48992909 399.58118644 -80.27411461 399.61042023 C-84.78605329 399.63776457 -89.29763674 399.64590695 -93.80965042 399.63993073 C-95.45708083 399.64102252 -97.10452432 399.64886241 -98.75188255 399.6643219 C-114.42415444 399.80406339 -127.96708245 396.96287696 -139.9375 386.15625 C-151.15850657 374.42519768 -154.00396705 361.0205528 -153.94819641 345.32192993 C-153.95202196 344.16620715 -153.95584751 343.01048438 -153.95978898 341.8197397 C-153.97006355 337.96783286 -153.96613734 334.11607664 -153.9621582 330.26416016 C-153.9654161 327.49400912 -153.97162766 324.72386632 -153.97764587 321.95372009 C-153.99036201 315.22264094 -153.99219044 308.49160174 -153.98984561 301.76051261 C-153.98805887 296.28649787 -153.98981971 290.8124952 -153.99407005 285.3384819 C-153.99466524 284.55787425 -153.99526043 283.77726659 -153.99587366 282.97300415 C-153.99708547 281.38693727 -153.99829961 279.80087038 -153.99951603 278.2148035 C-154.01037963 263.35774081 -154.00823464 248.50070084 -154.00213119 233.64363687 C-153.99696279 220.06941192 -154.00821752 206.49525875 -154.02722941 192.921048 C-154.04662846 178.96275351 -154.0548602 165.00449295 -154.05110615 151.0461849 C-154.04919728 143.21778397 -154.05165101 135.38944412 -154.06582069 127.56105423 C-154.07776184 120.89678161 -154.07910883 114.23260769 -154.06703053 107.56833364 C-154.06116094 104.17232529 -154.06163079 100.77664432 -154.07203293 97.38062477 C-154.08252193 93.68926341 -154.07438176 89.99838181 -154.0617218 86.30703735 C-154.06909609 85.24767428 -154.07647037 84.18831121 -154.08406812 83.09684622 C-153.97744017 68.24867593 -149.54413532 55.35252084 -139.26953125 44.515625 C-128.41342885 34.72706671 -116.11297299 31.66224769 -101.84375 32.09765625 C-99.60549308 32.11922884 -97.36720798 32.13802491 -95.12890625 32.15429688 C-91.6517092 32.19334719 -88.17850866 32.25027149 -84.70263672 32.35522461 C-71.05018173 33.38811996 -71.05018173 33.38811996 -58.84667969 28.60961914 C-56.02447442 25.76848987 -53.93557217 22.49283384 -51.6875 19.1875 C-40.97151707 9.75045898 -40.97151707 9.75045898 -33.6875 10.1875 C-29.50556424 11.97975818 -26.86921318 15.00578682 -23.6875 18.1875 C-23.0275 18.1875 -22.3675 18.1875 -21.6875 18.1875 C-21.67332031 17.37925781 -21.65914062 16.57101563 -21.64453125 15.73828125 C-21.2530527 6.96704561 -21.2530527 6.96704561 -18.375 3 C-12.75236294 -0.79201104 -6.56293841 0.0039512 0 0 Z M-3.6875 16.1875 C-3.92533203 17.16589844 -3.92533203 17.16589844 -4.16796875 18.1640625 C-5.73830633 24.0463215 -7.1992965 28.00531038 -11.6875 32.1875 C-16.48827179 34.85459544 -20.22611218 35.84663301 -25.6875 35.1875 C-28.08825044 34.29625151 -30.3706257 33.28261876 -32.671875 32.16015625 C-34.8083051 31.07639915 -34.8083051 31.07639915 -37.6875 30.1875 C-39.79455206 31.54624744 -39.79455206 31.54624744 -41.8125 33.5 C-42.51632813 34.13550781 -43.22015625 34.77101563 -43.9453125 35.42578125 C-45.76487521 37.08313805 -45.76487521 37.08313805 -46.6875 39.1875 C-45.70473341 40.95647986 -44.71663209 42.72316139 -43.6796875 44.4609375 C-41.33108346 48.54787839 -41.3666975 52.53586375 -41.6875 57.1875 C-43.71668819 62.63426829 -46.64969683 65.3648181 -51.5625 68.3125 C-53.6875 69.1875 -53.6875 69.1875 -57.375 70.125 C-58.468125 70.475625 -59.56125 70.82625 -60.6875 71.1875 C-61.69246852 74.20240557 -61.79085303 76.22931692 -61.75 79.375 C-61.74097656 80.27605469 -61.73195313 81.17710938 -61.72265625 82.10546875 C-61.71105469 82.79253906 -61.69945313 83.47960937 -61.6875 84.1875 C-61.10742188 84.28546875 -60.52734375 84.3834375 -59.9296875 84.484375 C-53.07930268 85.79566978 -48.61702237 87.59787787 -44.3125 93.375 C-42.17511311 97.61369975 -41.75936759 101.53929217 -42.6875 106.1875 C-43.90609174 108.88666087 -45.24949547 111.39649256 -46.7890625 113.92578125 C-47.94379456 116.13981299 -47.94379456 116.13981299 -47.03125 118.27734375 C-45.67142775 120.2103469 -44.26935247 121.80485851 -42.5625 123.4375 C-41.61375 124.345 -40.665 125.2525 -39.6875 126.1875 C-36.20229475 124.84052832 -36.20229475 124.84052832 -32.8828125 123.140625 C-28.41841054 121.20234372 -23.4441731 121.68377725 -18.6875 122.1875 C-13.49751482 124.50445767 -10.84358564 128.01496762 -8.6875 133.1875 C-7.86763106 135.8474157 -7.26210055 138.45814739 -6.6875 141.1875 C-2.3975 141.1875 1.8925 141.1875 6.3125 141.1875 C6.704375 139.475625 7.09625 137.76375 7.5 136 C9.29060444 129.51218205 11.68833898 126.73112413 17.5 123.3125 C22.3945113 121.86821798 26.37247074 121.93820334 31.3125 123.1875 C33.3465906 124.46822371 35.35652816 125.79037726 37.3125 127.1875 C41.52016314 127.31898947 44.39831574 123.90740531 47.3125 121.1875 C48.63285517 118.37532581 48.63285517 118.37532581 47.53515625 116.53125 C47.15230469 115.9228125 46.76945312 115.314375 46.375 114.6875 C43.3952237 109.04980477 43.19700683 103.19145561 44.90234375 97.0703125 C47.06949981 92.41641976 50.39064257 90.74585196 54.8984375 88.9140625 C57.3125 88.1875 57.3125 88.1875 63.3125 87.1875 C63.3125 82.5675 63.3125 77.9475 63.3125 73.1875 C61.806875 72.81625 60.30125 72.445 58.75 72.0625 C53.57940983 70.47831918 49.60829146 68.58188861 46.3125 64.1875 C44.04698054 59.11123233 43.92062094 54.39411693 45.53125 49.1171875 C46.82247419 45.92786374 48.48960128 43.10413795 50.3125 40.1875 C47.3425 37.2175 44.3725 34.2475 41.3125 31.1875 C39.9925 31.826875 38.6725 32.46625 37.3125 33.125 C31.42640099 35.70419831 26.39577653 37.11115692 20.0625 35.0625 C16.33001461 33.41173347 14.35721121 31.82254215 12.3125 28.1875 C11.43800517 25.31357332 10.68919546 22.44496001 10.0234375 19.515625 C9.78882813 18.74734375 9.55421875 17.9790625 9.3125 17.1875 C6.66791621 15.86520811 4.63488699 16.09072806 1.6875 16.125 C0.18316406 16.13853516 0.18316406 16.13853516 -1.3515625 16.15234375 C-2.50785156 16.16974609 -2.50785156 16.16974609 -3.6875 16.1875 Z M-129.40234375 59.07421875 C-135.93745576 67.20715766 -137.13183183 74.73301777 -137.07518005 84.90194702 C-137.08056559 86.06553918 -137.08595113 87.22913135 -137.09149987 88.42798388 C-137.10329214 91.64016213 -137.10172655 94.85200561 -137.09433305 98.06418657 C-137.08959046 101.5353232 -137.10212088 105.00640494 -137.11235046 108.4775238 C-137.1295228 115.27105385 -137.1303817 122.06449134 -137.12513756 128.85803746 C-137.12109152 134.38170273 -137.12254457 139.9053407 -137.12788582 145.42900467 C-137.12863424 146.21601147 -137.12938266 147.00301828 -137.13015376 147.81387378 C-137.13168529 149.4128292 -137.13322364 151.01178461 -137.13476873 152.61074002 C-137.14848824 167.59650505 -137.14306007 182.58221784 -137.13158352 197.56798168 C-137.12165287 211.26657223 -137.13458986 224.96502768 -137.15851771 238.66359739 C-137.18292238 252.74160749 -137.19251315 266.81955469 -137.18586498 280.89758551 C-137.18237565 288.79639148 -137.18458585 296.69509358 -137.20211601 304.59388351 C-137.21685516 311.31830992 -137.21745121 318.04255931 -137.2000451 324.7669823 C-137.19154649 328.1951387 -137.18935714 331.62297913 -137.20469666 335.05111885 C-137.21789733 338.7740717 -137.20636541 342.49616942 -137.18870544 346.21908569 C-137.19831045 347.29342059 -137.20791546 348.36775548 -137.21781152 349.47464597 C-137.11628908 359.89910818 -134.02756287 367.72781303 -126.82421875 375.27734375 C-116.92864438 384.12366161 -103.76096175 383.4801647 -91.27262878 383.44819641 C-89.59874292 383.45121949 -87.92485844 383.45510975 -86.25097638 383.45978898 C-81.665415 383.47005767 -77.07993191 383.46789002 -72.49436414 383.46360838 C-67.54331775 383.4611391 -62.59229011 383.47015786 -57.64125061 383.47764587 C-47.94688875 383.49038945 -38.2525546 383.49218697 -28.55818578 383.48984561 C-20.67711148 383.48806185 -12.79604559 383.48981335 -4.91497231 383.49407005 C-3.79285973 383.49466524 -2.67074715 383.49526043 -1.51463116 383.49587366 C0.76502826 383.49708542 3.04468768 383.49829956 5.3243471 383.49951603 C26.69909988 383.51039034 48.07383687 383.50822964 69.44859054 383.50213119 C88.99470749 383.49696261 108.54077459 383.50821611 128.08688167 383.52722941 C148.1652896 383.54661049 168.24367394 383.5548633 188.32209128 383.55110615 C199.59117154 383.54919446 210.86020938 383.55167856 222.129282 383.56582069 C231.72322302 383.57773892 241.31709551 383.57913442 250.91103748 383.56703053 C255.80364999 383.56114487 260.69613717 383.56003379 265.5887413 383.57203293 C270.07266503 383.58290175 274.55635894 383.57977646 279.04027196 383.56577124 C280.65729851 383.56312707 282.27434312 383.56548203 283.89135192 383.57350711 C295.3587509 383.62644218 307.3522711 383.67623223 316.56640625 375.91796875 C324.26177506 368.2914623 327.62775065 360.52014059 327.71839231 349.71595967 C327.70937724 348.09192874 327.70937724 348.09192874 327.70018005 346.43508911 C327.70556559 345.2674134 327.71095113 344.09973768 327.71649987 342.89667785 C327.72829251 339.67309843 327.72672637 336.44985256 327.71933305 333.22627044 C327.7145906 329.74286384 327.72712076 326.25951194 327.73735046 322.77612305 C327.75452307 315.95852962 327.75538164 309.14102842 327.75013756 302.32341899 C327.74609157 296.7802076 327.74754451 291.23702342 327.75288582 285.69381332 C327.75363424 284.90403116 327.75438266 284.11424899 327.75515376 283.30053403 C327.75668529 281.69594161 327.75822363 280.0913492 327.75976873 278.48675679 C327.77348834 263.44805669 327.76806 248.40940866 327.75658352 233.37070976 C327.74665285 219.62362044 327.75958987 205.87666576 327.78351771 192.1295972 C327.80792216 178.00186661 327.81751321 163.87419869 327.81086498 149.74644744 C327.8073756 141.81969594 327.80958616 133.89304794 327.82711601 125.96631241 C327.84185489 119.21809765 327.84245157 112.47005927 327.8250451 105.72184791 C327.81654627 102.2815403 327.81435769 98.84154756 327.82969666 95.40125656 C327.84289675 91.66516755 327.83136591 87.92993073 327.81370544 84.19387817 C327.82331045 83.11565233 327.83291546 82.03742649 327.84281152 80.92652714 C327.74743278 71.09905583 325.10816384 63.18035116 318.3125 55.9453125 C312.76567567 51.07017393 306.54962909 48.07747223 299.13575172 48.0476923 C298.30592297 48.04200106 297.47609422 48.03630982 296.62111914 48.03044611 C295.26150315 48.0286763 295.26150315 48.0286763 293.87442017 48.02687073 C292.90743395 48.02178291 291.94044774 48.01669509 290.94415891 48.01145309 C287.69535867 47.99572362 284.44658068 47.98720232 281.19775391 47.97875977 C278.87195189 47.96922198 276.5461513 47.95933085 274.22035217 47.94911194 C266.57660608 47.91772769 258.93284909 47.89746492 251.2890625 47.87890625 C249.98931346 47.87560893 248.68956443 47.87231161 247.35042906 47.86891437 C235.09761554 47.83814158 222.84480014 47.81126845 210.591959 47.79449558 C207.75564185 47.79054619 204.91932479 47.78654317 202.08300781 47.7824707 C201.37806798 47.78146234 200.67312815 47.78045398 199.9468265 47.77941506 C188.52144139 47.76239972 177.09627252 47.72127776 165.67099304 47.67044771 C153.93904935 47.61868268 142.20721695 47.5895552 130.47516 47.5822987 C123.88862616 47.57733537 117.30247717 47.56218813 110.71605301 47.5225544 C104.52223445 47.48577297 98.32902194 47.47725085 92.13511467 47.49056053 C89.86067598 47.49050645 87.58621099 47.48015566 85.31187248 47.4588089 C82.20869374 47.43123693 79.10774226 47.44058789 76.00454712 47.45924377 C74.65162329 47.43405138 74.65162329 47.43405138 73.27136767 47.40835005 C68.70074374 47.47711371 66.07690077 47.87729844 62.70674706 51.10801601 C60.10790143 53.80053445 60.10790143 53.80053445 60.3125 56.1875 C62.97248695 57.51749347 65.28619191 57.4863203 68.25 57.6875 C71.54294938 57.9115646 74.17413082 58.14137694 77.3125 59.1875 C78.3025 64.6325 78.3025 64.6325 79.3125 70.1875 C80.44778767 70.18896656 81.58307533 70.19043312 82.75276566 70.19194412 C110.35182362 70.22850724 137.95075994 70.28791486 165.54971695 70.37140274 C178.8962693 70.41124535 192.24275107 70.44361129 205.58935547 70.45849609 C217.21959258 70.47148556 228.84969926 70.49838087 240.47986293 70.54211307 C246.64037416 70.56478876 252.80072415 70.58040702 258.96128082 70.57938385 C264.75612052 70.57864085 270.55060295 70.59644663 276.34535027 70.62866783 C278.4754543 70.63720804 280.60559822 70.63888903 282.73571205 70.63330269 C285.63805252 70.62670324 288.53924272 70.64448591 291.44146729 70.66851807 C292.28971549 70.66075765 293.1379637 70.65299723 294.0119164 70.64500165 C297.33981543 70.6939817 299.87442293 70.95526932 302.83519363 72.52481461 C305.27340574 76.91942896 304.86128675 81.36950553 304.82043457 86.30944824 C304.82979451 88.03155872 304.82979451 88.03155872 304.83934355 89.7884593 C304.85255205 92.97574925 304.84777956 96.16243147 304.83539867 99.34970641 C304.82636074 102.78672406 304.84031162 106.22365858 304.85131836 109.66065979 C304.86912172 116.39393443 304.86525559 123.12703091 304.8536678 129.86031258 C304.84464086 135.33168955 304.84340626 140.80301653 304.84776306 146.2743988 C304.84837599 147.05257846 304.84898893 147.83075812 304.84962043 148.63251898 C304.85089931 150.21328693 304.85219616 151.79405487 304.8535108 153.3748228 C304.86492191 168.20398798 304.85179458 183.03305432 304.83030933 197.8622033 C304.81243785 210.59129051 304.81554181 223.32023183 304.83398438 236.04931641 C304.85538173 250.82475771 304.86382323 265.60011233 304.85153532 280.37556696 C304.8502611 281.95057836 304.84900362 283.52558977 304.84776306 285.1006012 C304.84683741 286.26305947 304.84683741 286.26305947 304.84589306 287.44900176 C304.84243674 292.91495114 304.84827454 298.38084562 304.85768127 303.8467865 C304.86889007 310.5063473 304.86588498 317.16571947 304.8445583 323.82525861 C304.83403258 327.22428482 304.82995149 330.62299633 304.84315491 334.02202034 C304.85402909 337.70351489 304.84044376 341.38411476 304.82043457 345.06555176 C304.8338189 346.6840167 304.8338189 346.6840167 304.84747362 348.3351779 C304.83182714 349.81167523 304.83182714 349.81167523 304.81586456 351.31800079 C304.81521515 352.16792492 304.81456574 353.01784905 304.81389666 353.89352846 C304.10685354 357.12836611 302.98921125 358.26028833 300.3125 360.1875 C297.19137669 360.68889666 297.19137669 360.68889666 293.42835999 360.69086456 C292.73270978 360.69667833 292.03705958 360.70249209 291.32032907 360.70848203 C288.97760857 360.72313825 286.63592662 360.70917158 284.29321289 360.69543457 C282.60143782 360.70004129 280.90966675 360.70639266 279.21790409 360.71434355 C274.55991035 360.73109157 269.90224306 360.72276575 265.24424791 360.71039867 C260.22440371 360.70137282 255.20461685 360.71530563 250.18478394 360.72631836 C240.34733996 360.74413457 230.51001785 360.7402498 220.67256904 360.7286678 C212.67974326 360.71964593 204.68695172 360.71840406 196.69412231 360.72276306 C195.55792106 360.72337599 194.4217198 360.72398893 193.2510882 360.72462043 C190.94314725 360.72589929 188.63520631 360.72719614 186.32726538 360.7285108 C164.66948138 360.73992568 143.01176502 360.72678864 121.3539921 360.70530933 C102.75777074 360.68743754 84.16164925 360.69054139 65.56542969 360.70898438 C43.98683114 360.73037504 22.40829193 360.73882696 0.82968426 360.72653532 C-1.46991792 360.72526108 -3.76952011 360.7240036 -6.06912231 360.72276306 C-7.76643593 360.72183741 -7.76643593 360.72183741 -9.49803871 360.72089306 C-17.48421107 360.71743474 -25.4703459 360.72327886 -33.45651245 360.73268127 C-43.18477686 360.74388261 -52.91291213 360.74090056 -62.64116168 360.7195583 C-67.60771086 360.70902273 -72.57404446 360.70496861 -77.54059219 360.71815491 C-82.08296476 360.73003289 -86.62492098 360.72359261 -91.16725552 360.7022447 C-92.81456753 360.69775905 -94.46191438 360.70008861 -96.10920417 360.70974785 C-98.34109617 360.72183588 -100.57154458 360.70951653 -102.80335999 360.69086456 C-104.0451555 360.69021515 -105.28695101 360.68956574 -106.56637669 360.68889666 C-109.6875 360.1875 -109.6875 360.1875 -112.08629847 358.46038342 C-113.95058948 355.81404813 -114.18841298 354.52654534 -114.19086456 351.31800079 C-114.20129555 350.33366924 -114.21172654 349.34933768 -114.22247362 348.3351779 C-114.21355073 347.25620127 -114.20462785 346.17722465 -114.19543457 345.06555176 C-114.20167453 343.91747811 -114.2079145 342.76940446 -114.21434355 341.5865407 C-114.22755205 338.39925075 -114.22277956 335.21256853 -114.21039867 332.02529359 C-114.20136074 328.58827594 -114.21531162 325.15134142 -114.22631836 321.71434021 C-114.24412172 314.98106557 -114.24025559 308.24796909 -114.2286678 301.51468742 C-114.21964086 296.04331045 -114.21840626 290.57198347 -114.22276306 285.1006012 C-114.22337599 284.32242154 -114.22398893 283.54424188 -114.22462043 282.74248102 C-114.22589931 281.16171307 -114.22719616 279.58094513 -114.2285108 278.0001772 C-114.23992191 263.17101202 -114.22679458 248.34194568 -114.20530933 233.5127967 C-114.18743785 220.78370949 -114.19054181 208.05476817 -114.20898438 195.32568359 C-114.23038173 180.55024229 -114.23882323 165.77488767 -114.22653532 150.99943304 C-114.2252611 149.42442164 -114.22400362 147.84941023 -114.22276306 146.2743988 C-114.22214596 145.49942662 -114.22152886 144.72445443 -114.22089306 143.92599824 C-114.21743674 138.46004886 -114.22327454 132.99415438 -114.23268127 127.5282135 C-114.24389007 120.8686527 -114.24088498 114.20928053 -114.2195583 107.54974139 C-114.20903258 104.15071518 -114.20495149 100.75200367 -114.21815491 97.35297966 C-114.22902909 93.67148511 -114.21544376 89.99088524 -114.19543457 86.30944824 C-114.2088189 84.6909833 -114.2088189 84.6909833 -114.22247362 83.0398221 C-114.14637293 75.85849784 -114.14637293 75.85849784 -111.86772919 72.52649689 C-108.6632798 70.55847087 -106.03525535 70.63746437 -102.296875 70.578125 C-101.59226135 70.56158875 -100.88764771 70.54505249 -100.16168213 70.52801514 C-97.92019898 70.47958861 -95.67939387 70.45817813 -93.4375 70.4375 C-91.91402849 70.40933552 -90.39058848 70.37940741 -88.8671875 70.34765625 C-85.14077244 70.27383407 -81.4144862 70.22422531 -77.6875 70.1875 C-77.50574219 69.35605469 -77.32398438 68.52460937 -77.13671875 67.66796875 C-76.75966797 66.03794922 -76.75966797 66.03794922 -76.375 64.375 C-76.13136719 63.29605469 -75.88773438 62.21710938 -75.63671875 61.10546875 C-74.69574387 58.21284228 -74.12837608 56.94068382 -71.6875 55.1875 C-68.5859375 54.74609375 -68.5859375 54.74609375 -65.0625 54.625 C-62.93391332 54.5474687 -60.80499866 54.41791652 -58.6875 54.1875 C-58.3575 53.5275 -58.0275 52.8675 -57.6875 52.1875 C-59.55506617 49.07738722 -59.55506617 49.07738722 -62.7518158 47.68629456 C-63.93995628 47.6860453 -63.93995628 47.6860453 -65.15209961 47.68579102 C-66.50512428 47.67171959 -66.50512428 47.67171959 -67.88548279 47.65736389 C-68.86042191 47.66859787 -69.83536102 47.67983185 -70.83984375 47.69140625 C-71.85035294 47.68995102 -72.86086212 47.68849579 -73.9019928 47.68699646 C-76.04642611 47.6886582 -78.19087101 47.70024999 -80.33520508 47.72094727 C-83.58142329 47.74961517 -86.82597835 47.74161845 -90.07226562 47.72851562 C-111.81566268 47.54546731 -111.81566268 47.54546731 -129.40234375 59.07421875 Z M-97.6875 86.1875 C-97.6875 171.6575 -97.6875 257.1275 -97.6875 345.1875 C29.6925 345.1875 157.0725 345.1875 288.3125 345.1875 C288.3125 259.7175 288.3125 174.2475 288.3125 86.1875 C219.3425 86.1875 150.3725 86.1875 79.3125 86.1875 C78.3225 90.8075 77.3325 95.4275 76.3125 100.1875 C73.03451932 103.46548068 68.75003585 102.64601611 64.28125 102.84375 C61.19643229 102.88951329 61.19643229 102.88951329 59.3125 105.1875 C59.80621094 105.69539063 60.29992187 106.20328125 60.80859375 106.7265625 C63.68600072 109.81818287 65.99465775 112.30460486 67.4375 116.3125 C67.05656582 125.0739861 58.81911178 131.82274144 52.8984375 137.50390625 C43.72473453 145.833874 43.72473453 145.833874 38.328125 146.625 C34.52135865 146.07272302 32.92493078 144.71627321 30.0625 142.1875 C27.09224044 139.1847959 27.09224044 139.1847959 23.3125 138.1875 C22.12814893 140.55620215 22.27347798 141.87366938 22.375 144.5 C22.40657422 151.04638867 22.40657422 151.04638867 20.3125 154.1875 C7.69387372 160.19636966 -8.68979079 156.89942805 -21.6875 154.1875 C-23.12685886 149.86942341 -23.07375262 145.55037512 -23.30859375 141.0234375 C-23.43363281 140.08757812 -23.55867188 139.15171875 -23.6875 138.1875 C-24.3475 137.8575 -25.0075 137.5275 -25.6875 137.1875 C-26.1721875 137.6928125 -26.656875 138.198125 -27.15625 138.71875 C-30.54145343 141.99979332 -32.85556904 143.98292681 -37.5 145.125 C-46.51566001 144.223434 -54.20955719 135.17583772 -59.734375 128.70703125 C-63.27622331 124.13804693 -66.46711549 119.94230637 -66.9375 114.0625 C-65.35507319 110.42291835 -63.09524348 108.43196388 -60.0859375 105.8984375 C-59.62445313 105.33382812 -59.16296875 104.76921875 -58.6875 104.1875 C-58.88092015 102.00376977 -58.88092015 102.00376977 -59.6875 100.1875 C-60.59113281 100.16171875 -61.49476562 100.1359375 -62.42578125 100.109375 C-63.60527344 100.05265625 -64.78476563 99.9959375 -66 99.9375 C-67.17175781 99.89109375 -68.34351563 99.8446875 -69.55078125 99.796875 C-72.6875 99.1875 -72.6875 99.1875 -74.48046875 97.703125 C-75.6875 95.1875 -75.6875 95.1875 -77.6875 86.1875 C-84.2875 86.1875 -90.8875 86.1875 -97.6875 86.1875 Z M75.3125 399.1875 C75.29990086 408.65545601 75.29990086 408.65545601 75.375 418.12280273 C75.26159591 424.69713921 74.99417496 429.33573865 70.60546875 434.44921875 C63.92564283 440.74472796 56.4968291 443.88614048 47.5625 445.6875 C39.4769187 447.33366625 33.91542831 451.28310753 29.3125 458.1875 C29.3125 458.8475 29.3125 459.5075 29.3125 460.1875 C72.8725 460.1875 116.4325 460.1875 161.3125 460.1875 C158.83898481 454.00371202 155.92621668 449.90191443 149.79296875 446.9921875 C146.98693148 445.9725402 144.16656176 445.06330899 141.3125 444.1875 C135.11306282 442.12945555 129.4939833 440.01684288 124.06640625 436.3359375 C122.29658217 435.12018025 122.29658217 435.12018025 120.1640625 434.16796875 C117.79674666 432.91439011 117.32861447 431.6105422 116.3125 429.1875 C115.9825 428.8575 115.6525 428.5275 115.3125 428.1875 C115.15391158 426.04363343 115.06120702 423.89483162 114.99609375 421.74609375 C114.95798584 420.57103271 114.91987793 419.39597168 114.88061523 418.18530273 C114.81596069 415.92795288 114.81596069 415.92795288 114.75 413.625 C114.5334375 406.4784375 114.5334375 406.4784375 114.3125 399.1875 C101.4425 399.1875 88.5725 399.1875 75.3125 399.1875 Z " fill="#000000" transform="translate(160.6875,17.8125)"/>
<path d="M0 0 C6.75933458 5.64109902 11.59359298 12.30800148 13.26953125 21.08203125 C14.22043801 32.44614645 12.33440996 42.30235801 5.0390625 51.296875 C-1.34446906 57.73677329 -8.68652249 61.26909489 -17.79492188 61.46289062 C-29.33714239 61.43194633 -37.16248622 59.49319035 -45.75390625 51.28125 C-51.9443118 44.39350628 -54.65748575 36.53190415 -54.76171875 27.3203125 C-54.22395554 17.68090705 -50.55987525 8.99880755 -43.73046875 2.08203125 C-30.67387893 -7.65106298 -13.7367897 -9.64916129 0 0 Z M-32.48046875 14.83203125 C-36.24919738 18.60075988 -37.86132957 22.80783735 -38.16796875 28.08203125 C-37.93922779 33.22373016 -35.8160671 36.97465119 -32.234375 40.59375 C-27.96604756 44.30857862 -24.58069335 45.45956295 -18.91796875 45.35546875 C-13.47020192 44.6744979 -9.1936901 42.10247731 -5.79296875 37.83203125 C-2.98704308 33.37108501 -2.16786897 29.19391129 -3.10546875 24.0078125 C-4.7825806 18.50478923 -7.94844482 15.17508502 -12.73046875 12.08203125 C-20.36374965 8.78924341 -25.64146929 10.47994068 -32.48046875 14.83203125 Z " fill="#000000" transform="translate(181.73046875,68.91796875)"/>
<path d="M0 0 C1.61086487 -0.00639748 1.61086487 -0.00639748 3.25427246 -0.01292419 C4.43252594 -0.01247101 5.61077942 -0.01201782 6.82473755 -0.0115509 C8.68603302 -0.01658882 8.68603302 -0.01658882 10.58493042 -0.02172852 C13.98995726 -0.029609 17.39492312 -0.03290658 20.79995489 -0.0335443 C23.64285235 -0.03449385 26.48574395 -0.0381727 29.32863915 -0.0417164 C36.03665153 -0.04986057 42.74465048 -0.05230068 49.45266724 -0.05158997 C56.37078837 -0.05098929 63.2888315 -0.06153905 70.2069329 -0.07733363 C76.14757812 -0.09041296 82.08819785 -0.09577369 88.02885735 -0.09513456 C91.57642427 -0.09487967 95.12392189 -0.0977258 98.67147446 -0.10831261 C102.6288431 -0.1197998 106.58610494 -0.11524434 110.54348755 -0.10920715 C112.30479507 -0.11763641 112.30479507 -0.11763641 114.10168457 -0.12623596 C115.72100891 -0.11994423 115.72100891 -0.11994423 117.37304688 -0.11352539 C118.30845747 -0.11407016 119.24386806 -0.11461493 120.20762444 -0.1151762 C123.11805588 0.16280035 125.21381425 0.80023262 127.81350708 2.13371277 C129.94078468 5.32462917 130.1473212 7.33531051 130.37210083 11.09855652 C129.42695197 14.54207088 127.89697554 15.32705487 124.81350708 17.13371277 C120.64091981 17.73604469 116.4932207 17.65895331 112.28396606 17.61955261 C110.37593201 17.62524765 110.37593201 17.62524765 108.42935181 17.63105774 C104.94789316 17.64073404 101.466949 17.62547046 97.98555255 17.60515165 C94.33991778 17.58755741 90.69429834 17.59110617 87.04862976 17.59187317 C80.92793185 17.59000145 74.80743254 17.57265411 68.6867981 17.54533386 C61.61181883 17.51387034 54.53705689 17.50333823 47.46201271 17.50480497 C39.92634642 17.50615618 32.39076383 17.49227353 24.8551228 17.47391176 C22.68483426 17.46965073 20.51455924 17.46822963 18.34426689 17.46743393 C14.30062489 17.46505065 10.25723967 17.4456227 6.21365356 17.42424011 C5.01094315 17.42514648 3.80823273 17.42605286 2.56907654 17.42698669 C1.4685495 17.41845673 0.36802246 17.40992676 -0.76585388 17.40113831 C-1.72171166 17.39778662 -2.67756945 17.39443493 -3.66239262 17.39098167 C-6.3193539 17.12017091 -7.93316972 16.54104296 -10.18649292 15.13371277 C-12.28328695 12.43783473 -12.18160113 11.04076877 -11.99899292 7.57121277 C-10.92562335 3.03003384 -10.92562335 3.03003384 -8.18649292 1.13371277 C-5.16807759 0.12757432 -3.15544404 0.00565773 0 0 Z " fill="#000000" transform="translate(116.18649291992188,251.8662872314453)"/>
<path d="M0 0 C1.07246475 -0.00571014 2.1449295 -0.01142029 3.24989319 -0.01730347 C4.42657562 -0.01842133 5.60325806 -0.01953918 6.81559753 -0.02069092 C8.05485489 -0.02565582 9.29411224 -0.03062073 10.57092285 -0.03573608 C13.9718818 -0.04784634 17.37277925 -0.05530334 20.77375245 -0.05974674 C22.89934889 -0.06267908 25.02493995 -0.06678421 27.15053368 -0.07125092 C33.80337779 -0.08492385 40.45620959 -0.09459135 47.10906678 -0.09845281 C54.78439302 -0.10293239 62.45954107 -0.12047639 70.13481313 -0.1494534 C76.07037845 -0.17108313 82.00589368 -0.18115778 87.94149798 -0.18249393 C91.4852262 -0.18354109 95.02878686 -0.18942974 98.57247353 -0.20731354 C102.52727102 -0.22688386 106.48184655 -0.22250007 110.43669128 -0.21600342 C111.60730103 -0.2252182 112.77791077 -0.23443298 113.98399353 -0.243927 C124.06183395 -0.19200381 124.06183395 -0.19200381 128.82023621 3.14044189 C130.38724063 6.27445074 130.67188181 9.77199285 129.82023621 13.14044189 C127.59913368 15.80511407 125.73169067 17.00892568 122.27964592 17.50703049 C118.94390835 17.6488979 115.62937845 17.65753346 112.29069519 17.62628174 C110.38266113 17.63197678 110.38266113 17.63197678 108.43608093 17.63778687 C104.95462228 17.64746317 101.47367812 17.63219959 97.99228168 17.61188078 C94.3466469 17.59428654 90.70102746 17.5978353 87.05535889 17.59860229 C80.93466098 17.59673058 74.81416167 17.57938323 68.69352722 17.55206299 C61.61854796 17.52059947 54.54378601 17.51006736 47.46874183 17.51153409 C39.93307555 17.5128853 32.39749296 17.49900266 24.86185193 17.48064089 C22.69156339 17.47637985 20.52128836 17.47495876 18.35099602 17.47416306 C14.30735402 17.47177977 10.2639688 17.45235183 6.22038269 17.43096924 C5.01767227 17.43187561 3.81496185 17.43278198 2.57580566 17.43371582 C1.47527863 17.42518585 0.37475159 17.41665588 -0.75912476 17.40786743 C-1.71498254 17.40451574 -2.67084032 17.40116405 -3.65566349 17.3977108 C-6.31262478 17.12690004 -7.92644059 16.54777209 -10.17976379 15.14044189 C-12.27655782 12.44456386 -12.174872 11.0474979 -11.99226379 7.57794189 C-10.91889423 3.03676296 -10.91889423 3.03676296 -8.17976379 1.14044189 C-5.16569684 0.13575291 -3.15084052 0.0100419 0 0 Z " fill="#000000" transform="translate(116.17976379394531,289.85955810546875)"/>
<path d="M0 0 C3.05395173 0.08313843 3.96503584 0.26425558 6.5625 2.0625 C8.72524443 5.26336176 9.2861629 7.95311143 8.85037613 11.79791832 C8.66161785 12.64701586 8.47285957 13.4961134 8.27838135 14.37094116 C8.06532349 15.35215439 7.85226562 16.33336761 7.63275146 17.34431458 C7.39075012 18.40937729 7.14874878 19.47444 6.89941406 20.57177734 C6.52647217 22.2677581 6.52647217 22.2677581 6.14599609 23.9980011 C5.32079854 27.73792405 4.48106164 31.47441201 3.640625 35.2109375 C3.06277522 37.8100424 2.4855836 40.40928591 1.90911865 43.00869751 C0.69868618 48.45920037 -0.51977172 53.90786111 -1.74316406 59.35546875 C-3.15460071 65.64080339 -4.55408183 71.92870618 -5.94696593 78.21817625 C-7.28973584 84.28032028 -8.64033653 90.34069294 -9.99469757 96.40025711 C-10.56905957 98.97301726 -11.14155792 101.54619419 -11.71215057 104.11979294 C-12.51193939 107.72123008 -13.32065383 111.32054799 -14.13183594 114.91943359 C-14.36574036 115.98044785 -14.59964478 117.0414621 -14.84063721 118.1346283 C-17.92525908 131.70379349 -17.92525908 131.70379349 -21.625 134.875 C-25.00308137 135.62568475 -27.53827541 135.22434808 -30.875 134.375 C-32.8125 132.875 -32.8125 132.875 -33.875 130.375 C-34.24476871 123.30229039 -33.19711551 117.06176909 -31.62768555 110.18310547 C-31.38866516 109.10063538 -31.14964478 108.01816528 -30.90338135 106.90289307 C-30.11558825 103.34715145 -29.31403991 99.79467677 -28.51171875 96.2421875 C-27.95776081 93.76089485 -27.40445137 91.27945735 -26.85176086 88.79788208 C-25.69343683 83.60687713 -24.52872036 78.41736744 -23.35864258 73.22900391 C-22.00938421 67.24572796 -20.67179399 61.25993596 -19.34052628 55.27263343 C-18.05482428 49.4913411 -16.76128304 43.71182526 -15.4641819 37.93307877 C-14.91492665 35.48313109 -14.36754526 33.03276252 -13.82208824 30.5819664 C-13.0582798 27.15579297 -12.28560697 23.73173753 -11.51049805 20.30810547 C-11.28751541 19.30012909 -11.06453278 18.29215271 -10.83479309 17.25363159 C-7.04971008 0.68223001 -7.04971008 0.68223001 0 0 Z " fill="#000000" transform="translate(361.875,189.625)"/>
<path d="M0 0 C5.35870952 1.02286622 5.35870952 1.02286622 7.49047852 3.66625977 C8.49047852 6.97875977 8.49047852 6.97875977 8.49047852 10.66625977 C5.48297002 16.07727041 1.26480408 20.1517814 -3.11889648 24.47094727 C-3.84570618 25.19492706 -4.57251587 25.91890686 -5.3213501 26.66482544 C-7.62939667 28.96173357 -9.94432122 31.25156472 -12.25952148 33.54125977 C-13.83159635 35.10329666 -15.40321597 36.66579187 -16.97436523 38.22875977 C-20.814163 42.04658126 -24.65962237 45.85862616 -28.50952148 49.66625977 C-27.14065417 52.7481173 -25.59541372 54.80720788 -23.17724609 57.14624023 C-22.49991928 57.80727753 -21.82259247 58.46831482 -21.1247406 59.14938354 C-20.39449173 59.85362457 -19.66424286 60.5578656 -18.91186523 61.28344727 C-17.37302707 62.79212673 -15.83462901 64.30125522 -14.29663086 65.81079102 C-11.87003423 68.18157272 -9.43978656 70.54825851 -7.00146484 72.90698242 C-4.6479079 75.18799416 -2.31029149 77.48440265 0.02563477 79.78344727 C0.75790787 80.48363983 1.49018097 81.1838324 2.24464417 81.90524292 C5.27455322 84.9044426 7.23969572 86.8690764 8.53515625 90.98706055 C8.47831818 94.39548136 7.56829562 95.99478064 5.49047852 98.66625977 C1.99595599 100.99594145 0.60168429 101.1159229 -3.50952148 100.66625977 C-5.65014648 99.32373047 -5.65014648 99.32373047 -7.75952148 97.27954102 C-8.61932617 96.45663574 -9.47913086 95.63373047 -10.36499023 94.78588867 C-11.41387381 93.74672498 -12.46197373 92.70677003 -13.50952148 91.66625977 C-14.85932663 90.34596993 -16.20962377 89.026183 -17.56030273 87.70678711 C-21.4313178 83.91071863 -25.27415368 80.08732429 -29.10766602 76.25341797 C-31.52658084 73.83671601 -33.95342355 71.4281611 -36.38061523 69.01977539 C-37.92407198 67.47924853 -39.46705806 65.93824995 -41.00952148 64.39672852 C-41.73341064 63.68002487 -42.4572998 62.96332123 -43.203125 62.22489929 C-44.20557251 61.21783684 -44.20557251 61.21783684 -45.22827148 60.19042969 C-45.81543945 59.60468674 -46.40260742 59.01894379 -47.00756836 58.41545105 C-49.76704096 55.20173862 -50.54030723 53.56689563 -50.39186096 49.22410583 C-49.39839608 45.21817022 -48.26381046 43.65258417 -45.39208984 40.74072266 C-44.51705307 39.84031754 -43.6420163 38.93991241 -42.74046326 38.01222229 C-41.77767534 37.05353733 -40.81395246 36.09579057 -39.84936523 35.13891602 C-38.86031546 34.14073524 -37.87201002 33.14181645 -36.88441467 32.14219666 C-34.81535774 30.05531151 -32.73538497 27.98011156 -30.64746094 25.91210938 C-27.97919482 23.26683853 -25.34398953 20.59116217 -22.71657467 17.90538883 C-20.68449407 15.83653536 -18.63402277 13.7867065 -16.57779121 11.74188042 C-15.59846287 10.76285783 -14.62528235 9.77764354 -13.6586132 8.78611946 C-5.15614791 0.09613342 -5.15614791 0.09613342 0 0 Z " fill="#000000" transform="translate(320.509521484375,206.333740234375)"/>
<path d="M0 0 C5.43500223 1.51019763 9.13856845 6.46809689 12.9382019 10.42596436 C13.93159518 11.43175453 14.92670574 12.43585122 15.92344666 13.43832397 C18.53381176 16.07347824 21.11885203 18.73219235 23.69967651 21.39624023 C25.81447793 23.57117857 27.94610411 25.72918538 30.07890987 27.88644981 C34.48049693 32.33862193 38.86861255 36.80395139 43.23092651 41.2946167 C44.39053139 42.48708511 44.39053139 42.48708511 45.57356262 43.7036438 C47.66007445 45.99481902 48.26814545 47.23141015 48.84835815 50.27752686 C47.65897031 58.30589482 37.97922808 65.16872899 32.4225769 70.71112061 C31.17937431 71.95575829 31.17937431 71.95575829 29.91105652 73.22554016 C28.1735302 74.96374259 26.43475805 76.70070048 24.6947937 78.4364624 C22.02280997 81.10304868 19.35625759 83.77498374 16.69015503 86.44744873 C14.99711656 88.13982712 13.30376831 89.83189566 11.6100769 91.52362061 C10.81115524 92.3245665 10.01223358 93.12551239 9.18910217 93.95072937 C8.4510585 94.68562088 7.71301483 95.42051239 6.9526062 96.17767334 C6.30309494 96.82638901 5.65358368 97.47510468 4.98439026 98.14347839 C2.75184684 100.20273885 1.58875726 100.62581584 -1.46414185 100.96502686 C-5.53104625 100.56631074 -7.0046039 99.76668915 -9.65164185 96.65252686 C-10.32929169 93.26427763 -10.57258751 91.83866402 -9.65164185 88.65252686 C-8.30189514 86.7456665 -8.30189514 86.7456665 -6.55764771 84.84588623 C-5.92253265 84.15100098 -5.2874176 83.45611572 -4.63305664 82.74017334 C-1.60329235 79.54797108 1.46945158 76.40776617 4.5944519 73.30877686 C5.25042862 72.65421509 5.90640533 71.99965332 6.58226013 71.32525635 C8.64775961 69.26528862 10.71673411 67.20885319 12.78585815 65.15252686 C14.19950249 63.74390636 15.61291601 62.33505418 17.02609253 60.92596436 C20.46418965 57.49880553 23.90540472 54.07480667 27.34835815 50.65252686 C23.14703585 45.60504322 18.73156275 40.9972085 13.98117065 36.46893311 C12.58689917 35.11649121 11.19370068 33.7629424 9.80148315 32.40838623 C7.63171069 30.30044539 5.45690555 28.19940125 3.26339722 26.1161499 C1.12971575 24.08553449 -0.97730612 22.03020671 -3.08132935 19.96893311 C-3.74059418 19.35409561 -4.39985901 18.73925812 -5.07910156 18.10578918 C-8.22617257 14.97877447 -10.052931 12.90562342 -10.15603638 8.35150146 C-9.65164185 4.65252686 -9.65164185 4.65252686 -8.15164185 2.15252686 C-5.38647801 0.49342855 -3.23105064 -0.0779778 0 0 Z " fill="#000000" transform="translate(379.6516418457031,206.34747314453125)"/>
<path d="M0 0 C0.85072083 -0.00335861 1.70144165 -0.00671722 2.57794189 -0.01017761 C5.39458673 -0.01968848 8.21117213 -0.02163082 11.02783203 -0.02270508 C12.98454818 -0.02591766 14.94126409 -0.02928174 16.89797974 -0.03279114 C21.00197913 -0.03878282 25.10595747 -0.04063101 29.20996094 -0.04003906 C34.46806247 -0.03993746 39.72602891 -0.0535875 44.98409843 -0.07081127 C49.02642436 -0.08193162 53.06871763 -0.08395826 57.11105728 -0.08342934 C59.04952586 -0.08460948 60.98799529 -0.0890332 62.92644882 -0.0967617 C65.63856201 -0.10656181 68.35038206 -0.10368339 71.0625 -0.09765625 C71.86267548 -0.10327576 72.66285095 -0.10889526 73.48727417 -0.11468506 C77.6273213 -0.09131256 81.01138669 0.09599363 84.66064453 2.14526367 C87.16096108 5.89573849 87.19668007 7.70382633 86.66064453 12.14526367 C84.68831708 14.83244185 83.10781036 16.80075636 79.75875664 17.59802055 C77.42593929 17.77565274 75.14226464 17.78660721 72.80297852 17.74462891 C71.48015869 17.75054298 71.48015869 17.75054298 70.13061523 17.75657654 C67.22207427 17.76327734 64.31511069 17.73414558 61.40673828 17.70385742 C59.38322758 17.69960631 57.35971201 17.69727864 55.3361969 17.6967926 C51.09849906 17.6906297 46.86133029 17.66794037 42.6237793 17.63232422 C37.19071348 17.58702322 31.75812642 17.57229656 26.32488918 17.5685873 C22.14788589 17.56415963 17.97098316 17.54885782 13.79402351 17.52971077 C11.79054657 17.52082943 9.7870589 17.51409901 7.78356743 17.50955009 C4.98516666 17.5005112 2.18719939 17.478124 -0.61108398 17.45166016 C-1.43976486 17.45099548 -2.26844574 17.45033081 -3.12223816 17.449646 C-10.21090009 17.35708849 -10.21090009 17.35708849 -13.33935547 15.14526367 C-15.4361495 12.44938564 -15.33446368 11.05231967 -15.15185547 7.58276367 C-14.0784859 3.04158474 -14.0784859 3.04158474 -11.33935547 1.14526367 C-7.53480942 -0.12291834 -3.96397691 -0.00223373 0 0 Z " fill="#000000" transform="translate(119.33935546875,213.854736328125)"/>
</svg>
