<svg width="354" height="79" viewBox="0 0 354 79" fill="none" xmlns="http://www.w3.org/2000/svg">
<path d="M27.17 24.125C34.4667 24.125 39.545 25.4267 42.405 28.03C45.265 30.5967 46.695 34.2267 46.695 38.92C46.695 42.1467 46.1267 44.8967 44.99 47.17C43.8533 49.4067 41.855 51.1667 38.995 52.45C36.135 53.6967 32.1933 54.32 27.17 54.32H15.73V64H2.2C2.49333 56.8867 2.64 50.2317 2.64 44.035C2.64 37.8383 2.49333 31.1833 2.2 24.07H15.73V24.125H27.17ZM23.32 43.705C26.3633 43.705 28.6367 43.595 30.14 43.375C31.68 43.1183 32.7433 42.6783 33.33 42.055C33.9533 41.4317 34.265 40.515 34.265 39.305C34.265 38.095 33.9717 37.1967 33.385 36.61C32.835 35.9867 31.79 35.565 30.25 35.345C28.7467 35.125 26.4367 35.015 23.32 35.015H15.73V43.705H23.32ZM58.447 30.725C56.137 30.725 54.4136 30.1567 53.277 29.02C52.177 27.8833 51.627 26.3983 51.627 24.565C51.627 22.7683 52.177 21.2833 53.277 20.11C54.4136 18.9367 56.137 18.35 58.447 18.35C60.647 18.35 62.3336 18.955 63.507 20.165C64.6803 21.3383 65.267 22.805 65.267 24.565C65.267 26.3983 64.6986 27.8833 63.562 29.02C62.4253 30.1567 60.7203 30.725 58.447 30.725ZM52.067 64C52.3236 58.0967 52.452 53.22 52.452 49.37C52.452 44.7867 52.3053 39.6533 52.012 33.97H65.212C64.9186 39.4333 64.772 44.5667 64.772 49.37C64.772 53.4033 64.9003 58.28 65.157 64H52.067ZM91.648 64C91.868 58.61 91.978 53.6417 91.978 49.095C91.978 47.4817 91.5747 46.1983 90.768 45.245C89.998 44.2917 89.008 43.815 87.798 43.815C86.588 43.815 85.5614 44.365 84.718 45.465C83.8747 46.5283 83.3797 47.995 83.233 49.865C83.1597 52.6517 83.123 54.6317 83.123 55.805C83.123 58.2983 83.1964 61.03 83.343 64H70.198C70.4914 58.72 70.638 53.7333 70.638 49.04C70.638 44.3467 70.4914 39.3233 70.198 33.97C72.618 34.08 74.4697 34.135 75.753 34.135C77.1097 34.135 78.9614 34.08 81.308 33.97L82.903 42.055C83.7464 39.1217 85.0664 36.9583 86.863 35.565C88.6597 34.135 90.7497 33.42 93.133 33.42C95.333 33.42 97.2397 33.915 98.853 34.905C100.466 35.8583 101.676 37.16 102.483 38.81C103.326 40.46 103.748 42.3117 103.748 44.365V52.285C103.748 57.1617 103.84 61.0667 104.023 64H91.648ZM134.4 33.97H144.96C144.777 39.9833 144.685 48.5267 144.685 59.6C144.685 63.9633 143.805 67.5383 142.045 70.325C140.322 73.1117 138.03 75.1283 135.17 76.375C132.31 77.6583 129.12 78.3 125.6 78.3C122.117 78.3 119 77.7867 116.25 76.76C113.5 75.77 111.41 74.4317 109.98 72.745L112.455 64.33C114.435 65.4667 116.305 66.2733 118.065 66.75C119.825 67.2633 121.659 67.52 123.565 67.52C129.799 67.52 132.915 64.88 132.915 59.6C132.915 58.83 132.934 58.28 132.97 57.95C132.97 57.73 132.97 57.4367 132.97 57.07C133.007 56.7033 133.007 56.2267 132.97 55.64C131.1 60.8467 127.14 63.45 121.09 63.45C118.634 63.45 116.434 62.79 114.49 61.47C112.584 60.15 111.099 58.3717 110.035 56.135C108.972 53.8617 108.44 51.3683 108.44 48.655C108.44 45.8683 108.972 43.32 110.035 41.01C111.099 38.6633 112.584 36.8117 114.49 35.455C116.397 34.0983 118.542 33.42 120.925 33.42C127.122 33.42 131.155 35.6017 133.025 39.965L134.4 33.97ZM126.81 54.65C127.654 54.65 128.534 54.4667 129.45 54.1C130.367 53.6967 131.155 53.0733 131.815 52.23C132.475 51.35 132.805 50.2683 132.805 48.985C132.805 46.7117 132.292 45.0983 131.265 44.145C130.239 43.155 128.717 42.66 126.7 42.66C124.94 42.66 123.547 43.2467 122.52 44.42C121.494 45.5933 120.98 47.115 120.98 48.985C120.98 50.6717 121.53 52.0467 122.63 53.11C123.767 54.1367 125.16 54.65 126.81 54.65ZM196.613 35.62C190.856 35.4367 185.265 35.3267 179.838 35.29V64H166.088V35.29C160.625 35.3267 155.051 35.4367 149.368 35.62V24.07H196.613V35.62ZM210.476 64.55C204.206 64.55 199.586 63.12 196.616 60.26C193.683 57.3633 192.216 53.5683 192.216 48.875C192.216 44.2917 193.683 40.57 196.616 37.71C199.586 34.85 204.206 33.42 210.476 33.42C214.693 33.42 218.213 34.1167 221.036 35.51C223.896 36.8667 226.005 38.7183 227.361 41.065C228.718 43.375 229.396 45.9783 229.396 48.875C229.396 53.605 227.82 57.4 224.666 60.26C221.55 63.12 216.82 64.55 210.476 64.55ZM210.696 55.2C213.08 55.2 214.858 54.6317 216.031 53.495C217.205 52.3583 217.791 50.8367 217.791 48.93C217.791 47.1333 217.205 45.6667 216.031 44.53C214.858 43.3567 213.08 42.77 210.696 42.77C208.313 42.77 206.571 43.3383 205.471 44.475C204.371 45.6117 203.821 47.0967 203.821 48.93C203.821 50.8367 204.371 52.3583 205.471 53.495C206.571 54.6317 208.313 55.2 210.696 55.2ZM261.587 55.53L266.317 33.97H277.262L271.157 64H256.472L253.007 49.975L249.102 64H234.967L228.862 33.97H239.807L244.482 55.475L247.672 33.97H258.507L261.587 55.53ZM305.812 50.25H287.882C288.175 51.8633 288.89 53.1833 290.027 54.21C291.2 55.2 292.85 55.695 294.977 55.695C296.517 55.695 297.965 55.4017 299.322 54.815C300.678 54.1917 301.76 53.33 302.567 52.23C305.023 53.44 308.287 54.7417 312.357 56.135C311.22 58.7017 309.148 60.755 306.142 62.295C303.172 63.7983 299.285 64.55 294.482 64.55C288.248 64.55 283.628 63.12 280.622 60.26C277.652 57.3633 276.167 53.5683 276.167 48.875C276.167 44.2917 277.652 40.57 280.622 37.71C283.592 34.85 288.212 33.42 294.482 33.42C298.222 33.42 301.467 34.0433 304.217 35.29C306.967 36.5367 309.075 38.2783 310.542 40.515C312.008 42.715 312.742 45.245 312.742 48.105C312.742 49.0583 312.705 49.7733 312.632 50.25H305.812ZM295.252 41.725C293.418 41.725 291.915 42.0733 290.742 42.77C289.568 43.4667 288.743 44.42 288.267 45.63H301.247C300.807 44.4567 300.092 43.5217 299.102 42.825C298.112 42.0917 296.828 41.725 295.252 41.725ZM329.33 42.11C330.87 36.5733 334.702 33.805 340.825 33.805C341.888 33.805 342.915 33.8783 343.905 34.025L342.145 46.345C339.505 45.355 337.342 44.86 335.655 44.86C333.565 44.86 332.025 45.4833 331.035 46.73C330.045 47.9767 329.55 49.645 329.55 51.735V51.68L329.495 55.31C329.495 57.9133 329.568 60.81 329.715 64H316.57C316.863 58.72 317.01 53.7333 317.01 49.04C317.01 44.3467 316.863 39.3233 316.57 33.97C318.99 34.08 320.842 34.135 322.125 34.135C323.482 34.135 325.333 34.08 327.68 33.97L329.33 42.11Z" fill="#0D1B2A"/>
<circle cx="58.5" cy="23.5" r="8.5" fill="#FF6E6E"/>
</svg>
