<?xml version="1.0" encoding="UTF-8"?>
<svg version="1.1" xmlns="http://www.w3.org/2000/svg" width="512" height="512">
<path d="M0 0 C1.2115551 -0.0146228 1.2115551 -0.0146228 2.44758606 -0.02954102 C20.77446774 -0.2051584 38.29264489 0.16026275 56.25 4.23828125 C57.08644043 4.4202002 57.92288086 4.60211914 58.78466797 4.78955078 C93.88039254 12.58009151 125.55466584 29.92488324 151.92578125 54.16015625 C153.5188195 55.58451986 155.16083474 56.95540906 156.83984375 58.27734375 C158.99576933 60.03143555 160.71569009 61.74553969 162.5 63.86328125 C164.38640753 66.08234559 166.27619734 68.26599289 168.27734375 70.3828125 C179.66941684 82.47530238 188.64170791 96.52341823 196.25 111.23828125 C196.6222168 111.95145508 196.99443359 112.66462891 197.37792969 113.39941406 C206.85791452 131.7855739 217.25 155.16845009 217.25 176.23828125 C215.74934346 176.12142685 214.2494897 175.99426077 212.75 175.86328125 C211.9146875 175.79367188 211.079375 175.7240625 210.21875 175.65234375 C206.46562828 175.12888204 202.91492878 174.20149971 199.25 173.23828125 C199.09031738 172.57634766 198.93063477 171.91441406 198.76611328 171.23242188 C195.68117276 158.65019428 192.26717328 146.3884775 187.25 134.42578125 C186.8595752 133.4925 186.46915039 132.55921875 186.06689453 131.59765625 C182.85930028 124.18641842 179.11188876 117.41036037 175.25 110.23828125 C155.12 110.23828125 134.99 110.23828125 114.25 110.23828125 C116.23 118.15828125 118.21 126.07828125 120.25 134.23828125 C119.92 135.55828125 119.59 136.87828125 119.25 138.23828125 C117.6 137.57828125 115.95 136.91828125 114.25 136.23828125 C110.29 135.90828125 106.33 135.57828125 102.25 135.23828125 C99.94 126.98828125 97.63 118.73828125 95.25 110.23828125 C70.17 109.90828125 45.09 109.57828125 19.25 109.23828125 C19.25 130.02828125 19.25 150.81828125 19.25 172.23828125 C6.25 175.23828125 6.25 175.23828125 3.25 175.23828125 C3.25 153.45828125 3.25 131.67828125 3.25 109.23828125 C-21.83 109.56828125 -46.91 109.89828125 -72.75 110.23828125 C-77.8098009 128.49979894 -77.8098009 128.49979894 -81.5 146.92578125 C-81.70334961 148.15417725 -81.90669922 149.38257324 -82.11621094 150.64819336 C-84.79635031 167.2079362 -85.90816167 183.40151459 -86.75 200.23828125 C-69.92 200.23828125 -53.09 200.23828125 -35.75 200.23828125 C-35.75 205.51828125 -35.75 210.79828125 -35.75 216.23828125 C-52.58 216.23828125 -69.41 216.23828125 -86.75 216.23828125 C-85.20312357 246.61330931 -82.43542346 277.18201087 -72.75 306.23828125 C-48 306.73328125 -48 306.73328125 -22.75 307.23828125 C-18.75 321.23828125 -18.75 321.23828125 -18.75 324.23828125 C-34.59 324.23828125 -50.43 324.23828125 -66.75 324.23828125 C-63.78 330.54953125 -63.78 330.54953125 -60.75 336.98828125 C-60.14414063 338.28862305 -59.53828125 339.58896484 -58.9140625 340.92871094 C-53.25382719 352.81305019 -46.12655651 363.1262014 -37.75 373.23828125 C-37.29496094 373.84027344 -36.83992187 374.44226563 -36.37109375 375.0625 C-27.17742776 386.83588123 -12.39128756 395.68186596 2.25 398.23828125 C3.19746094 398.22023438 4.14492187 398.2021875 5.12109375 398.18359375 C13.14159065 398.16356754 13.14159065 398.16356754 16.69140625 401.60546875 C18.71161082 404.41068835 20.50088247 407.25845934 22.25 410.23828125 C22.81589844 410.97433594 23.38179687 411.71039063 23.96484375 412.46875 C25.25 414.23828125 25.25 414.23828125 25.25 416.23828125 C5.19179262 416.70562903 -14.03980482 416.55487429 -33.75 412.23828125 C-34.5951416 412.0563623 -35.4402832 411.87444336 -36.31103516 411.68701172 C-71.24513315 403.92310792 -103.17136659 386.4444303 -129.42578125 362.31640625 C-131.0188195 360.89204264 -132.66083474 359.52115344 -134.33984375 358.19921875 C-136.49576933 356.44512695 -138.21569009 354.73102281 -140 352.61328125 C-141.88640753 350.39421691 -143.77619734 348.21056961 -145.77734375 346.09375 C-157.16941684 334.00126012 -166.14170791 319.95314427 -173.75 305.23828125 C-174.1222168 304.52510742 -174.49443359 303.81193359 -174.87792969 303.07714844 C-187.90463107 277.81223314 -196.79379733 248.82049448 -196.953125 220.2265625 C-196.96013931 219.38431122 -196.96715363 218.54205994 -196.97438049 217.67428589 C-196.99181446 214.96639621 -196.99823396 212.25872502 -197 209.55078125 C-197.00067474 208.62721832 -197.00134949 207.7036554 -197.00204468 206.75210571 C-196.98646857 193.36000018 -196.64291118 180.36458101 -193.75 167.23828125 C-193.58371094 166.43874023 -193.41742188 165.63919922 -193.24609375 164.81542969 C-186.8117207 134.41897479 -173.75875249 100.87972889 -151.75 78.23828125 C-148.89675563 76.81165906 -146.91545451 76.92794257 -143.75 77.23828125 C-140.875 78.73828125 -140.875 78.73828125 -138.75 81.23828125 C-138.14514087 84.71622125 -138.14223591 88.02275306 -139.75 91.23828125 C-121.6 91.56828125 -103.45 91.89828125 -84.75 92.23828125 C-84.42 90.25828125 -84.09 88.27828125 -83.75 86.23828125 C-82.953125 83.97509766 -82.953125 83.97509766 -82 81.83984375 C-81.64365479 81.03885254 -81.28730957 80.23786133 -80.92016602 79.41259766 C-80.34093384 78.15068604 -80.34093384 78.15068604 -79.75 76.86328125 C-79.34773193 75.9820459 -78.94546387 75.10081055 -78.53100586 74.19287109 C-70.54536658 56.96504015 -60.86110998 41.08185547 -47.75 27.23828125 C-70.93717763 32.83116832 -93.22208617 46.38926884 -111.125 61.86328125 C-114.14793041 64.32438413 -116.18408824 65.75916182 -120.125 65.92578125 C-125.61605384 64.88437449 -125.61605384 64.88437449 -127.75 62.23828125 C-128.75905804 58.6056723 -129.2548356 56.34023422 -127.66015625 52.859375 C-125.26513427 49.57295424 -122.4253503 47.16436782 -119.25 44.67578125 C-118.58983887 44.15693359 -117.92967773 43.63808594 -117.24951172 43.10351562 C-84.25836778 17.67971053 -42.00059235 0.42457633 0 0 Z M19.25 17.23828125 C19.25 41.98828125 19.25 66.73828125 19.25 92.23828125 C42.35 92.23828125 65.45 92.23828125 89.25 92.23828125 C86.7851888 84.71982404 86.7851888 84.71982404 83.61328125 77.71484375 C83.12279297 76.762146 82.63230469 75.80944824 82.12695312 74.82788086 C81.61068359 73.84956299 81.09441406 72.87124512 80.5625 71.86328125 C79.75522461 70.33102905 79.75522461 70.33102905 78.93164062 68.76782227 C75.18394772 61.76109522 71.34151594 55.35943585 66.25 49.23828125 C65.35002894 48.10304805 64.45030761 46.96761685 63.55078125 45.83203125 C51.51819164 30.93482512 38.27557294 21.46618635 19.25 17.23828125 Z M-34.07177734 37.55566406 C-38.85221916 42.34862377 -42.85054255 47.72216407 -46.75 53.23828125 C-47.50667969 54.29144531 -48.26335937 55.34460938 -49.04296875 56.4296875 C-60.996152 73.359711 -60.996152 73.359711 -66.75 92.23828125 C-43.65 92.23828125 -20.55 92.23828125 3.25 92.23828125 C3.25 67.48828125 3.25 42.73828125 3.25 17.23828125 C-10.6857316 17.23828125 -24.46630521 28.46817352 -34.07177734 37.55566406 Z M69.25 26.23828125 C72.43801323 30.56142041 75.69859328 34.78836128 79.125 38.92578125 C90.76955452 53.46490245 99.14964521 70.76526882 105.9375 88.01953125 C106.92933918 91.04687803 106.92933918 91.04687803 108.25 92.23828125 C109.96865409 92.33187315 111.69115744 92.35572736 113.41235352 92.35180664 C115.06395226 92.35169334 115.06395226 92.35169334 116.74891663 92.35157776 C118.54576149 92.34383583 118.54576149 92.34383583 120.37890625 92.3359375 C121.59827377 92.33452255 122.8176413 92.3331076 124.07395935 92.33164978 C127.9868307 92.32603092 131.89964581 92.31347521 135.8125 92.30078125 C138.45768147 92.29576868 141.10286383 92.29120535 143.74804688 92.28710938 C150.24871726 92.27605536 156.74935461 92.25929889 163.25 92.23828125 C162.30958405 90.97131328 161.36732762 89.70571131 160.42431641 88.44067383 C159.89979889 87.73574295 159.37528137 87.03081207 158.83486938 86.30451965 C138.56831401 59.88244638 109.85987761 41.41136857 79.34570312 29.0859375 C77.66516376 28.40620397 75.99481339 27.70130302 74.328125 26.98828125 C72.14791201 26.06854592 72.14791201 26.06854592 69.25 26.23828125 Z M-152.75 109.23828125 C-159.19256444 120.27778652 -159.19256444 120.27778652 -164.8125 131.67578125 C-165.13629639 132.41038574 -165.46009277 133.14499023 -165.79370117 133.90185547 C-172.088559 148.68534977 -176.4057413 164.35358431 -178.75 180.23828125 C-178.88019531 181.09292969 -179.01039063 181.94757813 -179.14453125 182.828125 C-179.68090705 186.89742937 -179.7848319 190.8963659 -179.76953125 195 C-179.76671143 195.98315186 -179.7638916 196.96630371 -179.76098633 197.97924805 C-179.75736084 198.724729 -179.75373535 199.47020996 -179.75 200.23828125 C-169.98849012 200.26140571 -160.2269867 200.27919686 -150.46545506 200.29009342 C-145.93325906 200.29532203 -141.40108173 200.30241926 -136.86889648 200.3137207 C-132.4987717 200.32455039 -128.12866492 200.33055826 -123.75852776 200.33315849 C-122.08749037 200.3350126 -120.41645403 200.33863293 -118.74542427 200.34401131 C-116.41302449 200.35122284 -114.08070007 200.35227215 -111.74829102 200.35180664 C-111.0505809 200.35540192 -110.35287079 200.35899719 -109.63401794 200.36270142 C-106.41340619 200.62890591 -106.41340619 200.62890591 -103.75 199.23828125 C-103.56775909 197.19268889 -103.44908305 195.14140321 -103.35546875 193.08984375 C-103.2894043 191.78813232 -103.22333984 190.4864209 -103.15527344 189.14526367 C-103.12042847 188.44791107 -103.0855835 187.75055847 -103.04968262 187.03207397 C-101.67978992 160.54835128 -97.18096612 134.96214572 -90.75 109.23828125 C-111.21 109.23828125 -131.67 109.23828125 -152.75 109.23828125 Z M-179.75 216.23828125 C-179.83112182 223.91277677 -179.42837778 231.10818475 -178.125 238.67578125 C-177.94678711 239.71637695 -177.76857422 240.75697266 -177.58496094 241.82910156 C-175.11485867 255.53378063 -170.95912813 268.52034048 -165.9375 281.48828125 C-165.65487305 282.23110352 -165.37224609 282.97392578 -165.08105469 283.73925781 C-161.70573102 292.11078249 -157.27995637 299.18502547 -152.75 307.23828125 C-132.29 307.23828125 -111.83 307.23828125 -90.75 307.23828125 C-92.73 298.98828125 -94.71 290.73828125 -96.75 282.23828125 C-100.35350631 262.61919133 -102.67578452 243.28759917 -103.40893555 223.36816406 C-103.18981328 219.48668885 -103.18981328 219.48668885 -104.75 216.23828125 C-107.09253782 216.14335403 -109.40546104 216.11268334 -111.74829102 216.12475586 C-112.47995483 216.12460983 -113.21161865 216.12446381 -113.9654541 216.12431335 C-116.39496784 216.12501258 -118.82440583 216.1328054 -121.25390625 216.140625 C-122.93399514 216.14248915 -124.61408457 216.14391306 -126.29417419 216.14491272 C-130.72473643 216.14873818 -135.1552661 216.15856869 -139.58581543 216.1696167 C-144.10342976 216.17983022 -148.62104934 216.18441021 -153.13867188 216.18945312 C-162.00912893 216.20019094 -170.87956176 216.21726769 -179.75 216.23828125 Z M-140.75 324.23828125 C-136.98493954 329.25836186 -133.37217437 333.99664285 -129.125 338.55078125 C-128.60776367 339.10564209 -128.09052734 339.66050293 -127.55761719 340.23217773 C-107.56802945 361.42344117 -83.75838548 377.00440592 -56.59375 387.51269531 C-55.01309423 388.13474364 -53.45655927 388.81748685 -51.90625 389.51171875 C-49.61031307 390.5264982 -49.61031307 390.5264982 -46.75 389.23828125 C-47.26046875 388.72523438 -47.7709375 388.2121875 -48.296875 387.68359375 C-58.38832857 377.05536074 -66.16065245 364.61859382 -73.0625 351.73828125 C-73.62022095 350.71069702 -73.62022095 350.71069702 -74.18920898 349.66235352 C-78.46396893 341.42172799 -81.33903595 333.00933167 -84.75 324.23828125 C-103.23 324.23828125 -121.71 324.23828125 -140.75 324.23828125 Z " fill="#000000" transform="translate(244.75,23.76171875)"/>
<path d="M0 0 C4.75662285 2.03748744 9.17416085 4.64736975 13.57763672 7.34838867 C41.21750701 24.25528596 72.69692004 36.77789174 105.05078125 40.484375 C120.61982015 42.27073357 120.61982015 42.27073357 125.55078125 47.7109375 C138.04141285 64.38856955 128.67221551 100.42334519 125.8984375 120.27734375 C122.13936494 146.45431838 116.3529638 171.89894322 108 197 C107.58113525 198.27447998 107.58113525 198.27447998 107.15380859 199.57470703 C98.82529447 224.59081276 86.62196875 249.43759793 70 270 C69.57605957 270.5254541 69.15211914 271.0509082 68.71533203 271.59228516 C51.23965195 293.11604019 25.64933391 317.18615653 -2.7265625 322.51171875 C-18.75892015 323.48403155 -34.4238383 313.09232593 -47 304 C-47.83724609 303.40179443 -47.83724609 303.40179443 -48.69140625 302.79150391 C-102.5499358 263.82381496 -126.28783574 195.15509569 -136.43487549 132.01263428 C-139.75494606 110.80803869 -142.20298115 89.53927496 -142.4375 68.0625 C-142.45981689 66.85376221 -142.48213379 65.64502441 -142.50512695 64.3996582 C-142.48748274 57.70582452 -142.06798485 53.40407529 -138 48 C-133.3747303 43.72162553 -129.48102123 41.87183469 -123.2578125 41.140625 C-122.12029541 40.99786133 -120.98277832 40.85509766 -119.81079102 40.70800781 C-118.59447998 40.55686523 -117.37816895 40.40572266 -116.125 40.25 C-82.7163869 35.7483582 -50.63475578 23.426275 -22.25 5.25 C-15.00302323 0.679899 -8.73712949 -2.42957611 0 0 Z M-11.984375 19.125 C-12.7462915 19.58028076 -13.50820801 20.03556152 -14.29321289 20.50463867 C-15.10395264 20.99810791 -15.91469238 21.49157715 -16.75 22 C-25.32717521 27.0868537 -33.99223261 31.72843342 -43 36 C-43.67256836 36.32564941 -44.34513672 36.65129883 -45.03808594 36.98681641 C-69.32815138 48.68689255 -95.28996599 55.09706995 -121.9375 58.640625 C-123.98547352 58.79372955 -123.98547352 58.79372955 -125 60 C-129.37990597 130.36570254 -108.19508893 214.14206518 -61.66577148 267.88256836 C-48.5970205 282.59552601 -26.61663406 302.84085822 -6.1953125 305.34375 C-1.94540035 304.88654674 1.31570913 303.37174369 5.125 301.5 C5.87273682 301.1390625 6.62047363 300.778125 7.39086914 300.40625 C17.86154733 295.23321632 27.08627727 288.50629282 36 281 C36.78375 280.34 37.5675 279.68 38.375 279 C91.82878154 232.76970245 107.61021286 151.02948515 112.6953125 84.328125 C113.22316034 76.22252933 113.17048601 68.11702829 113 60 C108.34690619 57.76348241 103.7442598 57.35455642 98.6875 56.75 C62.21801248 51.85187564 26.58753692 37.39169128 -4 17 C-7.98431202 17 -8.79582448 17.18347953 -11.984375 19.125 Z " fill="#000000" transform="translate(358,166)"/>
<path d="M0 0 C2.75517252 1.33613544 5.36816046 2.87502828 8 4.4375 C35.18055819 19.93410784 64.29057571 29.52332219 94.8840332 35.49438477 C97 36 97 36 98 37 C98.62798317 46.669356 97.53960946 56.28980002 96.375 65.875 C96.2876358 66.6062207 96.20027161 67.33744141 96.11026001 68.09082031 C89.62849803 121.74697491 75.25070143 176.78619705 40 219 C39.41476562 219.70898438 38.82953125 220.41796875 38.2265625 221.1484375 C28.07050509 233.14269535 12.9244814 245.5025514 -2 251 C-7.25054501 250.86537064 -11.2419562 248.56231006 -15.6875 246 C-16.39084473 245.59845703 -17.09418945 245.19691406 -17.81884766 244.78320312 C-24.08401586 241.11481051 -29.58081996 236.82922265 -35 232 C-35.83917969 231.29230469 -36.67835938 230.58460938 -37.54296875 229.85546875 C-48.77741543 220.18861928 -57.21778504 208.49641096 -65 196 C-65.3801123 195.39236816 -65.76022461 194.78473633 -66.15185547 194.15869141 C-93.5648077 149.66764833 -107 89.05267144 -107 37 C-101.1625066 35.52482116 -95.3241519 34.06415537 -89.45703125 32.7109375 C-62.21933734 26.33549488 -34.71386354 16.64977765 -10.99389648 1.55273438 C-6.87636452 -0.95852972 -4.59669674 -1.5146876 0 0 Z M-21.32861328 26.49951172 C-40.60878492 37.32897022 -62.76338339 44.3951123 -84.24609375 49.30859375 C-86.89398406 49.72277168 -86.89398406 49.72277168 -88 51 C-88.64549376 58.65123913 -87.48777084 66.26071596 -86.375 73.8125 C-86.10768066 75.63479126 -86.10768066 75.63479126 -85.83496094 77.49389648 C-78.57638693 125.3224952 -65.40155021 176.13972681 -31 212 C-30.27039063 212.78117188 -29.54078125 213.56234375 -28.7890625 214.3671875 C-23.65586848 219.71651601 -18.22424405 223.98836098 -12 228 C-11.34773438 228.45890625 -10.69546875 228.9178125 -10.0234375 229.390625 C-8.079849 230.74572303 -8.079849 230.74572303 -5 232 C14.90598943 227.23987209 31.86722577 203.61163128 42.10449219 187.23291016 C62.79563162 153.4385999 72.27629985 114.1470467 77.875 75.3125 C77.98477173 74.55475281 78.09454346 73.79700562 78.2076416 73.01629639 C78.5188188 70.84131348 78.82022986 68.66524721 79.1171875 66.48828125 C79.28847168 65.23571533 79.45975586 63.98314941 79.63623047 62.69262695 C80.02468667 58.74940542 80.0618463 54.95898434 80 51 C75.28631753 49.36548696 70.56187198 47.84778219 65.75 46.52734375 C47.57476896 41.52947164 29.97343036 35.19268768 13.125 26.6875 C12.48409424 26.37063232 11.84318848 26.05376465 11.18286133 25.72729492 C8.38623049 24.321385 5.80571421 22.86154028 3.25390625 21.04296875 C-5.91999036 15.08063412 -13.06667266 21.63399188 -21.32861328 26.49951172 Z " fill="#000000" transform="translate(356,203)"/>
<path d="M0 0 C7.39987568 5.14604031 12.92103 12.11712818 15 21 C15.07522969 23.33212027 15.09325876 25.6685311 15 28 C15.94875 28.103125 16.8975 28.20625 17.875 28.3125 C21 29 21 29 23 32 C23.22061147 34.99864744 23.32805299 37.90207174 23.3359375 40.90234375 C23.3459227 42.21350914 23.3459227 42.21350914 23.35610962 43.55116272 C23.36623288 45.39956559 23.37092674 47.24800498 23.37060547 49.09643555 C23.37497854 51.92362687 23.41130002 54.74925682 23.44921875 57.57617188 C23.45508701 59.37239049 23.45905634 61.16861653 23.4609375 62.96484375 C23.47530853 63.80973862 23.48967957 64.65463348 23.50448608 65.52513123 C23.49833282 66.3159761 23.49217957 67.10682098 23.48583984 67.92163086 C23.48868988 68.6142955 23.49153992 69.30696014 23.49447632 70.02061462 C22.74189453 73.03319447 21.48237193 74.1669938 19 76 C15.8125 76.50793457 15.8125 76.50793457 12 76.51757812 C11.30358398 76.5245874 10.60716797 76.53159668 9.88964844 76.53881836 C7.59269068 76.55639196 5.29696979 76.54477919 3 76.53125 C1.40103927 76.53394513 -0.19791987 76.53782773 -1.796875 76.54284668 C-5.14599226 76.54874082 -8.49468243 76.54018192 -11.84375 76.52148438 C-16.13478591 76.49869435 -20.42482111 76.51181796 -24.71582031 76.53577423 C-28.01700366 76.5502348 -31.31795011 76.54562515 -34.61914062 76.53526306 C-36.20117308 76.53259646 -37.78322711 76.53586322 -39.36523438 76.54518127 C-41.57740163 76.55535179 -43.787953 76.5398419 -46 76.51757812 C-47.258125 76.51439575 -48.51625 76.51121338 -49.8125 76.50793457 C-53 76 -53 76 -55.40515137 74.22155762 C-57.11486446 71.83999861 -57.50427774 70.81981025 -57.51757812 67.9375 C-57.53649109 66.75607422 -57.53649109 66.75607422 -57.55578613 65.55078125 C-57.54768921 64.70902344 -57.53959229 63.86726563 -57.53125 63 C-57.5350769 62.12730469 -57.53890381 61.25460937 -57.54284668 60.35546875 C-57.5455649 58.51300908 -57.53820994 56.67051076 -57.52148438 54.828125 C-57.50007248 52.00954066 -57.52128801 49.19350515 -57.546875 46.375 C-57.54423171 44.58332771 -57.53910669 42.79165701 -57.53125 41 C-57.53934692 40.15824219 -57.54744385 39.31648438 -57.55578613 38.44921875 C-57.49494461 34.64866477 -57.42965431 32.61742219 -55.21679688 29.4375 C-53 28 -53 28 -49 28 C-48.92523438 27.32195312 -48.85046875 26.64390625 -48.7734375 25.9453125 C-47.33919945 15.79315689 -43.26356067 7.93357498 -35.18359375 1.47265625 C-24.45334147 -5.76402552 -11.29911615 -6.55890475 0 0 Z M-28.8125 17.75 C-31.56571394 21.33130611 -31.56571394 21.33130611 -32 28 C-21.77 28 -11.54 28 -1 28 C-3.18165405 18.83681229 -3.18165405 18.83681229 -9.8125 13.1875 C-17.51102677 10.3194214 -23.07636388 12.14133358 -28.8125 17.75 Z M-41 44 C-41 49.28 -41 54.56 -41 60 C-25.16 60 -9.32 60 7 60 C7 54.72 7 49.44 7 44 C-8.84 44 -24.68 44 -41 44 Z " fill="#000000" transform="translate(369,324)"/>
<path d="M0 0 C2.02184799 -0.00438156 4.04152496 -0.0407508 6.06298828 -0.07861328 C7.34044922 -0.08248047 8.61791016 -0.08634766 9.93408203 -0.09033203 C11.10261719 -0.0985498 12.27115234 -0.10676758 13.47509766 -0.11523438 C17.13502286 0.46723933 18.2905825 1.47768009 20.52783203 4.37060547 C21.05908203 6.37060547 21.05908203 6.37060547 21.02783203 8.37060547 C21.03814453 9.03060547 21.04845703 9.69060547 21.05908203 10.37060547 C20.21241593 13.55805431 19.29960772 14.50514353 16.52783203 16.37060547 C12.82611985 16.9860247 9.14949228 17.02212602 5.40283203 17.05810547 C3.40014949 17.1000931 1.39753468 17.14549462 -0.60498047 17.19482422 C-1.49072754 17.20602295 -2.37647461 17.21722168 -3.2890625 17.22875977 C-5.51793742 17.23170682 -5.51793742 17.23170682 -7.47216797 18.37060547 C-7.47216797 19.69060547 -7.47216797 21.01060547 -7.47216797 22.37060547 C-4.86985897 23.67175997 -2.75338233 23.55434914 0.15283203 23.68310547 C6.50968905 24.19317663 11.66977993 25.23389329 16.09033203 30.08544922 C20.8834158 36.52615553 21.10267163 42.49007713 20.52783203 50.37060547 C18.54534066 56.10939629 14.99371657 59.92413078 9.77050781 62.98803711 C4.15808959 65.38098429 -1.57797744 64.84178354 -7.59716797 64.80810547 C-8.87205078 64.82808594 -10.14693359 64.84806641 -11.46044922 64.86865234 C-12.68376953 64.86800781 -13.90708984 64.86736328 -15.16748047 64.86669922 C-16.83834717 64.86947876 -16.83834717 64.86947876 -18.54296875 64.87231445 C-22.12615032 64.25859232 -23.2744501 63.2126821 -25.47216797 60.37060547 C-26.64807771 56.68608829 -26.80698135 55.08806272 -25.15966797 51.55810547 C-23.47216797 49.37060547 -23.47216797 49.37060547 -21.47216797 48.37060547 C-19.82966463 48.23010915 -18.18223305 48.14490465 -16.53466797 48.08935547 C-15.55755859 48.05197266 -14.58044922 48.01458984 -13.57373047 47.97607422 C-10.47216797 47.87060547 -10.47216797 47.87060547 -7.37060547 47.76513672 C-6.39349609 47.72775391 -5.41638672 47.69037109 -4.40966797 47.65185547 C-3.51119141 47.6215625 -2.61271484 47.59126953 -1.68701172 47.56005859 C0.56777898 47.5045309 0.56777898 47.5045309 2.52783203 46.37060547 C2.52783203 45.05060547 2.52783203 43.73060547 2.52783203 42.37060547 C-0.20274712 41.00531589 -2.54875846 41.21962573 -5.59716797 41.12060547 C-12.76687421 40.5903954 -17.23689785 39.01940635 -22.03076172 33.61279297 C-25.6083228 28.6062344 -26.93436374 23.49932134 -26.47216797 17.37060547 C-24.63142193 9.56447874 -21.42502344 5.45047517 -14.69677734 1.26660156 C-10.09938316 -0.58507059 -4.89144108 -0.00118984 0 0 Z " fill="#000000" transform="translate(357.47216796875,247.62939453125)"/>
<path d="M0 0 C2.02184799 -0.00438156 4.04152496 -0.0407508 6.06298828 -0.07861328 C7.34044922 -0.08248047 8.61791016 -0.08634766 9.93408203 -0.09033203 C11.10261719 -0.0985498 12.27115234 -0.10676758 13.47509766 -0.11523438 C17.13502286 0.46723933 18.2905825 1.47768009 20.52783203 4.37060547 C21.05908203 6.37060547 21.05908203 6.37060547 21.02783203 8.37060547 C21.03814453 9.03060547 21.04845703 9.69060547 21.05908203 10.37060547 C20.21241593 13.55805431 19.29960772 14.50514353 16.52783203 16.37060547 C12.82611985 16.9860247 9.14949228 17.02212602 5.40283203 17.05810547 C3.40014949 17.1000931 1.39753468 17.14549462 -0.60498047 17.19482422 C-1.49072754 17.20602295 -2.37647461 17.21722168 -3.2890625 17.22875977 C-5.51793742 17.23170682 -5.51793742 17.23170682 -7.47216797 18.37060547 C-7.47216797 19.69060547 -7.47216797 21.01060547 -7.47216797 22.37060547 C-4.86985897 23.67175997 -2.75338233 23.55434914 0.15283203 23.68310547 C6.50968905 24.19317663 11.66977993 25.23389329 16.09033203 30.08544922 C20.8834158 36.52615553 21.10267163 42.49007713 20.52783203 50.37060547 C18.54534066 56.10939629 14.99371657 59.92413078 9.77050781 62.98803711 C4.15808959 65.38098429 -1.57797744 64.84178354 -7.59716797 64.80810547 C-8.87205078 64.82808594 -10.14693359 64.84806641 -11.46044922 64.86865234 C-12.68376953 64.86800781 -13.90708984 64.86736328 -15.16748047 64.86669922 C-16.83834717 64.86947876 -16.83834717 64.86947876 -18.54296875 64.87231445 C-22.12615032 64.25859232 -23.2744501 63.2126821 -25.47216797 60.37060547 C-26.64807771 56.68608829 -26.80698135 55.08806272 -25.15966797 51.55810547 C-23.47216797 49.37060547 -23.47216797 49.37060547 -21.47216797 48.37060547 C-19.82966463 48.23010915 -18.18223305 48.14490465 -16.53466797 48.08935547 C-15.55755859 48.05197266 -14.58044922 48.01458984 -13.57373047 47.97607422 C-10.47216797 47.87060547 -10.47216797 47.87060547 -7.37060547 47.76513672 C-6.39349609 47.72775391 -5.41638672 47.69037109 -4.40966797 47.65185547 C-3.51119141 47.6215625 -2.61271484 47.59126953 -1.68701172 47.56005859 C0.56777898 47.5045309 0.56777898 47.5045309 2.52783203 46.37060547 C2.52783203 45.05060547 2.52783203 43.73060547 2.52783203 42.37060547 C-0.20274712 41.00531589 -2.54875846 41.21962573 -5.59716797 41.12060547 C-12.76687421 40.5903954 -17.23689785 39.01940635 -22.03076172 33.61279297 C-25.6083228 28.6062344 -26.93436374 23.49932134 -26.47216797 17.37060547 C-24.63142193 9.56447874 -21.42502344 5.45047517 -14.69677734 1.26660156 C-10.09938316 -0.58507059 -4.89144108 -0.00118984 0 0 Z " fill="#000000" transform="translate(309.47216796875,247.62939453125)"/>
<path d="M0 0 C2.09130859 1.41430664 2.09130859 1.41430664 4 4 C4.62460118 7.2576415 4.60495482 10.48732178 4.609375 13.796875 C4.63417938 15.22003021 4.63417938 15.22003021 4.65948486 16.67193604 C4.70801439 19.69802288 4.72934695 22.72360701 4.75 25.75 C4.77815551 27.80341078 4.80808235 29.85679808 4.83984375 31.91015625 C4.91377484 36.94006279 4.96331933 41.96968944 5 47 C5.55461914 47.0093457 6.10923828 47.01869141 6.68066406 47.02832031 C9.20466481 47.08215722 11.72683814 47.16577254 14.25 47.25 C15.12269531 47.26417969 15.99539063 47.27835937 16.89453125 47.29296875 C23.38429178 47.54066953 23.38429178 47.54066953 26.57617188 49.921875 C28.12013006 52.17533386 28.54228678 53.29364595 28.5 56 C28.5103125 56.66 28.520625 57.32 28.53125 58 C27.75514574 60.92180427 26.31549335 62.09355357 24 64 C21.36206055 64.51757812 21.36206055 64.51757812 18.38671875 64.53125 C16.7615332 64.53898437 16.7615332 64.53898437 15.10351562 64.546875 C13.41258789 64.52367187 13.41258789 64.52367187 11.6875 64.5 C10.57181641 64.51546875 9.45613281 64.5309375 8.30664062 64.546875 C1.67814733 64.51544172 -2.68040371 64.07520373 -8 60 C-11.77188632 55.58979446 -13.10870128 50.35980166 -13.16113281 44.67797852 C-13.17074036 43.83352676 -13.1803479 42.98907501 -13.19024658 42.11903381 C-13.19449646 41.21479172 -13.19874634 40.31054962 -13.203125 39.37890625 C-13.20882507 38.44199448 -13.21452515 37.5050827 -13.22039795 36.53977966 C-13.2298331 34.560304 -13.23637602 32.58081274 -13.24023438 30.60131836 C-13.2499533 27.57703287 -13.28099612 24.55342336 -13.3125 21.52929688 C-13.31902921 19.60417069 -13.32428 17.67903966 -13.328125 15.75390625 C-13.3466452 14.40057945 -13.3466452 14.40057945 -13.36553955 13.01991272 C-13.3484925 8.20529269 -13.19006421 4.88273336 -10 1 C-6.87057535 -0.56471233 -3.38917777 -0.69701958 0 0 Z " fill="#000000" transform="translate(392,248)"/>
</svg>
