<svg width="641" height="215" viewBox="0 0 641 215" fill="none" xmlns="http://www.w3.org/2000/svg">
<path d="M53.182 20.145C61.542 20.145 65.722 22.8033 65.722 28.12C65.722 30.6133 65.1536 32.74 64.017 34.5C62.8803 36.2233 60.8453 37.58 57.912 38.57C54.9786 39.5233 50.9086 40 45.702 40H20.952C21.2453 32.8867 21.392 26.2317 21.392 20.035C21.392 13.8383 21.2453 7.18333 20.952 0.0699994H33.877V0.124999H45.592C50.1386 0.124999 53.7136 0.509998 56.317 1.28C58.957 2.01333 60.8086 3.095 61.872 4.525C62.972 5.955 63.522 7.77 63.522 9.97C63.522 12.2067 62.7336 14.205 61.157 15.965C59.617 17.6883 56.9586 19.0817 53.182 20.145ZM33.877 10.135V15.25H44.437C46.7103 15.25 48.287 15.0483 49.167 14.645C50.0836 14.2417 50.542 13.5083 50.542 12.445C50.542 11.6017 50.0653 11.015 49.112 10.685C48.1953 10.3183 46.637 10.135 44.437 10.135H33.877ZM44.437 29.935C46.3436 29.935 47.792 29.8617 48.782 29.715C49.8086 29.5317 50.542 29.2383 50.982 28.835C51.422 28.395 51.642 27.8083 51.642 27.075C51.642 26.1217 51.1103 25.4433 50.047 25.04C49.0203 24.6 47.1503 24.38 44.437 24.38H33.877V29.935H44.437ZM105.352 30.87C105.352 32.1167 105.499 32.9967 105.792 33.51C106.086 34.0233 106.672 34.39 107.552 34.61L107.332 39.78C106.159 39.9633 105.132 40.0917 104.252 40.165C103.409 40.2383 102.272 40.275 100.842 40.275C97.6891 40.275 95.5991 39.5783 94.5725 38.185C93.5458 36.755 93.0325 34.94 93.0325 32.74V31.365C91.9691 34.3717 90.4108 36.6083 88.3575 38.075C86.3408 39.5417 83.7558 40.275 80.6025 40.275C76.9358 40.275 74.1675 39.5417 72.2975 38.075C70.4641 36.6083 69.5475 34.4267 69.5475 31.53C69.5475 29.1467 70.3358 27.2767 71.9125 25.92C73.4891 24.5633 75.9275 23.6283 79.2275 23.115C76.4408 21.135 73.6541 19.4117 70.8675 17.945C73.0675 15.1583 75.5791 13.05 78.4025 11.62C81.2258 10.1533 84.6541 9.42 88.6875 9.42C94.3341 9.42 98.5141 10.6483 101.227 13.105C103.977 15.525 105.352 19.265 105.352 24.325V30.87ZM89.8425 19.1C87.9725 19.1 86.3225 19.4117 84.8925 20.035C83.4625 20.6583 82.1791 21.5933 81.0425 22.84C83.2425 22.5833 85.9925 22.455 89.2925 22.455C90.6491 22.455 91.6025 22.29 92.1525 21.96C92.7025 21.63 92.9775 21.2083 92.9775 20.695C92.9775 20.255 92.7025 19.8883 92.1525 19.595C91.6025 19.265 90.8325 19.1 89.8425 19.1ZM84.0675 31.31C86.1208 31.31 87.9725 30.925 89.6225 30.155C91.2725 29.3483 92.4091 28.3033 93.0325 27.02V25.59C92.1525 26.03 91.1808 26.3783 90.1175 26.635C89.0541 26.855 87.7708 27.075 86.2675 27.295L84.2875 27.625C82.2341 28.0283 81.2075 28.725 81.2075 29.715C81.2075 30.7783 82.1608 31.31 84.0675 31.31ZM151.674 9.97C151.491 15.5433 151.399 20.5483 151.399 24.985C151.399 29.4217 151.491 34.4267 151.674 40H110.864C111.047 35.82 111.139 30.815 111.139 24.985C111.139 19.155 111.047 14.15 110.864 9.97H122.194V29.99H126.429V9.97H136.164V29.99H140.344V9.97H151.674ZM190.519 9.97C190.335 15.2867 190.244 20.09 190.244 24.38C190.244 28.5967 190.335 33.4 190.519 38.79H179.244L179.849 19.76L171.434 38.79H156.089C156.309 33.95 156.419 29.1467 156.419 24.38C156.419 19.54 156.309 14.7367 156.089 9.97H166.924L166.374 29.495L174.789 9.97H190.519ZM217.097 24.985C217.171 26.855 217.757 28.3583 218.857 29.495C219.994 30.6317 221.662 31.2 223.862 31.2C225.072 31.2 226.154 30.98 227.107 30.54C228.061 30.0633 228.941 29.3667 229.747 28.45C232.864 29.66 236.512 30.705 240.692 31.585C239.482 34.4083 237.429 36.6083 234.532 38.185C231.672 39.7617 227.951 40.55 223.367 40.55C217.244 40.55 212.716 39.12 209.782 36.26C206.849 33.4 205.382 29.6417 205.382 24.985C205.382 20.3283 206.849 16.57 209.782 13.71C212.716 10.85 217.244 9.42 223.367 9.42C227.951 9.42 231.672 10.2083 234.532 11.785C237.429 13.3617 239.482 15.5617 240.692 18.385C237.429 19.0817 233.781 20.1267 229.747 21.52C228.941 20.6033 228.061 19.925 227.107 19.485C226.154 19.0083 225.072 18.77 223.862 18.77C221.662 18.77 219.994 19.3383 218.857 20.475C217.757 21.6117 217.171 23.115 217.097 24.985ZM273.914 26.25H255.984C256.277 27.8633 256.992 29.1833 258.129 30.21C259.302 31.2 260.952 31.695 263.079 31.695C264.619 31.695 266.067 31.4017 267.424 30.815C268.781 30.1917 269.862 29.33 270.669 28.23C273.126 29.44 276.389 30.7417 280.459 32.135C279.322 34.7017 277.251 36.755 274.244 38.295C271.274 39.7983 267.387 40.55 262.584 40.55C256.351 40.55 251.731 39.12 248.724 36.26C245.754 33.3633 244.269 29.5683 244.269 24.875C244.269 20.2917 245.754 16.57 248.724 13.71C251.694 10.85 256.314 9.42 262.584 9.42C266.324 9.42 269.569 10.0433 272.319 11.29C275.069 12.5367 277.177 14.2783 278.644 16.515C280.111 18.715 280.844 21.245 280.844 24.105C280.844 25.0583 280.807 25.7733 280.734 26.25H273.914ZM263.354 17.725C261.521 17.725 260.017 18.0733 258.844 18.77C257.671 19.4667 256.846 20.42 256.369 21.63H269.349C268.909 20.4567 268.194 19.5217 267.204 18.825C266.214 18.0917 264.931 17.725 263.354 17.725ZM308.708 9.42C311.091 9.42 313.236 10.0983 315.143 11.455C317.049 12.8117 318.534 14.6633 319.598 17.01C320.661 19.32 321.193 21.8683 321.193 24.655C321.193 27.405 320.661 30.0083 319.598 32.465C318.534 34.885 317.031 36.8467 315.088 38.35C313.181 39.8167 310.999 40.55 308.543 40.55C305.683 40.55 303.226 39.9633 301.173 38.79C299.156 37.58 297.653 35.7283 296.663 33.235C296.663 35.325 296.736 38.68 296.883 43.3C297.029 47.7733 297.103 50.9267 297.103 52.76H284.673C284.893 45.94 285.003 38.8083 285.003 31.365C285.003 23.9217 284.893 16.79 284.673 9.97H295.233L296.828 16.845C297.854 14.2783 299.394 12.4083 301.448 11.235C303.501 10.025 305.921 9.42 308.708 9.42ZM302.823 30.65C304.473 30.65 305.848 30.1367 306.948 29.11C308.084 28.0467 308.653 26.6717 308.653 24.985C308.653 23.115 308.139 21.5933 307.113 20.42C306.086 19.2467 304.693 18.66 302.933 18.66C300.916 18.66 299.394 19.155 298.368 20.145C297.341 21.0983 296.828 22.7117 296.828 24.985C296.828 26.2683 297.158 27.35 297.818 28.23C298.478 29.0733 299.266 29.6967 300.183 30.1C301.099 30.4667 301.979 30.65 302.823 30.65ZM349.318 25.095C355.588 25.095 358.723 27.0933 358.723 31.09C358.723 33.95 357.623 36.15 355.423 37.69C353.26 39.23 349.337 40 343.653 40H325.063C325.247 35.82 325.338 30.815 325.338 24.985C325.338 19.155 325.247 14.15 325.063 9.97H336.448V10.025H343.598C347.045 10.025 349.74 10.3183 351.683 10.905C353.663 11.455 355.057 12.2617 355.863 13.325C356.67 14.3883 357.073 15.745 357.073 17.395C357.073 21.0983 354.488 23.665 349.318 25.095ZM336.448 17.56V21.41H340.628C342.315 21.41 343.507 21.2633 344.203 20.97C344.9 20.64 345.248 20.0717 345.248 19.265C345.248 18.6417 344.882 18.2017 344.148 17.945C343.452 17.6883 342.278 17.56 340.628 17.56H336.448ZM340.628 32.41C342.718 32.41 344.148 32.2633 344.918 31.97C345.688 31.64 346.073 31.0717 346.073 30.265C346.073 29.5683 345.67 29.055 344.863 28.725C344.057 28.395 342.645 28.23 340.628 28.23H336.448V32.41H340.628ZM396.984 9.97C396.8 15.2867 396.709 20.09 396.709 24.38C396.709 28.5967 396.8 33.4 396.984 38.79H385.709L386.314 19.76L377.899 38.79H362.554C362.774 33.95 362.884 29.1467 362.884 24.38C362.884 19.54 362.774 14.7367 362.554 9.97H373.389L372.839 29.495L381.254 9.97H396.984ZM412.552 24.985C412.625 26.855 413.212 28.3583 414.312 29.495C415.448 30.6317 417.117 31.2 419.317 31.2C420.527 31.2 421.608 30.98 422.562 30.54C423.515 30.0633 424.395 29.3667 425.202 28.45C428.318 29.66 431.967 30.705 436.147 31.585C434.937 34.4083 432.883 36.6083 429.987 38.185C427.127 39.7617 423.405 40.55 418.822 40.55C412.698 40.55 408.17 39.12 405.237 36.26C402.303 33.4 400.837 29.6417 400.837 24.985C400.837 20.3283 402.303 16.57 405.237 13.71C408.17 10.85 412.698 9.42 418.822 9.42C423.405 9.42 427.127 10.2083 429.987 11.785C432.883 13.3617 434.937 15.5617 436.147 18.385C432.883 19.0817 429.235 20.1267 425.202 21.52C424.395 20.6033 423.515 19.925 422.562 19.485C421.608 19.0083 420.527 18.77 419.317 18.77C417.117 18.77 415.448 19.3383 414.312 20.475C413.212 21.6117 412.625 23.115 412.552 24.985ZM459.358 16.68C464.822 16.68 468.635 17.7617 470.798 19.925C472.962 22.0517 474.043 25.0217 474.043 28.835C474.043 32.3917 472.962 35.1417 470.798 37.085C468.672 38.9917 464.858 39.945 459.358 39.945H452.043V40H440.273C440.457 35.82 440.548 30.815 440.548 24.985C440.548 19.155 440.457 14.15 440.273 9.97H452.043V16.68H459.358ZM488.233 9.97C488.05 14.0767 487.958 19.0633 487.958 24.93C487.958 30.76 488.05 35.7467 488.233 39.89H476.188C476.298 32.52 476.353 26.3233 476.353 21.3C476.353 16.2767 476.298 12.5 476.188 9.97H488.233ZM456.058 31.2C458.662 31.2 460.477 30.9983 461.503 30.595C462.53 30.1917 463.043 29.4033 463.043 28.23C463.043 27.0567 462.512 26.2683 461.448 25.865C460.385 25.425 458.588 25.205 456.058 25.205L452.043 25.26V31.2H456.058ZM503.652 10.025H539.182V40.275H527.137V20.365H515.697V40.275H503.652V10.025ZM561.269 40.55C554.999 40.55 550.379 39.12 547.409 36.26C544.476 33.3633 543.009 29.5683 543.009 24.875C543.009 20.2917 544.476 16.57 547.409 13.71C550.379 10.85 554.999 9.42 561.269 9.42C565.486 9.42 569.006 10.1167 571.829 11.51C574.689 12.8667 576.798 14.7183 578.154 17.065C579.511 19.375 580.189 21.9783 580.189 24.875C580.189 29.605 578.613 33.4 575.459 36.26C572.343 39.12 567.613 40.55 561.269 40.55ZM561.489 31.2C563.873 31.2 565.651 30.6317 566.824 29.495C567.998 28.3583 568.584 26.8367 568.584 24.93C568.584 23.1333 567.998 21.6667 566.824 20.53C565.651 19.3567 563.873 18.77 561.489 18.77C559.106 18.77 557.364 19.3383 556.264 20.475C555.164 21.6117 554.614 23.0967 554.614 24.93C554.614 26.8367 555.164 28.3583 556.264 29.495C557.364 30.6317 559.106 31.2 561.489 31.2ZM618.377 32.19H620.027V46.985H609.632V40.99H592.252V47.095H581.857V32.19H583.672C584.919 32.0067 585.854 31.5483 586.477 30.815C587.137 30.0817 587.651 28.8717 588.017 27.185C588.274 25.865 588.402 22.7117 588.402 17.725V9.97L618.377 10.025V32.19ZM597.752 30.375C597.679 30.7783 597.532 31.3833 597.312 32.19H607.872V19.265H598.522V20.915C598.486 23.0417 598.431 24.7283 598.357 25.975C598.284 27.185 598.082 28.6517 597.752 30.375ZM28.6199 105.645C30.2699 106.965 31.5349 108.45 32.4149 110.1C33.2949 111.75 34.1199 113.73 34.8899 116.04C35.6599 118.057 36.2099 119.377 36.5399 120H23.2849C23.1749 119.743 22.9549 118.937 22.6249 117.58C22.3316 116.223 22.0383 115.142 21.7449 114.335C21.4516 113.492 21.0116 112.758 20.4249 112.135C19.5083 111.145 18.4816 110.503 17.3449 110.21C16.2083 109.917 14.5216 109.77 12.2849 109.77V120H0.514942C0.698275 115.82 0.789942 110.815 0.789942 104.985C0.789942 99.155 0.698275 94.15 0.514942 89.97H12.2849V100.75H12.5049C16.8683 96.3867 20.0399 92.7933 22.0199 89.97H36.5399L23.6699 102.785C25.5766 103.592 27.2266 104.545 28.6199 105.645ZM56.4671 120.55C50.1971 120.55 45.5771 119.12 42.6071 116.26C39.6738 113.363 38.2071 109.568 38.2071 104.875C38.2071 100.292 39.6738 96.57 42.6071 93.71C45.5771 90.85 50.1971 89.42 56.4671 89.42C60.6838 89.42 64.2038 90.1167 67.0271 91.51C69.8871 92.8667 71.9955 94.7183 73.3521 97.065C74.7088 99.375 75.3871 101.978 75.3871 104.875C75.3871 109.605 73.8105 113.4 70.6571 116.26C67.5405 119.12 62.8105 120.55 56.4671 120.55ZM56.6871 111.2C59.0705 111.2 60.8488 110.632 62.0221 109.495C63.1955 108.358 63.7821 106.837 63.7821 104.93C63.7821 103.133 63.1955 101.667 62.0221 100.53C60.8488 99.3567 59.0705 98.77 56.6871 98.77C54.3038 98.77 52.5621 99.3383 51.4621 100.475C50.3621 101.612 49.8121 103.097 49.8121 104.93C49.8121 106.837 50.3621 108.358 51.4621 109.495C52.5621 110.632 54.3038 111.2 56.6871 111.2ZM113.905 89.97C113.722 95.5433 113.63 100.548 113.63 104.985C113.63 109.422 113.722 114.427 113.905 120H101.97V109.99H91.1902V120H79.2552C79.4385 115.82 79.5302 110.815 79.5302 104.985C79.5302 99.155 79.4385 94.15 79.2552 89.97H91.1902V99.98H101.97V89.97H113.905ZM151.688 100.31C146.188 100.163 142.191 100.072 139.698 100.035V120H128.038V100.035C125.581 100.072 121.603 100.163 116.103 100.31V89.97H151.688V100.31ZM177.948 89.42C180.332 89.42 182.477 90.0983 184.383 91.455C186.29 92.8117 187.775 94.6633 188.838 97.01C189.902 99.32 190.433 101.868 190.433 104.655C190.433 107.405 189.902 110.008 188.838 112.465C187.775 114.885 186.272 116.847 184.328 118.35C182.422 119.817 180.24 120.55 177.783 120.55C174.923 120.55 172.467 119.963 170.413 118.79C168.397 117.58 166.893 115.728 165.903 113.235C165.903 115.325 165.977 118.68 166.123 123.3C166.27 127.773 166.343 130.927 166.343 132.76H153.913C154.133 125.94 154.243 118.808 154.243 111.365C154.243 103.922 154.133 96.79 153.913 89.97H164.473L166.068 96.845C167.095 94.2783 168.635 92.4083 170.688 91.235C172.742 90.025 175.162 89.42 177.948 89.42ZM172.063 110.65C173.713 110.65 175.088 110.137 176.188 109.11C177.325 108.047 177.893 106.672 177.893 104.985C177.893 103.115 177.38 101.593 176.353 100.42C175.327 99.2467 173.933 98.66 172.173 98.66C170.157 98.66 168.635 99.155 167.608 100.145C166.582 101.098 166.068 102.712 166.068 104.985C166.068 106.268 166.398 107.35 167.058 108.23C167.718 109.073 168.507 109.697 169.423 110.1C170.34 110.467 171.22 110.65 172.063 110.65ZM212.014 120.55C205.744 120.55 201.124 119.12 198.154 116.26C195.221 113.363 193.754 109.568 193.754 104.875C193.754 100.292 195.221 96.57 198.154 93.71C201.124 90.85 205.744 89.42 212.014 89.42C216.231 89.42 219.751 90.1167 222.574 91.51C225.434 92.8667 227.542 94.7183 228.899 97.065C230.256 99.375 230.934 101.978 230.934 104.875C230.934 109.605 229.357 113.4 226.204 116.26C223.087 119.12 218.357 120.55 212.014 120.55ZM212.234 111.2C214.617 111.2 216.396 110.632 217.569 109.495C218.742 108.358 219.329 106.837 219.329 104.93C219.329 103.133 218.742 101.667 217.569 100.53C216.396 99.3567 214.617 98.77 212.234 98.77C209.851 98.77 208.109 99.3383 207.009 100.475C205.909 101.612 205.359 103.097 205.359 104.93C205.359 106.837 205.909 108.358 207.009 109.495C208.109 110.632 209.851 111.2 212.234 111.2ZM269.067 120.275H257.022V100.365H249.212L249.157 102.07C249.12 103.83 249.047 105.388 248.937 106.745C248.864 108.065 248.68 109.495 248.387 111.035C247.14 117.745 242.062 121.1 233.152 121.1V112.355C234.875 112.135 236.049 111.603 236.672 110.76C237.295 109.88 237.607 108.523 237.607 106.69V89.97L269.067 90.025V120.275ZM302.569 106.25H284.639C284.932 107.863 285.647 109.183 286.784 110.21C287.957 111.2 289.607 111.695 291.734 111.695C293.274 111.695 294.722 111.402 296.079 110.815C297.436 110.192 298.517 109.33 299.324 108.23C301.781 109.44 305.044 110.742 309.114 112.135C307.977 114.702 305.906 116.755 302.899 118.295C299.929 119.798 296.042 120.55 291.239 120.55C285.006 120.55 280.386 119.12 277.379 116.26C274.409 113.363 272.924 109.568 272.924 104.875C272.924 100.292 274.409 96.57 277.379 93.71C280.349 90.85 284.969 89.42 291.239 89.42C294.979 89.42 298.224 90.0433 300.974 91.29C303.724 92.5367 305.832 94.2783 307.299 96.515C308.766 98.715 309.499 101.245 309.499 104.105C309.499 105.058 309.462 105.773 309.389 106.25H302.569ZM292.009 97.725C290.176 97.725 288.672 98.0733 287.499 98.77C286.326 99.4667 285.501 100.42 285.024 101.63H298.004C297.564 100.457 296.849 99.5217 295.859 98.825C294.869 98.0917 293.586 97.725 292.009 97.725ZM355.292 89.97L357.382 120H346.712L346.052 98.495L341.872 120H328.837L324.602 98.77L323.997 120H313.327L315.417 89.97H331.697L335.272 109.605L338.462 89.97H355.292ZM367.055 120.55C365.441 120.55 364.066 119.982 362.93 118.845C361.793 117.672 361.225 116.278 361.225 114.665C361.225 113.052 361.793 111.677 362.93 110.54C364.066 109.403 365.441 108.835 367.055 108.835C368.631 108.835 369.988 109.422 371.125 110.595C372.298 111.732 372.885 113.088 372.885 114.665C372.885 116.278 372.298 117.672 371.125 118.845C369.988 119.982 368.631 120.55 367.055 120.55ZM420.001 100.145C428.361 100.145 432.541 102.803 432.541 108.12C432.541 110.613 431.972 112.74 430.836 114.5C429.699 116.223 427.664 117.58 424.731 118.57C421.797 119.523 417.727 120 412.521 120H387.771C388.064 112.887 388.211 106.232 388.211 100.035C388.211 93.8383 388.064 87.1833 387.771 80.07H400.696V80.125H412.411C416.957 80.125 420.532 80.51 423.136 81.28C425.776 82.0133 427.627 83.095 428.691 84.525C429.791 85.955 430.341 87.77 430.341 89.97C430.341 92.2067 429.552 94.205 427.976 95.965C426.436 97.6883 423.777 99.0817 420.001 100.145ZM400.696 90.135V95.25H411.256C413.529 95.25 415.106 95.0483 415.986 94.645C416.902 94.2417 417.361 93.5083 417.361 92.445C417.361 91.6017 416.884 91.015 415.931 90.685C415.014 90.3183 413.456 90.135 411.256 90.135H400.696ZM411.256 109.935C413.162 109.935 414.611 109.862 415.601 109.715C416.627 109.532 417.361 109.238 417.801 108.835C418.241 108.395 418.461 107.808 418.461 107.075C418.461 106.122 417.929 105.443 416.866 105.04C415.839 104.6 413.969 104.38 411.256 104.38H400.696V109.935H411.256ZM448.081 104.985C448.155 106.855 448.741 108.358 449.841 109.495C450.978 110.632 452.646 111.2 454.846 111.2C456.056 111.2 457.138 110.98 458.091 110.54C459.045 110.063 459.925 109.367 460.731 108.45C463.848 109.66 467.496 110.705 471.676 111.585C470.466 114.408 468.413 116.608 465.516 118.185C462.656 119.762 458.935 120.55 454.351 120.55C448.228 120.55 443.7 119.12 440.766 116.26C437.833 113.4 436.366 109.642 436.366 104.985C436.366 100.328 437.833 96.57 440.766 93.71C443.7 90.85 448.228 89.42 454.351 89.42C458.935 89.42 462.656 90.2083 465.516 91.785C468.413 93.3617 470.466 95.5617 471.676 98.385C468.413 99.0817 464.765 100.127 460.731 101.52C459.925 100.603 459.045 99.925 458.091 99.485C457.138 99.0083 456.056 98.77 454.846 98.77C452.646 98.77 450.978 99.3383 449.841 100.475C448.741 101.612 448.155 103.115 448.081 104.985ZM504.898 106.25H486.968C487.261 107.863 487.976 109.183 489.113 110.21C490.286 111.2 491.936 111.695 494.063 111.695C495.603 111.695 497.051 111.402 498.408 110.815C499.765 110.192 500.846 109.33 501.653 108.23C504.11 109.44 507.373 110.742 511.443 112.135C510.306 114.702 508.235 116.755 505.228 118.295C502.258 119.798 498.371 120.55 493.568 120.55C487.335 120.55 482.715 119.12 479.708 116.26C476.738 113.363 475.253 109.568 475.253 104.875C475.253 100.292 476.738 96.57 479.708 93.71C482.678 90.85 487.298 89.42 493.568 89.42C497.308 89.42 500.553 90.0433 503.303 91.29C506.053 92.5367 508.161 94.2783 509.628 96.515C511.095 98.715 511.828 101.245 511.828 104.105C511.828 105.058 511.791 105.773 511.718 106.25H504.898ZM494.338 97.725C492.505 97.725 491.001 98.0733 489.828 98.77C488.655 99.4667 487.83 100.42 487.353 101.63H500.333C499.893 100.457 499.178 99.5217 498.188 98.825C497.198 98.0917 495.915 97.725 494.338 97.725ZM527.372 120H515.657C515.84 115.783 515.932 110.778 515.932 104.985C515.932 99.155 515.84 94.15 515.657 89.97H546.567C546.53 91.2533 546.512 93.82 546.512 97.67V100.64H527.372V120ZM583.062 112.19H584.712V126.985H574.317V120.99H556.937V127.095H546.542V112.19H548.357C549.604 112.007 550.539 111.548 551.162 110.815C551.822 110.082 552.336 108.872 552.702 107.185C552.959 105.865 553.087 102.712 553.087 97.725V89.97L583.062 90.025V112.19ZM562.437 110.375C562.364 110.778 562.217 111.383 561.997 112.19H572.557V99.265H563.207V100.915C563.171 103.042 563.116 104.728 563.042 105.975C562.969 107.185 562.767 108.652 562.437 110.375ZM624.388 110.87C624.388 112.117 624.535 112.997 624.828 113.51C625.121 114.023 625.708 114.39 626.588 114.61L626.368 119.78C625.195 119.963 624.168 120.092 623.288 120.165C622.445 120.238 621.308 120.275 619.878 120.275C616.725 120.275 614.635 119.578 613.608 118.185C612.581 116.755 612.068 114.94 612.068 112.74V111.365C611.005 114.372 609.446 116.608 607.393 118.075C605.376 119.542 602.791 120.275 599.638 120.275C595.971 120.275 593.203 119.542 591.333 118.075C589.5 116.608 588.583 114.427 588.583 111.53C588.583 109.147 589.371 107.277 590.948 105.92C592.525 104.563 594.963 103.628 598.263 103.115C595.476 101.135 592.69 99.4117 589.903 97.945C592.103 95.1583 594.615 93.05 597.438 91.62C600.261 90.1533 603.69 89.42 607.723 89.42C613.37 89.42 617.55 90.6483 620.263 93.105C623.013 95.525 624.388 99.265 624.388 104.325V110.87ZM608.878 99.1C607.008 99.1 605.358 99.4117 603.928 100.035C602.498 100.658 601.215 101.593 600.078 102.84C602.278 102.583 605.028 102.455 608.328 102.455C609.685 102.455 610.638 102.29 611.188 101.96C611.738 101.63 612.013 101.208 612.013 100.695C612.013 100.255 611.738 99.8883 611.188 99.595C610.638 99.265 609.868 99.1 608.878 99.1ZM603.103 111.31C605.156 111.31 607.008 110.925 608.658 110.155C610.308 109.348 611.445 108.303 612.068 107.02V105.59C611.188 106.03 610.216 106.378 609.153 106.635C608.09 106.855 606.806 107.075 605.303 107.295L603.323 107.625C601.27 108.028 600.243 108.725 600.243 109.715C600.243 110.778 601.196 111.31 603.103 111.31ZM635.18 120.55C633.566 120.55 632.191 119.982 631.055 118.845C629.918 117.672 629.35 116.278 629.35 114.665C629.35 113.052 629.918 111.677 631.055 110.54C632.191 109.403 633.566 108.835 635.18 108.835C636.756 108.835 638.113 109.422 639.25 110.595C640.423 111.732 641.01 113.088 641.01 114.665C641.01 116.278 640.423 117.672 639.25 118.845C638.113 119.982 636.756 120.55 635.18 120.55Z" fill="black"/>
<path d="M135.86 184.985C135.933 186.855 136.52 188.358 137.62 189.495C138.756 190.632 140.425 191.2 142.625 191.2C143.835 191.2 144.916 190.98 145.87 190.54C146.823 190.063 147.703 189.367 148.51 188.45C151.626 189.66 155.275 190.705 159.455 191.585C158.245 194.408 156.191 196.608 153.295 198.185C150.435 199.762 146.713 200.55 142.13 200.55C136.006 200.55 131.478 199.12 128.545 196.26C125.611 193.4 124.145 189.642 124.145 184.985C124.145 180.328 125.611 176.57 128.545 173.71C131.478 170.85 136.006 169.42 142.13 169.42C146.713 169.42 150.435 170.208 153.295 171.785C156.191 173.362 158.245 175.562 159.455 178.385C156.191 179.082 152.543 180.127 148.51 181.52C147.703 180.603 146.823 179.925 145.87 179.485C144.916 179.008 143.835 178.77 142.625 178.77C140.425 178.77 138.756 179.338 137.62 180.475C136.52 181.612 135.933 183.115 135.86 184.985ZM199.562 160.125C206.859 160.125 211.937 161.427 214.797 164.03C217.657 166.597 219.087 170.227 219.087 174.92C219.087 178.147 218.519 180.897 217.382 183.17C216.245 185.407 214.247 187.167 211.387 188.45C208.527 189.697 204.585 190.32 199.562 190.32H188.122V200H174.592C174.885 192.887 175.032 186.232 175.032 180.035C175.032 173.838 174.885 167.183 174.592 160.07H188.122V160.125H199.562ZM195.712 179.705C198.755 179.705 201.029 179.595 202.532 179.375C204.072 179.118 205.135 178.678 205.722 178.055C206.345 177.432 206.657 176.515 206.657 175.305C206.657 174.095 206.364 173.197 205.777 172.61C205.227 171.987 204.182 171.565 202.642 171.345C201.139 171.125 198.829 171.015 195.712 171.015H188.122V179.705H195.712ZM230.839 166.725C228.529 166.725 226.806 166.157 225.669 165.02C224.569 163.883 224.019 162.398 224.019 160.565C224.019 158.768 224.569 157.283 225.669 156.11C226.806 154.937 228.529 154.35 230.839 154.35C233.039 154.35 234.726 154.955 235.899 156.165C237.072 157.338 237.659 158.805 237.659 160.565C237.659 162.398 237.091 163.883 235.954 165.02C234.817 166.157 233.112 166.725 230.839 166.725ZM224.459 200C224.716 194.097 224.844 189.22 224.844 185.37C224.844 180.787 224.697 175.653 224.404 169.97H237.604C237.311 175.433 237.164 180.567 237.164 185.37C237.164 189.403 237.292 194.28 237.549 200H224.459ZM264.04 200C264.26 194.61 264.37 189.642 264.37 185.095C264.37 183.482 263.967 182.198 263.16 181.245C262.39 180.292 261.4 179.815 260.19 179.815C258.98 179.815 257.953 180.365 257.11 181.465C256.267 182.528 255.772 183.995 255.625 185.865C255.552 188.652 255.515 190.632 255.515 191.805C255.515 194.298 255.588 197.03 255.735 200H242.59C242.883 194.72 243.03 189.733 243.03 185.04C243.03 180.347 242.883 175.323 242.59 169.97C245.01 170.08 246.862 170.135 248.145 170.135C249.502 170.135 251.353 170.08 253.7 169.97L255.295 178.055C256.138 175.122 257.458 172.958 259.255 171.565C261.052 170.135 263.142 169.42 265.525 169.42C267.725 169.42 269.632 169.915 271.245 170.905C272.858 171.858 274.068 173.16 274.875 174.81C275.718 176.46 276.14 178.312 276.14 180.365V188.285C276.14 193.162 276.232 197.067 276.415 200H264.04ZM306.792 169.97H317.352C317.169 175.983 317.077 184.527 317.077 195.6C317.077 199.963 316.197 203.538 314.437 206.325C312.714 209.112 310.422 211.128 307.562 212.375C304.702 213.658 301.512 214.3 297.992 214.3C294.509 214.3 291.392 213.787 288.642 212.76C285.892 211.77 283.802 210.432 282.372 208.745L284.847 200.33C286.827 201.467 288.697 202.273 290.457 202.75C292.217 203.263 294.051 203.52 295.957 203.52C302.191 203.52 305.307 200.88 305.307 195.6C305.307 194.83 305.326 194.28 305.362 193.95C305.362 193.73 305.362 193.437 305.362 193.07C305.399 192.703 305.399 192.227 305.362 191.64C303.492 196.847 299.532 199.45 293.482 199.45C291.026 199.45 288.826 198.79 286.882 197.47C284.976 196.15 283.491 194.372 282.427 192.135C281.364 189.862 280.832 187.368 280.832 184.655C280.832 181.868 281.364 179.32 282.427 177.01C283.491 174.663 284.976 172.812 286.882 171.455C288.789 170.098 290.934 169.42 293.317 169.42C299.514 169.42 303.547 171.602 305.417 175.965L306.792 169.97ZM299.202 190.65C300.046 190.65 300.926 190.467 301.842 190.1C302.759 189.697 303.547 189.073 304.207 188.23C304.867 187.35 305.197 186.268 305.197 184.985C305.197 182.712 304.684 181.098 303.657 180.145C302.631 179.155 301.109 178.66 299.092 178.66C297.332 178.66 295.939 179.247 294.912 180.42C293.886 181.593 293.372 183.115 293.372 184.985C293.372 186.672 293.922 188.047 295.022 189.11C296.159 190.137 297.552 190.65 299.202 190.65ZM369.005 171.62C363.248 171.437 357.657 171.327 352.23 171.29V200H338.48V171.29C333.017 171.327 327.443 171.437 321.76 171.62V160.07H369.005V171.62ZM382.868 200.55C376.598 200.55 371.978 199.12 369.008 196.26C366.075 193.363 364.608 189.568 364.608 184.875C364.608 180.292 366.075 176.57 369.008 173.71C371.978 170.85 376.598 169.42 382.868 169.42C387.085 169.42 390.605 170.117 393.428 171.51C396.288 172.867 398.397 174.718 399.753 177.065C401.11 179.375 401.788 181.978 401.788 184.875C401.788 189.605 400.212 193.4 397.058 196.26C393.942 199.12 389.212 200.55 382.868 200.55ZM383.088 191.2C385.472 191.2 387.25 190.632 388.423 189.495C389.597 188.358 390.183 186.837 390.183 184.93C390.183 183.133 389.597 181.667 388.423 180.53C387.25 179.357 385.472 178.77 383.088 178.77C380.705 178.77 378.963 179.338 377.863 180.475C376.763 181.612 376.213 183.097 376.213 184.93C376.213 186.837 376.763 188.358 377.863 189.495C378.963 190.632 380.705 191.2 383.088 191.2ZM433.979 191.53L438.709 169.97H449.654L443.549 200H428.864L425.399 185.975L421.494 200H407.359L401.254 169.97H412.199L416.874 191.475L420.064 169.97H430.899L433.979 191.53ZM478.204 186.25H460.274C460.567 187.863 461.282 189.183 462.419 190.21C463.592 191.2 465.242 191.695 467.369 191.695C468.909 191.695 470.357 191.402 471.714 190.815C473.07 190.192 474.152 189.33 474.959 188.23C477.415 189.44 480.679 190.742 484.749 192.135C483.612 194.702 481.54 196.755 478.534 198.295C475.564 199.798 471.677 200.55 466.874 200.55C460.64 200.55 456.02 199.12 453.014 196.26C450.044 193.363 448.559 189.568 448.559 184.875C448.559 180.292 450.044 176.57 453.014 173.71C455.984 170.85 460.604 169.42 466.874 169.42C470.614 169.42 473.859 170.043 476.609 171.29C479.359 172.537 481.467 174.278 482.934 176.515C484.4 178.715 485.134 181.245 485.134 184.105C485.134 185.058 485.097 185.773 485.024 186.25H478.204ZM467.644 177.725C465.81 177.725 464.307 178.073 463.134 178.77C461.96 179.467 461.135 180.42 460.659 181.63H473.639C473.199 180.457 472.484 179.522 471.494 178.825C470.504 178.092 469.22 177.725 467.644 177.725ZM501.722 178.11C503.262 172.573 507.094 169.805 513.217 169.805C514.281 169.805 515.307 169.878 516.297 170.025L514.537 182.345C511.897 181.355 509.734 180.86 508.047 180.86C505.957 180.86 504.417 181.483 503.427 182.73C502.437 183.977 501.942 185.645 501.942 187.735V187.68L501.887 191.31C501.887 193.913 501.961 196.81 502.107 200H488.962C489.256 194.72 489.402 189.733 489.402 185.04C489.402 180.347 489.256 175.323 488.962 169.97C491.382 170.08 493.234 170.135 494.517 170.135C495.874 170.135 497.726 170.08 500.072 169.97L501.722 178.11Z" fill="#778DA9"/>
</svg>
