<?xml version="1.0" encoding="UTF-8"?>
<svg version="1.1" xmlns="http://www.w3.org/2000/svg" width="512" height="512">
<path d="M0 0 C2.81244994 1.22280432 4.4132809 2.12231666 6.11743152 4.67158532 C7.32560316 7.85901456 7.24814169 10.59594094 7.24609566 14.00463486 C7.24840335 14.71330206 7.25071103 15.42196926 7.25308865 16.15211123 C7.25840381 18.53881796 7.24939208 20.9252576 7.24050903 23.31195068 C7.24138079 25.0354453 7.24313122 26.75893966 7.24568737 28.4824326 C7.25017076 33.22788524 7.2421436 37.97324802 7.23213124 42.7186892 C7.22351332 47.83250445 7.22641573 52.94631442 7.22793579 58.06013489 C7.22898569 66.92330887 7.2226981 75.78645346 7.21146011 84.64962006 C7.19522233 97.46434823 7.18999887 110.27906216 7.18748413 123.0937995 C7.18310432 143.88366737 7.16978747 164.67351956 7.15087891 185.46337891 C7.1325275 205.66162029 7.11836738 225.85985743 7.10986328 246.05810547 C7.10933783 247.30263173 7.10881239 248.54715799 7.10827102 249.82939717 C7.10566099 256.07267232 7.10313356 262.3159475 7.10064721 268.5592227 C7.07990581 320.37282597 7.0446725 372.18641222 7 424 C7.94356012 423.9981014 8.88712023 423.9962028 9.85927308 423.99424666 C65.74918323 423.88222853 121.639083 423.79660003 177.52908284 423.74467335 C184.23586012 423.73843659 190.94263715 423.73195383 197.64941406 423.7253418 C198.65052926 423.7243611 198.65052926 423.7243611 199.671869 423.7233606 C221.31027405 423.70204828 242.94861388 423.6644876 264.58697941 423.6185139 C287.45055804 423.5700252 310.31410802 423.54002316 333.17773807 423.52955753 C346.87729475 423.52268781 360.5766642 423.50096971 374.27616327 423.46041767 C383.66309257 423.43404224 393.04992471 423.42598722 402.43688841 423.43249311 C407.85737349 423.43570408 413.2775308 423.43069002 418.69795799 423.40397263 C423.65758013 423.37970439 428.61665299 423.37837064 433.57630001 423.39550553 C435.37317575 423.39762436 437.17008527 423.3912274 438.96689416 423.37558409 C441.40552135 423.35558268 443.84215323 423.36628881 446.28074837 423.38476086 C446.9821287 423.37162579 447.68350903 423.35849072 448.40614331 423.34495762 C453.95471574 423.44025619 456.23163779 425.22214289 460 429 C461.61429923 432.22859847 461.59570657 435.50993653 461 439 C459.26397895 442.02508145 457.16419863 444.41790069 454 446 C451.46732837 446.09661822 448.96225734 446.13195322 446.42935753 446.12304783 C445.63520258 446.12420167 444.84104764 446.12535552 444.02282739 446.12654433 C441.33334349 446.12921361 438.64391818 446.12468627 435.95443726 446.12025452 C434.01817963 446.12069015 432.08192206 446.12156492 430.14566481 446.12284368 C424.80283793 446.1250901 419.46003092 446.12106536 414.11720657 446.11606562 C408.36395008 446.1117634 402.61069478 446.11320738 396.85743713 446.1139679 C386.88217273 446.11449328 376.90691484 446.11134501 366.93165207 446.10573006 C352.50894054 446.09761696 338.08623218 446.09500003 323.66351862 446.09374207 C300.26591167 446.09155125 276.86830819 446.08489891 253.47070312 446.07543945 C230.73665383 446.06625885 208.00260546 446.05917336 185.26855469 446.05493164 C184.56810552 446.05480011 183.86765635 446.05466859 183.14598144 446.05453308 C176.11194613 446.05321459 169.0779108 446.05193877 162.04387547 446.05069422 C147.7140342 446.04815783 133.38419299 446.04533658 119.05435181 446.04234314 C117.73818778 446.04206841 116.42202376 446.04179369 115.06597598 446.04151063 C71.71064929 446.03233594 28.3553244 446.01660185 -15 446 C-15.11437896 390.17615259 -15.20251512 334.35231682 -15.25532665 278.52837532 C-15.26158038 271.94176825 -15.26805197 265.35516141 -15.2746582 258.76855469 C-15.27596976 257.45724867 -15.27728131 256.14594264 -15.2786326 254.79490007 C-15.30040468 233.54667843 -15.33983615 212.29852425 -15.38576398 191.05034266 C-15.43247843 169.25689875 -15.46028479 147.46349022 -15.47044247 125.66999829 C-15.47731202 112.21611584 -15.49902915 98.76242404 -15.53958233 85.30860026 C-15.56595881 76.08986884 -15.57401255 66.87123636 -15.56750689 57.65246992 C-15.56429608 52.32919528 -15.56930811 47.0062544 -15.59602737 41.68303871 C-15.62029794 36.81223369 -15.62162788 31.94198795 -15.60449447 27.07115759 C-15.60237587 25.30658292 -15.60877091 23.54197383 -15.62441591 21.77746724 C-15.64442166 19.38239462 -15.63370882 16.98935277 -15.61523914 14.59431267 C-15.62837421 13.9057671 -15.64150928 13.21722153 -15.65504238 12.50781095 C-15.55887849 7.0069968 -13.73875216 4.74064268 -10 1 C-6.80621918 -0.59689041 -3.47478685 -0.37348957 0 0 Z " fill="#000000" transform="translate(33,33)"/>
<path d="M0 0 C36.96 0 73.92 0 112 0 C112 104.28 112 208.56 112 316 C75.04 316 38.08 316 0 316 C0 211.72 0 107.44 0 0 Z M22 22 C22 111.76 22 201.52 22 294 C44.44 294 66.88 294 90 294 C90 204.24 90 114.48 90 22 C67.56 22 45.12 22 22 22 Z " fill="#000000" transform="translate(54,126)"/>
<path d="M0 0 C36.96 0 73.92 0 112 0 C112 76.89 112 153.78 112 233 C75.04 233 38.08 233 0 233 C0 156.11 0 79.22 0 0 Z M22 23 C22 85.04 22 147.08 22 211 C44.44 211 66.88 211 90 211 C90 148.96 90 86.92 90 23 C67.56 23 45.12 23 22 23 Z " fill="#000000" transform="translate(189,209)"/>
<path d="M0 0 C37.29 0 74.58 0 113 0 C113 45.21 113 90.42 113 137 C75.71 137 38.42 137 0 137 C0 91.79 0 46.58 0 0 Z M23 22 C23 52.69 23 83.38 23 115 C45.11 115 67.22 115 90 115 C90 84.31 90 53.62 90 22 C67.89 22 45.78 22 23 22 Z " fill="#000000" transform="translate(324,305)"/>
</svg>
